<?xml version="1.0" encoding="utf-8"?>
<!-- Generator: Adobe Illustrator 23.0.3, SVG Export Plug-In . SVG Version: 6.00 Build 0)  -->
<svg version="1.1" id="Layer_1" xmlns="http://www.w3.org/2000/svg" xmlns:xlink="http://www.w3.org/1999/xlink" x="0px" y="0px"
	 viewBox="0 0 48 48" style="enable-background:new 0 0 48 48;" xml:space="preserve">
<style type="text/css">
	.st0{fill:#90A4AE;}
	.st1{fill:#FFFFFF;}
	.st2{fill:#64B5F6;}
</style>
<g>
	<path class="st0" d="M27.6,12.4V8.2c0-0.4,0.2-3-1.6-5.1c-1.6-1.8-4.2-2.8-7.8-2.8s-6.2,1-7.8,2.8C8.5,5.2,8.6,7.7,8.7,8.2v4.2
		c-0.5,0.5-0.8,1.3-0.8,2.1v3.2c0,1,0.4,1.8,1.2,2.5c0.8,2.8,2.3,5,2.7,5.8v2.6c0,0.8-0.4,1.5-1.1,1.8l-7.1,3.8
		C1.4,35.5,0,37.9,0,40.5V43c0,3.8,11.9,4.8,18.2,4.8c1.6,0,3.7-0.1,5.9-0.2v-17l0,0v-1.1c-0.2-0.3-0.3-0.7-0.3-1v-2.7
		c0.2-0.2,0.4-0.4,0.5-0.8c1-1.4,1.7-2.9,2.3-4.6c1.1-0.5,1.8-1.6,1.8-2.8v-3.2C28.5,13.7,28.2,13,27.6,12.4z"/>
</g>
<g>
	<rect x="28.4" y="28.6" class="st1" width="18.2" height="18.2"/>
	<path class="st0" d="M46.6,46.6H28.4v-18H27v17.9c0,0.8,0.6,1.5,1.4,1.5h18.2c0.8,0,1.4-0.7,1.4-1.5V28.6h-1.4L46.6,46.6L46.6,46.6
		z"/>
	<path class="st0" d="M35.3,33h7.9c0.2,0,0.4-0.2,0.4-0.4c0-0.2-0.2-0.4-0.4-0.4h-7.9c-0.2,0-0.4,0.2-0.4,0.4
		C34.9,32.8,35.1,33,35.3,33z"/>
	<circle class="st2" cx="31.9" cy="32.6" r="1.5"/>
	<path class="st2" d="M46.6,28.6H48v-1.7c0-0.8-0.6-1.5-1.4-1.5H28.4c-0.8,0-1.4,0.7-1.4,1.5v1.7h1.4"/>
	<path class="st0" d="M35.3,38.1h7.9c0.2,0,0.4-0.2,0.4-0.4s-0.2-0.4-0.4-0.4h-7.9c-0.2,0-0.4,0.2-0.4,0.4
		C34.9,37.9,35.1,38.1,35.3,38.1z"/>
	<circle class="st2" cx="31.9" cy="37.7" r="1.5"/>
	<path class="st0" d="M35.3,44h7.9c0.2,0,0.4-0.2,0.4-0.4s-0.2-0.4-0.4-0.4h-7.9c-0.2,0-0.4,0.2-0.4,0.4S35.1,44,35.3,44z"/>
	<circle class="st2" cx="31.9" cy="43.6" r="1.5"/>
</g>
</svg>
