<?xml version="1.0" encoding="utf-8"?>
<!-- Generator: Adobe Illustrator 23.0.1, SVG Export Plug-In . SVG Version: 6.00 Build 0)  -->
<svg version="1.1" id="Layer_1" xmlns="http://www.w3.org/2000/svg" xmlns:xlink="http://www.w3.org/1999/xlink" x="0px" y="0px"
	 viewBox="0 0 48 48" style="enable-background:new 0 0 48 48;" xml:space="preserve">
<style type="text/css">
	.st0{fill:#249F33;}
</style>
<g>
	<path d="M30.62,41.06v-1.5c-0.29,0.59-0.47,1.24-0.47,1.94c0,2.48,2.02,4.5,4.5,4.5c0.46,0,0.89-0.09,1.3-0.22V43
		c-0.35,0.3-0.8,0.5-1.3,0.5c-0.65,0-1.22-0.32-1.59-0.8h-0.95c-0.06,0.01-1.49,0.01-1.49,0"/>
	<path d="M46.87,10.37c-0.28-0.39-0.73-0.62-1.21-0.62H11.91c-0.07,0-0.13,0-0.19,0.01l-1.39-4c-0.14-0.41-0.46-0.74-0.87-0.9
		l-7-2.75C1.69,1.8,0.82,2.18,0.51,2.95C0.21,3.72,0.59,4.59,1.36,4.9l6.36,2.5l7.78,22.43c-0.34,0.12-0.63,0.38-0.77,0.75
		l-2.25,6.25c-0.14,0.38-0.08,0.81,0.15,1.14c0.23,0.33,0.62,0.53,1.02,0.53h1.16c-0.72,0.8-1.16,1.85-1.16,3
		c0,2.48,2.02,4.5,4.5,4.5s4.5-2.02,4.5-4.5c0-1.15-0.44-2.2-1.16-3h9.12v-1.53h-0.03c-0.01,0-0.01-0.54-0.01-0.97H15.44l1.39-3.87
		c0.18,0.08,0.37,0.12,0.58,0.12h18.7V31.1c0,0,0.01,0,0.01,0c0-0.44,0-1.18,0.01-1.18h5.13l5.84-18.21
		C47.23,11.25,47.15,10.75,46.87,10.37z M18.16,39.5c1.1,0,2,0.9,2,2s-0.9,2-2,2s-2-0.9-2-2S17.06,39.5,18.16,39.5z M12.75,12.75
		h9.2v3.38h-8.03L12.75,12.75z M21.95,29.25h-3.47L17.35,26h4.6V29.25z M21.95,23h-5.64l-1.34-3.88h6.99V23z M31.87,29.25h-6.92V26
		h6.92V29.25z M31.87,23h-6.92v-3.88h6.92V23z M31.87,16.12h-6.92v-3.38h6.92V16.12z M38.31,29.25h-3.45V26h4.49L38.31,29.25z
		 M40.32,23h-5.45v-3.88h6.69L40.32,23z M42.52,16.12h-7.65v-3.38h8.74L42.52,16.12z"/>
</g>
<polygon class="st0" points="47.29,36.87 41.88,36.87 41.88,31.43 37.55,31.43 37.55,36.87 32.08,36.87 32.08,41.2 37.55,41.2 
	37.55,46.67 41.88,46.67 41.88,41.2 47.29,41.2 "/>
</svg>
