<?xml version="1.0" encoding="utf-8"?>
<!-- Generator: Adobe Illustrator 23.0.3, SVG Export Plug-In . SVG Version: 6.00 Build 0)  -->
<svg version="1.1" id="Layer_1" xmlns="http://www.w3.org/2000/svg" xmlns:xlink="http://www.w3.org/1999/xlink" x="0px" y="0px"
	 viewBox="0 0 48 48" style="enable-background:new 0 0 48 48;" xml:space="preserve">
<style type="text/css">
	.st0{fill:#90A4AE;}
	.st1{fill:#64B5F6;}
</style>
<g>
	<path class="st0" d="M37.1,43.2V42l-4.3,4.4C35.3,45.7,37.1,44.7,37.1,43.2z"/>
	<path class="st0" d="M21.7,46.9l1.9-6.7l7-7.1l-5.2-2.6c-0.7-0.4-1.2-1.1-1.2-1.9v-2.7c0.2-0.2,0.4-0.5,0.6-0.8
		c1-1.4,1.8-3,2.4-4.6c1.1-0.5,1.9-1.6,1.9-2.9v-3.2c0-0.8-0.3-1.5-0.8-2.1V8c0-0.4,0.2-3.1-1.7-5.2C24.9,0.9,22.3,0,18.7,0
		s-6.3,0.9-7.9,2.8C8.8,5,9,7.6,9.1,8v4.3c-0.5,0.6-0.8,1.3-0.8,2.1v3.2c0,1,0.4,1.9,1.2,2.5c0.7,2.9,2.3,5.1,2.8,5.8v2.7
		c0,0.8-0.4,1.5-1.1,1.9L4,34.3c-2.3,1.3-3.8,3.7-3.8,6.3v2.6c0,3.8,12,4.8,18.4,4.8c0.9,0,1.9,0,3-0.1
		C21.6,47.6,21.6,47.2,21.7,46.9z"/>
</g>
<g>
	<path class="st1" d="M38.4,28l4.8,4.9L31,45.3l-4.8-4.9L38.4,28z M46.9,26.8l-2.2-2.2c-0.8-0.8-2.2-0.8-3,0l-2.1,2.1l4.8,4.9
		l2.4-2.4C47.5,28.5,47.5,27.5,46.9,26.8z M23.6,47.3c-0.1,0.4,0.3,0.8,0.7,0.7l5.4-1.3l-4.8-4.9L23.6,47.3z"/>
</g>
</svg>
