<?xml version="1.0" encoding="utf-8"?>
<!-- Generator: Adobe Illustrator 23.0.3, SVG Export Plug-In . SVG Version: 6.00 Build 0)  -->
<svg version="1.1" id="Capa_1" xmlns="http://www.w3.org/2000/svg" xmlns:xlink="http://www.w3.org/1999/xlink" x="0px" y="0px"
	 viewBox="0 0 100.6 100.6" style="enable-background:new 0 0 100.6 100.6;" xml:space="preserve">
<style type="text/css">
	.st0{fill:#90A4AE;}
	.st1{fill:#4FC3F7;}
</style>
<g>
	<g>
		<path class="st0" d="M26,41.8L9.6,30.9c-0.2-0.1-0.5-0.1-0.7,0s-0.4,0.3-0.4,0.6v19.9c0,0.2,0.1,0.4,0.3,0.5l16.3,10.9
			c0.1,0.1,0.2,0.1,0.4,0.1c0.1,0,0.2,0,0.3-0.1c0.2-0.1,0.4-0.3,0.4-0.6V42.4C26.2,42.2,26.1,42,26,41.8z"/>
		<path class="st0" d="M26,67L9.6,56.1c-0.2-0.1-0.5-0.2-0.7,0c-0.2,0.1-0.4,0.3-0.4,0.6v19.9c0,0.2,0.1,0.4,0.3,0.6L25.2,88
			c0.1,0.1,0.2,0.1,0.4,0.1c0.1,0,0.2,0,0.3-0.1c0.2-0.1,0.4-0.3,0.4-0.6V67.5C26.2,67.3,26.1,67.1,26,67z"/>
		<path class="st0" d="M45.6,53.4l-16.3-9.9c-0.2-0.1-0.5-0.1-0.7,0s-0.3,0.3-0.3,0.6V64c0,0.2,0.1,0.4,0.3,0.5l16.3,10.9
			c0.1,0.1,0.2,0.1,0.4,0.1c0.1,0,0.2,0,0.3-0.1c0.2-0.1,0.3-0.3,0.3-0.6V54C45.9,53.7,45.8,53.5,45.6,53.4z"/>
		<path class="st0" d="M45.6,79.6L29.3,68.7c-0.2-0.1-0.5-0.2-0.7,0s-0.4,0.3-0.4,0.6v19.9c0,0.2,0.1,0.4,0.3,0.6l16.3,10.9
			c0.1,0.1,0.2,0.1,0.4,0.1c0.1,0,0.2,0,0.3-0.1c0.2-0.1,0.3-0.3,0.3-0.6v-20C45.9,79.9,45.8,79.7,45.6,79.6z"/>
		<path class="st0" d="M84.8,30.9c-0.2-0.1-0.5-0.1-0.7,0L67.4,41.5c-0.2,0.1-0.3,0.3-0.3,0.6l0.4,20.2c0,0.2,0.1,0.5,0.4,0.6
			c0.1,0,0.2,0.1,0.3,0.1c0.1,0,0.3,0,0.4-0.1L84.9,52c0.2-0.1,0.3-0.3,0.3-0.5v-20C85.2,31.2,85,31,84.8,30.9z"/>
		<path class="st0" d="M84.8,56c-0.2-0.1-0.5-0.1-0.7,0L67.8,67c-0.2,0.1-0.3,0.3-0.3,0.6v19.9c0,0.2,0.1,0.5,0.3,0.6
			c0.1,0.1,0.2,0.1,0.3,0.1c0.1,0,0.3,0,0.4-0.1L84.9,77c0.2-0.1,0.3-0.3,0.3-0.6V56.6C85.2,56.4,85,56.2,84.8,56z"/>
		<path class="st0" d="M65.2,43.5c-0.2-0.1-0.5-0.1-0.7,0l-16.3,9.9c-0.2,0.1-0.3,0.3-0.3,0.6v20.9c0,0.3,0.1,0.5,0.3,0.6
			c0.1,0.1,0.2,0.1,0.3,0.1s0.3,0,0.4-0.1l16.3-10.9c0.2-0.1,0.3-0.3,0.3-0.5V44C65.5,43.8,65.4,43.6,65.2,43.5z"/>
		<path class="st0" d="M44.4,29.8c0-0.2-0.1-0.5-0.3-0.6l-15.3-9.1c-0.2-0.1-0.4-0.1-0.6,0L11,28.6c-0.2,0.1-0.4,0.3-0.4,0.6
			c0,0.2,0.1,0.5,0.3,0.6l15.3,9.7c0.1,0.1,0.2,0.1,0.4,0.1c0.1,0,0.2,0,0.3-0.1l17.2-9.1C44.3,30.3,44.4,30,44.4,29.8z"/>
		<path class="st0" d="M31,20l15,8.7c0.1,0.1,0.2,0.1,0.3,0.1s0.2,0,0.3-0.1l16.2-8.8c0.2-0.1,0.3-0.4,0.3-0.6
			c0-0.3-0.2-0.5-0.4-0.6l-15-7.5c-0.2-0.1-0.4-0.1-0.6,0L31,18.7c-0.2,0.1-0.4,0.3-0.4,0.6C30.7,19.6,30.8,19.8,31,20z"/>
		<path class="st0" d="M63.2,41.1c0-0.2-0.1-0.5-0.3-0.6l-16.2-8.6c-0.2-0.1-0.4-0.1-0.6,0l-16,8.7c-0.2,0.1-0.4,0.3-0.4,0.6
			s0.1,0.5,0.3,0.6l16.2,9.1c0.1,0.1,0.2,0.1,0.3,0.1s0.2,0,0.3-0.1l15.9-9.1C63.1,41.5,63.2,41.3,63.2,41.1z"/>
		<path class="st1" d="M91.9,0.3C91.8,0.1,91.6,0,91.3,0L73.1,2c-0.2,0-0.4,0.2-0.5,0.4l-8.3,16.2c-0.1,0.2-0.1,0.5,0,0.7
			s0.3,0.3,0.6,0.3c0,0,0,0,0.1,0L83.5,18c0.2,0,0.4-0.2,0.5-0.4l8-16.5C92.1,0.7,92.1,0.5,91.9,0.3z"/>
		<path class="st0" d="M65.2,68.6c-0.2-0.1-0.5-0.1-0.7,0l-16.4,11c-0.2,0.1-0.3,0.3-0.3,0.6V100c0,0.2,0.1,0.5,0.3,0.6
			c0.1,0.1,0.2,0.1,0.3,0.1s0.3,0,0.4-0.1l16.3-10.9c0.2-0.1,0.3-0.3,0.3-0.6V69.2C65.5,68.9,65.4,68.7,65.2,68.6z"/>
	</g>
</g>
</svg>
