<?xml version="1.0" encoding="utf-8"?>
<!-- Generator: Adobe Illustrator 23.0.3, SVG Export Plug-In . SVG Version: 6.00 Build 0)  -->
<svg version="1.1" id="Layer_1" xmlns="http://www.w3.org/2000/svg" xmlns:xlink="http://www.w3.org/1999/xlink" x="0px" y="0px"
	 viewBox="0 0 48 48" style="enable-background:new 0 0 48 48;" xml:space="preserve">
<style type="text/css">
	.st0{fill:#FFD54F;}
	.st1{fill:#81C784;}
	.st2{fill:#4FC3F7;}
</style>
<g>
	<path class="st0" d="M9.3,20.1l-6.9,2.7l11.9,5.5l6.2-2.9"/>
	<polygon class="st0" points="1.9,23.6 13.7,29 13.7,45.3 1.9,39 	"/>
	<polygon class="st0" points="20.4,26.4 14.6,29 14.6,45.3 20.4,42.2 	"/>
</g>
<g>
	<polygon class="st1" points="33.7,30.8 21.7,25.2 33.7,20.5 45.7,25.2 	"/>
	<polygon class="st1" points="21.2,26 33.2,31.6 33.2,48 21.2,41.6 	"/>
	<polygon class="st1" points="46.1,41.6 34.1,48 34.1,31.6 46.1,26 	"/>
</g>
<g>
	<polygon class="st2" points="21.8,9.4 10.2,4.4 22,0 32.5,5.2 	"/>
	<polygon class="st2" points="9.8,5.1 20.7,10.2 20.8,24.4 9.8,19.3 	"/>
	<polygon class="st2" points="33.4,19.6 21.7,24.2 21.7,10.3 33,5.9 	"/>
</g>
</svg>
