<?xml version="1.0" encoding="utf-8"?>
<!-- Generator: Adobe Illustrator 23.0.3, SVG Export Plug-In . SVG Version: 6.00 Build 0)  -->
<svg version="1.1" id="Layer_1" xmlns="http://www.w3.org/2000/svg" xmlns:xlink="http://www.w3.org/1999/xlink" x="0px" y="0px"
	 viewBox="0 0 48 48" style="enable-background:new 0 0 48 48;" xml:space="preserve">
<style type="text/css">
	.st0{fill:#FFD54F;}
	.st1{fill:#81C784;}
	.st2{fill:#4FC3F7;}
	.st3{fill:#FFFFFF;}
	.st4{fill:#90A4AE;}
	.st5{fill:#64B5F6;}
	.st6{fill:#E53935;}
</style>
<g>
	<g>
		<g>
			<path class="st0" d="M7.1,19.9L0,22.5l12.3,5.7l6.3-3"/>
			<polygon class="st0" points="0,24.1 11.2,29.3 11.2,45.6 0,39.5 			"/>
			<polygon class="st0" points="18.6,26.7 12.7,29.5 12.7,45.6 18.6,42 			"/>
		</g>
		<g>
			<path class="st1" d="M26.9,23.7h14.4l-8.9-3.4l-11.8,5.2l2.8,1.3l0.1-1.2c0.2-0.5,0.2-1,0.9-1.3C24.7,23.9,25.6,23.7,26.9,23.7z"
				/>
			<polygon class="st1" points="23.5,28.5 20.6,27.2 20.6,42 23.5,43.5 			"/>
		</g>
		<g>
			<polygon class="st2" points="19.5,8.5 8.7,3.3 19.5,0 30.9,4.3 			"/>
			<polygon class="st2" points="7.6,4.3 18.9,9.5 19,23.8 7.6,18.4 			"/>
			<polygon class="st2" points="31.2,19.1 20.7,23.7 20.7,9.4 31.7,5.1 			"/>
		</g>
	</g>
	<g>
		<g>
			<g>
				<rect x="25.6" y="25.8" class="st3" width="21.5" height="21.5"/>
				<path class="st4" d="M46.4,25.3H26.9c-0.9,0-1.6,0.8-1.6,1.6v19.5c0,0.9,0.8,1.6,1.6,1.6h19.5c0.9,0,1.6-0.8,1.6-1.6v-14v-0.2
					V27C48,26.1,47.2,25.3,46.4,25.3z M42.5,26.2h3.9c0.4,0,0.8,0.3,0.8,0.8v3.9h-4.6V26.2z M30.7,47.2h-3.8c-0.4,0-0.8-0.3-0.8-0.8
					v-3.9h4.6L30.7,47.2L30.7,47.2z M30.7,41.7H26v-4.6h4.6V41.7z M30.7,36.3H26v-4.6h4.6V36.3z M30.7,30.8H26V27
					c0-0.4,0.3-0.8,0.8-0.8h3.9C30.7,26.2,30.7,30.8,30.7,30.8z M36.2,47.2h-4.6v-4.6h4.6V47.2z M36.2,41.7h-4.6v-4.6h4.6V41.7z
					 M36.2,36.3h-4.6v-4.6h4.6V36.3z M36.2,30.8h-4.6v-4.6h4.6V30.8z M41.6,47.2H37v-4.6h4.6V47.2z M41.6,41.7H37v-4.6h4.6V41.7z
					 M41.6,36.3H37v-4.6h4.6V36.3z M41.6,30.8H37v-4.6h4.6V30.8z M47.1,46.4c0,0.4-0.3,0.8-0.8,0.8h-3.9v-4.6h4.6V46.4z M47.1,41.7
					h-4.6v-4.6h4.6V41.7z M47.1,36.3h-4.6v-4.6h4.6v0.8"/>
			</g>
		</g>
		<circle class="st1" cx="36.6" cy="36.3" r="2.9"/>
		<circle class="st5" cx="36.6" cy="43.6" r="2.9"/>
		<rect x="33" y="29" class="st6" width="8" height="2.9"/>
		<path class="st4" d="M46.5,25.2H26.8c-0.9,0-1.6,0.8-1.6,1.6v19c0,1.2,1,2.2,2.2,2.2h19c0.9,0,1.6-0.8,1.6-1.6v-14v-0.2V27
			C48.1,26,47.3,25.2,46.5,25.2z M47.1,32.4v3.9l0,0v0.9l0,0v4.6l0,0v0.9l0,0v3.9l0,0c0,0.4-0.3,0.8-0.8,0.8h-3.9h-6.3h-4.6H26v-0.8
			v-3.9v-0.9v-4.6v-0.9v-4.6v-0.9V27c0-0.4,0.3-0.8,0.6-0.8l0,0h3.9l0,0h0.9l0,0H36l0,0h0.9l0,0h4.6l0,0h0.9l0,0h3.9l0,0
			c0.3,0,0.6,0.3,0.6,0.6l0,0v3.9l0,0v0.9l0,0L47.1,32.4L47.1,32.4z"/>
	</g>
</g>
</svg>
