<?xml version="1.0" encoding="utf-8"?>
<!-- Generator: Adobe Illustrator 23.0.1, SVG Export Plug-In . SVG Version: 6.00 Build 0)  -->
<svg version="1.1" id="Capa_1" xmlns="http://www.w3.org/2000/svg" xmlns:xlink="http://www.w3.org/1999/xlink" x="0px" y="0px"
	 viewBox="0 0 587.9 587.9" style="enable-background:new 0 0 587.9 587.9;" xml:space="preserve">
<g>
	<g>
		<g>
			<path d="M90.3,506.3c26.9,26.9,58.3,48.1,93.3,62.9c36.2,15.3,74.6,23.1,114.2,23.1c39.6,0,78-7.8,114.2-23.1
				c34.9-14.8,66.3-35.9,93.3-62.9c26.9-26.9,48.1-58.3,62.9-93.3c15.3-36.2,23.1-74.6,23.1-114.2c0-39.6-7.8-78-23.1-114.2
				c-14.8-34.9-35.9-66.3-62.9-93.3c-26.9-26.9-58.3-48.1-93.3-62.9C375.9,13.1,337.4,5.4,297.8,5.4c-39.6,0-78,7.8-114.2,23.1
				c-34.9,14.8-66.3,35.9-93.3,62.9s-48.1,58.3-62.9,93.3C12.1,220.8,4.4,259.2,4.4,298.8c0,39.6,7.8,78,23.1,114.2
				C42.2,448,63.4,479.4,90.3,506.3z M297.8,48.2c138.4,0,250.6,112.2,250.6,250.6c0,138.4-112.2,250.6-250.6,250.6
				S47.2,437.2,47.2,298.8C47.2,160.4,159.4,48.2,297.8,48.2z"/>
			<path d="M297.8,592.8c-39.7,0-78.2-7.8-114.4-23.1c-35-14.8-66.4-36-93.4-63c-27-27-48.2-58.4-63-93.4
				C11.7,377,3.9,338.5,3.9,298.8c0-39.7,7.8-78.2,23.1-114.4c14.8-35,36-66.4,63-93.4s58.4-48.2,93.4-63
				c36.3-15.3,74.8-23.1,114.4-23.1c39.7,0,78.2,7.8,114.4,23.1c35,14.8,66.4,36,93.4,63c27,27,48.2,58.4,63,93.4
				c15.3,36.3,23.1,74.8,23.1,114.4c0,39.7-7.8,78.2-23.1,114.4c-14.8,35-36,66.4-63,93.4c-27,27-58.4,48.2-93.4,63
				C376,585,337.5,592.8,297.8,592.8z M297.8,5.9c-39.5,0-77.9,7.8-114,23c-34.9,14.8-66.2,35.9-93.1,62.8
				c-26.9,26.9-48,58.2-62.8,93.1c-15.3,36.1-23,74.5-23,114c0,39.5,7.8,77.9,23,114c14.8,34.9,35.9,66.2,62.8,93.1
				c26.9,26.9,58.2,48,93.1,62.8c36.1,15.3,74.5,23,114,23s77.9-7.8,114-23c34.9-14.8,66.2-35.9,93.1-62.8
				c26.9-26.9,48-58.2,62.8-93.1c15.3-36.1,23-74.5,23-114c0-39.5-7.8-77.9-23-114c-14.8-34.9-35.9-66.2-62.8-93.1
				c-26.9-26.9-58.2-48-93.1-62.8C375.7,13.6,337.4,5.9,297.8,5.9z M297.8,549.9c-67.1,0-130.1-26.1-177.6-73.5
				C72.8,429,46.7,365.9,46.7,298.8s26.1-130.1,73.6-177.6c47.4-47.4,110.5-73.6,177.6-73.6S428,73.8,475.4,121.3
				c47.4,47.4,73.5,110.5,73.5,177.6S522.8,429,475.4,476.4C428,523.8,364.9,549.9,297.8,549.9z M297.8,48.7
				c-66.8,0-129.6,26-176.9,73.3c-47.2,47.2-73.3,110-73.3,176.9s26,129.6,73.3,176.9c47.2,47.2,110.1,73.3,176.9,73.3
				s129.6-26,176.9-73.3c47.2-47.2,73.3-110,73.3-176.9c0-66.8-26-129.6-73.3-176.9C427.4,74.7,364.6,48.7,297.8,48.7z"/>
		</g>
	</g>
</g>
<g>
	<g id="_x39__34_">
		<g>
			<path d="M452.3,179.1c-24.5-14.1-40.4-7.2-56.6,9.3L243.6,346.7l-48.6-47.8c-16.2-16.5-32.8-23.6-50.8-10.4
				c-18.6,13.6-16.3,33.2-0.2,49.6l72.2,75.6c16.2,16.5,42.3,16.5,58.5,0l175.5-179C466.2,218.3,471.7,198.4,452.3,179.1z"/>
		</g>
	</g>
</g>
</svg>
