<?xml version="1.0" encoding="utf-8"?>
<!-- Generator: Adobe Illustrator 23.0.2, SVG Export Plug-In . SVG Version: 6.00 Build 0)  -->
<svg version="1.1" id="Layer_1" xmlns="http://www.w3.org/2000/svg" xmlns:xlink="http://www.w3.org/1999/xlink" x="0px" y="0px"
	 viewBox="0 0 48 48" style="enable-background:new 0 0 48 48;" xml:space="preserve">
<style type="text/css">
	.st0{fill:#5E747E;}
</style>
<g>
	<path class="st0" d="M44.3,21.8l-9,9c-5,5-13,5-18,0c-0.8-0.8-1.4-1.7-1.9-2.6l4.2-4.2c0.2-0.2,0.4-0.3,0.7-0.5
		c0.3,1,0.8,1.9,1.6,2.7c2.5,2.5,6.5,2.5,9,0l9-9c2.5-2.5,2.5-6.5,0-9c-2.5-2.5-6.5-2.5-9,0l-3.2,3.2c-2.6-1-5.4-1.3-8.1-0.9
		l6.8-6.8c5-5,13-5,18,0C49.2,8.7,49.2,16.8,44.3,21.8z M20.5,36.6l-3.2,3.2c-2.5,2.5-6.5,2.5-9,0c-2.5-2.5-2.5-6.5,0-9l9-9
		c2.5-2.5,6.5-2.5,9,0c0.8,0.8,1.3,1.7,1.6,2.7c0.2-0.1,0.5-0.3,0.7-0.5l4.2-4.2c-0.5-0.9-1.2-1.8-1.9-2.6c-5-5-13-5-18,0l-9,9
		c-5,5-5,13,0,18s13,5,18,0l6.8-6.8C25.8,37.8,23,37.6,20.5,36.6z"/>
</g>
</svg>
