<?xml version="1.0" encoding="utf-8"?>
<!-- Generator: Adobe Illustrator 23.0.3, SVG Export Plug-In . SVG Version: 6.00 Build 0)  -->
<svg version="1.1" id="Layer_1" xmlns="http://www.w3.org/2000/svg" xmlns:xlink="http://www.w3.org/1999/xlink" x="0px" y="0px"
	 viewBox="0 0 48 48" style="enable-background:new 0 0 48 48;" xml:space="preserve">
<style type="text/css">
	.st0{fill:#90A4AE;}
</style>
<g>
	<path class="st0" d="M44,18.9l-7.7,9.7c-4.2,5.4-12.4,6.5-18,2.7c-0.9-0.6-1.7-1.3-2.3-2.1l3.6-4.5c0.2-0.2,0.4-0.4,0.6-0.5
		c0.4,0.9,1,1.7,2,2.3c2.8,2,6.8,1.3,9-1.3l7.7-9.7c2.2-2.7,1.5-6.4-1.2-8.4s-6.8-1.3-9,1.3l-2.8,3.5c-2.7-0.5-5.6-0.4-8.3,0.4
		l5.9-7.3c4.2-5.4,12.4-6.5,18-2.7S48.3,13.5,44,18.9z M22.2,36.1l-2.8,3.4c-2.2,2.7-6.2,3.3-9,1.3S7,35.2,9.1,32.5l7.7-9.7
		c2.2-2.7,6.2-3.3,9-1.3c0.9,0.6,1.5,1.4,2,2.3c0.2-0.2,0.4-0.3,0.6-0.5l3.6-4.5c-0.6-0.7-1.4-1.5-2.3-2.1c-5.7-3.9-13.7-2.7-18,2.7
		L4.1,29c-4.3,5.4-3.2,12.9,2.5,16.7s13.7,2.7,18-2.7l5.9-7.3C27.7,36.6,24.9,36.8,22.2,36.1z"/>
</g>
</svg>
