<?xml version="1.0" encoding="utf-8"?>
<!-- Generator: Adobe Illustrator 23.0.3, SVG Export Plug-In . SVG Version: 6.00 Build 0)  -->
<svg version="1.1" id="Layer_1" xmlns="http://www.w3.org/2000/svg" xmlns:xlink="http://www.w3.org/1999/xlink" x="0px" y="0px"
	 viewBox="0 0 48 48" style="enable-background:new 0 0 48 48;" xml:space="preserve">
<style type="text/css">
	.st0{fill:#90A4AE;}
	.st1{fill:#81C784;}
</style>
<path class="st0" d="M44.6,36.4l-6.4-3.3c-0.6-0.3-1-0.9-1-1.6v-2.3c0.1-0.2,0.3-0.5,0.5-0.7c0.8-1.1,1.5-2.5,2-3.9
	c0.9-0.5,1.6-1.4,1.6-2.5v-2.7c0-0.7-0.2-1.2-0.7-1.8v-3.6c0-0.3,0.2-2.6-1.5-4.4c-1.4-1.6-3.6-2.4-6.7-2.4c-3,0-5.3,0.8-6.7,2.4
	c-1.6,1.8-1.5,4.1-1.5,4.4v3.6c-0.5,0.5-0.7,1.1-0.7,1.8v2.7c0,0.8,0.3,1.6,1,2.1c0.6,2.5,1.9,4.3,2.4,4.8v2.3
	c0,0.7-0.3,1.2-0.9,1.6L20,36.3c-1.9,1.1-3.2,3.2-3.2,5.4v2.1c0,3.2,10.1,4.1,15.6,4.1c5.4,0.1,15.6-0.7,15.6-3.9v-2
	C47.9,39.6,46.7,37.5,44.6,36.4z"/>
<g>
	<g>
		<path class="st1" d="M21.4,20.5l-1-12.6c0-0.7-0.4-1.2-1.1-1.4c-0.5-0.2-1.2-0.1-1.7,0.3l-3.5,3.4L5.3,1C4.6,0.3,3.7,0.3,3,1
			L0.6,3.2C0,3.9,0,4.9,0.6,5.5l9,9.2l-3.5,3.4c-0.4,0.4-0.7,1.1-0.4,1.7c0.1,0.2,0.2,0.4,0.3,0.5c0.2,0.2,0.7,0.4,1,0.5l12.6,1.3
			c0.4,0,1-0.1,1.3-0.4C21.3,21.4,21.4,21,21.4,20.5z"/>
	</g>
</g>
</svg>
