<?xml version="1.0" encoding="utf-8"?>
<!-- Generator: Adobe Illustrator 23.0.3, SVG Export Plug-In . SVG Version: 6.00 Build 0)  -->
<svg version="1.1" id="Layer_1" xmlns="http://www.w3.org/2000/svg" xmlns:xlink="http://www.w3.org/1999/xlink" x="0px" y="0px"
	 viewBox="0 0 48 48" style="enable-background:new 0 0 48 48;" xml:space="preserve">
<style type="text/css">
	.st0{fill:#FFFFFF;}
	.st1{fill:#90A4AE;}
	.st2{fill:#4FC3F7;}
</style>
<g>
	<path class="st0" d="M39.2,32.6V9.5h-6c-1.2,0-2.1-0.9-2.1-2.1V1.5H16.3v3.7h-0.7v0.1l11.3,0c0.5,0,1,0.2,1.4,0.6l8.1,8
		c0.3,0.3,0.6,0.8,0.6,1.3l0,18.2h0.2v-0.7H39.2z"/>
	<path class="st0" d="M33,7.7C33,7.9,33.1,8,33.2,8L38,8l-5-4.9V7.7z"/>
	<polygon class="st0" points="28.9,13.6 30.4,13.6 28.9,12.1 	"/>
	<path class="st1" d="M40.8,8.2l-8.1-8C32.6,0.1,32.3,0,32.1,0L16.3,0c-1,0-1.8,0.8-1.8,1.8v3.5h1.9V1.8h14.8v5.9
		c0,1.1,0.9,2.1,2.1,2.1h6V33h-2.1v0.7v1.1h2.1c1,0,1.8-0.8,1.8-1.8v-2.9c0-0.3,0-0.7,0-1.1c0-0.3,0-0.6,0-0.8V8.9c0,0,0,0,0,0
		C41.1,8.6,41,8.4,40.8,8.2z M33.2,8C33.1,8,33,7.9,33,7.7V3.1L38,8L33.2,8z"/>
</g>
<g>
	<path class="st0" d="M18.2,34.8V23.6h9.7v11.2l5.7,0V16.9h-6c-1.2,0-2.1-0.9-2.1-2.1V8.9H10.7v31.1h4l-4.3-5.3H18.2z"/>
	<path class="st0" d="M33.6,40.1l1-4.2l-3.6,4.7l0,0c0.2-0.1,0.2-0.3,0.3-0.4H33.6z"/>
	<path class="st0" d="M27.4,14.8c0,0.1,0.1,0.2,0.2,0.2l4.7,0l-5-4.9V14.8z"/>
	<path class="st1" d="M35.3,15.3l-8.1-8c-0.2-0.2-0.4-0.3-0.6-0.3l-15.8,0c-1,0-1.8,0.8-1.8,1.8v31.2c0,1,0.8,1.8,1.8,1.8H16
		l-1.3-1.8h-4V8.9h14.8v5.9c0,1.1,0.9,2.1,2.1,2.1h6v18.8l0.1,0l-0.1,0.1v4.2h-2.3c-0.2,0.1-1.1,1.3-1.5,1.8h3.8
		c1,0,1.8-0.8,1.8-1.8v-2.9c0-0.3,0-0.7,0-1.1c0-0.3,0-0.6,0-0.8V16c0,0,0,0,0,0C35.5,15.7,35.4,15.5,35.3,15.3z M27.7,15.1
		c-0.1,0-0.2-0.1-0.2-0.2v-4.6l5,4.9L27.7,15.1z"/>
</g>
<path class="st2" d="M25.9,36.8V25.6h-5.7v11.2h-5.7l2,2.6c0.1,0.2,0.3,0.4,0.4,0.6l6.2,8.1l8.6-11.3L25.9,36.8L25.9,36.8L25.9,36.8
	z"/>
</svg>
