<?xml version="1.0" encoding="utf-8"?>
<!-- Generator: Adobe Illustrator 23.0.3, SVG Export Plug-In . SVG Version: 6.00 Build 0)  -->
<svg version="1.1" id="Layer_1" xmlns="http://www.w3.org/2000/svg" xmlns:xlink="http://www.w3.org/1999/xlink" x="0px" y="0px"
	 viewBox="0 0 48 48" style="enable-background:new 0 0 48 48;" xml:space="preserve">
<style type="text/css">
	.st0{fill:#81C784;}
	.st1{fill:#4FC3F7;}
	.st2{fill:#FFB74D;}
	.st3{fill:#E53935;}
	.st4{fill:#90A4AE;}
</style>
<g>
	<path class="st0" d="M12.6,16.7L12.6,16.7v-0.1v-0.2c0-0.3,0.1-0.3,0.2-0.6c0-0.1,0.5-1,0.5-1c0.3-0.4,0.5-0.9,1.5-1.2
		c-1.6-1.3-3.6-2.2-5.8-2.2c-5,0-9,4.1-9,9s4.1,9,9,9c1.3,0,2.5-0.3,3.6-0.8v-9.1l0,0L12.6,16.7L12.6,16.7z"/>
	<path class="st1" d="M24,0.3c-5,0-9,4.1-9,9c0,1.3,0.3,2.6,0.9,3.8c0.4-0.2,0.4-0.3,0.9-0.4c0.1-0.1,0.5-0.2,0.6-0.3
		c0.9-0.4,0,0,1.4-0.4c0.5-0.2,1.5-0.3,1.9-0.3c3.6-0.6,7.5-0.4,10.2,1c0,0,1.3,0.5,1.3,0.6c0,0-0.1-0.1,0,0
		c0.5-1.2,0.9-2.4,0.9-3.8C33,4.4,29,0.3,24,0.3z"/>
	<path class="st2" d="M35.4,16.8C35.4,16.8,35.5,16.8,35.4,16.8v12.1c1.1,0.4,2.3,0.8,3.6,0.8c5,0,9-4.1,9-9s-4.1-9-9-9
		c-2.2,0-4.2,0.8-5.7,2c0.1,0.1,0.3,0.1,0.4,0.2l0,0l0,0c0,0,0,0,0,0.1c0.3,0.2,1.1,0.6,1.3,1c0.1,0.1,0.2,0.4,0.2,0.4v0.1
		c0.1,0.8,0,0.6,0,0.6s0-0.1,0-0.2"/>
	<path class="st3" d="M35.1,29.7v2.8V33c0,0.4,0,0,0,0.4c0,0.3-0.2,0.5-0.6,1.2c-0.5,1.4-3.6,2.5-5.8,2.6c-1.1,0.2-2.4,0.4-3.6,0.4
		c-0.2,0-0.2-0.1-0.4,0c0,0.3,0,0.5,0,1c0,5,4.1,9,9,9s9-4.1,9-9C42.8,34.1,39.5,30.3,35.1,29.7z"/>
	<path class="st4" d="M13.2,34.3c-0.1,0-0.1-0.1-0.4-0.6v-0.1c-0.1-0.1-0.2-0.6-0.2-0.9V33v-3.7C8.8,30.5,6,33.9,6,38.1
		c0,5,4.1,9,9,9s9-4.1,9-9c0-0.2,0-0.3,0-0.5c-0.9,0-0.9,0-2.4-0.1c-1,0-1.8-0.2-2.7-0.4l0,0l0,0c-0.4-0.1-1.3-0.3-1.7-0.5
		c0,0,0,0.1,0,0c-0.3-0.1-0.8-0.3-1.1-0.3c-0.5-0.1,0,0-0.5-0.2c-0.8-0.2-1.8-1.1-2.3-1.6"/>
	<g>
		<path class="st4" d="M31.3,25.2c-1.6,0.5-3.7,0.9-6.2,0.9c-0.3,0-0.6,0-1.1,0c-0.3,0-0.6,0-1.1,0c-2.5-0.1-4.5-0.4-6.1-0.9
			c-0.2-0.1-0.5-0.1-0.8-0.2c-0.8-0.2-1.4-0.5-1.9-1v2.8V27v0.2v0.5c0.1,0,0.1,0.1,0.2,0.1c1.3,1.1,5,2,9.7,2c4.8,0,8.5-1.1,9.8-2.2
			c0,0,0.1,0,0.1-0.1v-0.5v-0.2v-0.2v-2.8c-0.5,0.3-1.2,0.6-1.9,1C31.6,25.1,31.5,25.1,31.3,25.2z"/>
		<path class="st4" d="M24,20.9c-2,0-4.1-0.2-5.9-0.5c-1.6-0.3-3-0.9-4-1.5v2.8v0.2v0.2v0.5c0.5,0.5,1.7,1.1,3.2,1.5
			s3.3,0.6,5.5,0.8h0.1c0.1,0,0.2,0,0.4,0s0.3,0,0.5,0c0.2,0,0.3,0,0.5,0c0.1,0,0.2,0,0.4,0H25c2.3-0.1,4.2-0.3,5.7-0.8
			c1.5-0.4,2.6-1,3.1-1.5v-0.5v-0.2v-0.2v-2.8c-0.9,0.6-2.3,1.1-3.8,1.4C28.2,20.8,26.2,20.9,24,20.9z"/>
		<path class="st4" d="M33.8,16.5c-0.2-0.6-0.6-1.2-1.6-1.7c-0.2-0.1-0.4-0.2-0.6-0.3c-1.6-0.8-4.2-1.3-7.5-1.3s-5.9,0.5-7.5,1.3
			c-0.2,0.1-0.4,0.2-0.5,0.3c-1,0.5-1.5,1.2-1.7,1.7c0,0-0.1,0.1-0.1,0.2v0.2v0.8c0.6,0.6,1.9,1.2,3.9,1.6c1.6,0.3,3.7,0.5,5.9,0.5
			c2.4,0,4.5-0.2,6.1-0.6c1.8-0.4,3.1-1,3.7-1.6v-0.8v-0.2C33.9,16.6,33.8,16.5,33.8,16.5z"/>
		<path class="st4" d="M29.4,30.8c-1.5,0.3-3.3,0.4-5.4,0.4c-1.2,0-2.4,0-3.3-0.1c-3-0.3-5.2-1-6.5-1.8h-0.1l0,0v3.2
			c0,0.1,0,0.1,0,0.2c0.4,1.9,4.5,3.3,9.7,3.3h0.1c0.4,0,0.9,0,1.2,0c4.6-0.2,8.2-1.6,8.6-3.3c0,0,0-0.1,0-0.2v-2.8v-0.4
			c-0.2,0.1-0.5,0.3-0.8,0.4C32.2,30.1,30.9,30.6,29.4,30.8z"/>
	</g>
</g>
</svg>
