<?xml version="1.0" encoding="utf-8"?>
<!-- Generator: Adobe Illustrator 23.0.1, SVG Export Plug-In . SVG Version: 6.00 Build 0)  -->
<svg version="1.1" id="Capa_1" xmlns="http://www.w3.org/2000/svg" xmlns:xlink="http://www.w3.org/1999/xlink" x="0px" y="0px"
	 viewBox="0 0 305 305" style="enable-background:new 0 0 305 305;" xml:space="preserve">
<style type="text/css">
	.st0{fill:#010002;}
</style>
<g>
	<g>
		<path d="M152.5,0C68.4,0,0,68.4,0,152.5S68.4,305,152.5,305c84.1,0,152.5-68.4,152.5-152.5S236.6,0,152.5,0z M152.5,280
			C82.2,280,25,222.8,25,152.5C25,82.2,82.2,25,152.5,25C222.8,25,280,82.2,280,152.5C280,222.8,222.8,280,152.5,280z"/>
	</g>
</g>
<g>
	<path class="st0" d="M178,152.5l38.2-38.2c5.6-5.6,5.6-14.8,0-20.4l-5.1-5.1c-5.6-5.6-14.8-5.6-20.4,0L152.5,127l-38.2-38.2
		c-5.6-5.6-14.8-5.6-20.4,0l-5.1,5.1c-5.6,5.6-5.6,14.8,0,20.4l38.2,38.2l-38.2,38.2c-5.6,5.6-5.6,14.8,0,20.4l5.1,5.1
		c5.6,5.6,14.8,5.6,20.4,0l38.2-38.2l38.2,38.2c5.6,5.6,14.8,5.6,20.4,0l5.1-5.1c5.6-5.6,5.6-14.8,0-20.4L178,152.5z"/>
</g>
</svg>
