<?xml version="1.0" encoding="utf-8"?>
<!-- Generator: Adobe Illustrator 23.0.3, SVG Export Plug-In . SVG Version: 6.00 Build 0)  -->
<svg version="1.1" id="Layer_1" xmlns="http://www.w3.org/2000/svg" xmlns:xlink="http://www.w3.org/1999/xlink" x="0px" y="0px"
	 viewBox="0 0 48 48" style="enable-background:new 0 0 48 48;" xml:space="preserve">
<style type="text/css">
	.st0{fill:#E0E0E0;stroke:#90A4AE;stroke-width:1.0586;stroke-miterlimit:10;}
	.st1{fill:#64B5F6;stroke:#FFFFFF;stroke-width:1.0586;stroke-miterlimit:10;}
	.st2{fill:#90A4AE;}
</style>
<rect x="12.6" y="0.5" class="st0" width="25.5" height="8.9"/>
<rect x="12.3" y="13.2" class="st0" width="25.5" height="8.9"/>
<rect x="21.8" y="25.9" class="st1" width="25.5" height="8.9"/>
<rect x="21.8" y="38.6" class="st1" width="25.5" height="8.9"/>
<g>
	<g>
		<polygon class="st2" points="4.6,7 5.6,7 5.6,5.5 7.1,5.5 7.1,4.4 5.6,4.4 5.6,2.9 4.6,2.9 4.6,4.4 3.1,4.4 3.1,5.5 4.6,5.5 		"/>
		<path class="st2" d="M0.7,0.5v8.9h8.9V0.5C9.6,0.5,0.7,0.5,0.7,0.5z M8.6,8.4h-7v-7h7V8.4z"/>
	</g>
</g>
<g>
	<g>
		<polygon class="st2" points="14.3,32.4 15.4,32.4 15.4,30.9 16.9,30.9 16.9,29.9 15.4,29.9 15.4,28.3 14.3,28.3 14.3,29.9 
			12.8,29.9 12.8,30.9 14.3,30.9 		"/>
		<path class="st2" d="M10.4,25.9v8.9h8.9v-8.9C19.3,25.9,10.4,25.9,10.4,25.9z M18.3,33.8h-7v-7h7V33.8z"/>
	</g>
</g>
<g>
	<g>
		<polygon class="st2" points="14.3,45.1 15.4,45.1 15.4,43.6 16.9,43.6 16.9,42.5 15.4,42.5 15.4,41 14.3,41 14.3,42.5 12.8,42.5 
			12.8,43.6 14.3,43.6 		"/>
		<path class="st2" d="M10.4,38.6v8.9h8.9v-8.9C19.3,38.6,10.4,38.6,10.4,38.6z M18.3,46.5h-7v-7h7V46.5z"/>
	</g>
</g>
<g>
	<g>
		<polyline class="st2" points="3.1,17.1 3.1,18.2 4.6,18.2 4.6,18.2 5.6,18.2 5.6,18.2 7.1,18.2 7.1,17.1 		"/>
		<path class="st2" d="M0.7,13.2v8.9h8.9v-8.9C9.6,13.2,0.7,13.2,0.7,13.2z M8.6,21.1h-7v-7h7V21.1z"/>
	</g>
</g>
</svg>
