<?xml version="1.0" encoding="utf-8"?>
<!-- Generator: Adobe Illustrator 23.0.3, SVG Export Plug-In . SVG Version: 6.00 Build 0)  -->
<svg version="1.1" id="Layer_1" xmlns="http://www.w3.org/2000/svg" xmlns:xlink="http://www.w3.org/1999/xlink" x="0px" y="0px"
	 viewBox="0 0 48 48" style="enable-background:new 0 0 48 48;" xml:space="preserve">
<style type="text/css">
	.st0{fill:#4FC3F7;}
</style>
<g>
	<path class="st0" d="M25,8l7-4l-6.7-3.8c-0.1,0-0.2,0-0.3,0l-7,4.3L25,8z"/>
	<path class="st0" d="M27.2,17"/>
	<path class="st0" d="M25.6,14.5"/>
	<path class="st0" d="M32.2,10V4.6l-7,4.2l0.1,5.7"/>
	<path class="st0" d="M24.5,20.7V8.8l-7.2-3.6v5.2l4.8,3.1v8.6"/>
	<path class="st0" d="M21.8,14.2"/>
	<path class="st0" d="M20.8,13.5L20.8,13.5"/>
</g>
<g>
	<path class="st0" d="M33.4,20.1l7.7-4.8l-7.6-4.5c-0.1-0.1-0.2-0.1-0.3,0l-7.2,4.7l0,0v0.3L33.4,20.1z"/>
	<path class="st0" d="M41,33c0.1-0.1,0-16.3,0-16.3l-7,4.1V38"/>
	<path class="st0" d="M32.7,24.3l0.1-3.3L26.1,17l0,3.3"/>
</g>
<g>
	<path class="st0" d="M13.3,19.3l7.6-4.9l-7.5-4.7c-0.1-0.1-0.2-0.1-0.3,0l-7.2,4.8l0,0l0,0L13.3,19.3z"/>
	<path class="st0" d="M15.8,26l5.5-3.7v-7l-7.1,5V38l0,0l1.6-2"/>
	<path class="st0" d="M13,20.7L5.8,16v10.6c0,0.1,0,7.4,0,7.4l7.2,3.9V20.7z"/>
</g>
<g>
	<path class="st0" d="M24.6,29.1l7.2-3.8L25,21.5c-0.1,0,0.1,0,0,0l-6.8,4.3L24.6,29.1z"/>
	<path class="st0" d="M32.2,38.9c0.1,0,0-13,0-13L25,30.1l0.2,14.6"/>
	<path class="st0" d="M24.3,30.3l-7.2-3.8l0.1,8.8c0,0.1,0,5.4,0.1,5.5l7,3.9C24.4,44.7,24.3,30.3,24.3,30.3z"/>
</g>
<path class="st0" d="M3.3,34c-0.2,0.5-0.1,1.1,0,1.1L25.1,48v-1.2"/>
<path class="st0" d="M44.5,32.4c0.7,0.7-0.2,1.2-0.6,1.6L25.1,48v-1.2"/>
<rect x="43.2" y="30.5" transform="matrix(0.5614 -0.8275 0.8275 0.5614 -7.2269 49.79)" class="st0" width="0.3" height="2.5"/>
<rect x="3.2" y="33.5" transform="matrix(0.8975 -0.441 0.441 0.8975 -14.4021 5.3354)" class="st0" width="2.1" height="0.3"/>
</svg>
