<?xml version="1.0" encoding="utf-8"?>
<!-- Generator: Adobe Illustrator 23.0.3, SVG Export Plug-In . SVG Version: 6.00 Build 0)  -->
<svg version="1.1" id="Layer_1" xmlns="http://www.w3.org/2000/svg" xmlns:xlink="http://www.w3.org/1999/xlink" x="0px" y="0px"
	 viewBox="0 0 48 48" style="enable-background:new 0 0 48 48;" xml:space="preserve">
<style type="text/css">
	.st0{fill:#64B5F6;}
	.st1{fill:#FFFFFF;}
	.st2{fill:#90A4AE;}
	.st3{fill:#B39DDB;}
</style>
<g>
	<path class="st0" d="M5.3,41.9c-0.1,1.8,1.2,2.5,1.8,2.5l29.7-0.2l0.1-6.9H5.2L5.3,41.9z"/>
	<path class="st1" d="M32.6,23L32.6,23l0.9-1.5l0.1-0.2c1.3-2.1,5.1-2.9,7.9-2.9c1.1,0,2.1,0.1,3,0.3v-5.4v-1.6V2.8
		c0-0.1-0.2-0.3-0.4-0.3H2.9C2.7,2.5,2.4,3,2.4,3.1v0.8l-0.1,31c0,0.2,0.2,0.3,0.4,0.4h34.7l-0.6-0.3v-4.2V30l-2.5-4.6l-0.7-1l0,0
		L32.6,23z"/>
	<path class="st2" d="M2.7,35.2c-0.2-0.1-0.4-0.2-0.4-0.4l0.1-31V3.1c0-0.1,0.3-0.5,0.5-0.5h41.2c0.2,0,0.4,0.2,0.4,0.3v8.9v1.6v5.4
		c0.8,0.2,1.5,0.4,2.2,0.6V2.2C46.7,1,45.5,0,44.1,0H2.9C1.5-0.1,0.3,1,0.3,2.2V35c0,1.2,1.3,2.3,2.7,2.3h1.6h0.5h31.7V36l-0.1-1.1
		L2.7,35.2z"/>
	<path class="st2" d="M45.8,32.7v4.2c0.5-0.3,0.9-1.1,0.9-1.8v-3.7c0,0.2-0.1,0.3-0.2,0.4C46.3,32.1,46.1,32.4,45.8,32.7z"/>
	<polygon class="st3" points="49,24.8 49.2,24.4 49.1,24.4 	"/>
	<polygon class="st3" points="50.4,22.5 50.3,22.5 50.3,22.6 	"/>
	<polygon class="st3" points="50.2,21.6 49.5,21.6 50,22.2 	"/>
</g>
<g>
	<polygon class="st3" points="41.2,48 38.9,45.3 38.9,44.8 42.5,46.6 	"/>
	<polygon class="st3" points="43.6,39.4 38.9,36.8 38.9,35.1 43.6,37.6 	"/>
	<polygon class="st3" points="38.9,41.6 43.6,44 43.6,45.3 43.3,45.6 38.9,43.4 	"/>
	<polygon class="st3" points="38.9,40 38.9,38.4 43.6,40.8 43.6,42.6 	"/>
	<path class="st3" d="M43.6,33l-2.1-1c-0.3-0.1-0.6,0-0.9,0.3c-0.1,0.3,0,0.6,0.3,0.9l2.6,1.4v1.7l-4.6-2.4v-2.8
		c0.8,0.3,1.8,0.3,2.3,0.3c0.5,0,1.5,0,2.3-0.3L43.6,33L43.6,33z"/>
	<path class="st3" d="M41.5,26.8c1.7,0,3.1-0.3,4.2-0.6l-1.9,3.1c0,0.1-0.1,0.1-0.1,0.3c-0.3,0.1-1,0.4-2.4,0.4
		c-1.4,0-2.2-0.3-2.4-0.4c0-0.1,0-0.1-0.1-0.3L37,26.1"/>
	<path class="st3" d="M35.5,23.6h11.8L47,24.2c-1.2,0.8-3.1,1.3-5.5,1.3c-2.6,0-4.6-0.6-5.7-1.4L35.5,23.6z"/>
	<path class="st3" d="M41.5,20.5c3.1,0,5.4,0.9,6.2,1.9H35.3C36,21.4,38.4,20.5,41.5,20.5z"/>
</g>
</svg>
