<?xml version="1.0" encoding="utf-8"?>
<!-- Generator: Adobe Illustrator 23.0.3, SVG Export Plug-In . SVG Version: 6.00 Build 0)  -->
<svg version="1.1" id="Layer_1" xmlns="http://www.w3.org/2000/svg" xmlns:xlink="http://www.w3.org/1999/xlink" x="0px" y="0px"
	 viewBox="0 0 512 512" style="enable-background:new 0 0 512 512;" xml:space="preserve">
<style type="text/css">
	.st0{fill:#81C784;}
	.st1{fill:#E53935;}
	.st2{display:none;}
	.st3{fill:#64B5F6;}
</style>
<path class="st0" d="M453,295.2l-119.7-69.1l-119.7,69.1l119.7,69.1L453,295.2z"/>
<path class="st0" d="M338.3,512L458,442.9V304.6l-119.7,69.1V512z"/>
<path class="st0" d="M206.8,304.6v138.3L326.5,512V373.7L206.8,304.6z"/>
<path class="st1" d="M317.8,69.1L198.1,0L78.5,69.1l119.7,69.1L317.8,69.1z"/>
<path class="st1" d="M206.8,284.1L326.5,215V76.7l-119.7,69.1V284.1L206.8,284.1z"/>
<path class="st1" d="M73.4,78.6v138.3L193.1,286V147.7L73.4,78.6z"/>
<path class="st2" d="M158.3,308.5L93.4,271l-64.9,37.5L93.4,346L158.3,308.5z"/>
<path class="st2" d="M98.2,429l64.9-37.5v-74.9l-64.9,37.5C98.2,354.1,98.2,429,98.2,429z"/>
<path class="st3" d="M73.4,229.2v138.3l119.7,69.1V298.3L73.4,229.2z"/>
</svg>
