<?xml version="1.0" encoding="utf-8"?>
<!-- Generator: Adobe Illustrator 23.0.6, SVG Export Plug-In . SVG Version: 6.00 Build 0)  -->
<svg version="1.1" id="Capa_1" xmlns="http://www.w3.org/2000/svg" xmlns:xlink="http://www.w3.org/1999/xlink" x="0px" y="0px"
	 viewBox="0 0 48 48" style="enable-background:new 0 0 48 48;" xml:space="preserve">
<style type="text/css">
	.st0{fill:none;}
</style>
<g>
	<path class="st0" d="M38.1,9.9C34.5,6.3,29.5,4,24,4C18.5,4,13.5,6.3,9.9,9.9C6.3,13.5,4,18.5,4,24c0,5.5,2.2,10.5,5.8,14.1
		C13.5,41.7,18.5,44,24,44c2.6,0,5.1-0.5,7.4-1.4v-0.7h-8.2v-3c-8.1-0.4-14.5-7.1-14.5-15.2c0-8.4,6.8-15.3,15.3-15.3
		c8.3,0,15.1,6.7,15.3,14.9h2.6v8.1h0.6c0.9-2.3,1.4-4.7,1.4-7.3C44,18.5,41.7,13.5,38.1,9.9z"/>
	<path class="st0" d="M24,12.2c-3.1,0-6,1.3-8,3.3c-2.1,2.1-3.3,4.9-3.3,8c0,3.1,1.3,6,3.3,8c1.9,1.9,4.4,3.1,7.3,3.3v-3.5h8.2v-8.1
		h3.9c-0.1-3-1.3-5.7-3.3-7.7C30,13.5,27.1,12.2,24,12.2z M24,29c-2.7,0-5-2.2-5-5s2.2-5,5-5s5,2.2,5,5S26.7,29,24,29z"/>
	<circle cx="24" cy="24" r="5"/>
	<path d="M24,44c-5.5,0-10.5-2.2-14.1-5.9C6.3,34.5,4,29.5,4,24c0-5.5,2.2-10.5,5.8-14.1C13.5,6.3,18.5,4,24,4
		c5.5,0,10.5,2.2,14.1,5.8C41.7,13.5,44,18.5,44,24c0,2.6-0.5,5.1-1.4,7.3h4.3C47.6,29,48,26.6,48,24C48,10.7,37.3,0,24,0
		C10.7,0,0,10.7,0,24c0,13.3,10.7,24,24,24c2.6,0,5.1-0.4,7.4-1.2v-4.3C29.1,43.4,26.6,44,24,44z"/>
	<path d="M24,8.3c-8.4,0-15.3,6.8-15.3,15.3c0,8.2,6.4,14.8,14.5,15.2v-3.9c-2.8-0.2-5.4-1.4-7.3-3.3c-2.1-2.1-3.3-4.9-3.3-8
		c0-3.1,1.3-6,3.3-8c2.1-2.1,4.9-3.3,8-3.3c3.1,0,6,1.3,8,3.3c2,2,3.2,4.7,3.3,7.7h3.9C39.1,14.9,32.3,8.3,24,8.3z"/>
</g>
<polygon points="48,33.3 39.9,33.3 39.9,25.2 33.4,25.2 33.4,33.3 25.2,33.3 25.2,39.8 33.4,39.8 33.4,48 39.9,48 39.9,39.8 
	48,39.8 "/>
</svg>
