<?xml version="1.0" encoding="utf-8"?>
<!-- Generator: Adobe Illustrator 23.0.1, SVG Export Plug-In . SVG Version: 6.00 Build 0)  -->
<svg version="1.1" id="Layer_1" xmlns="http://www.w3.org/2000/svg" xmlns:xlink="http://www.w3.org/1999/xlink" x="0px" y="0px"
	 viewBox="0 0 48 48" style="enable-background:new 0 0 48 48;" xml:space="preserve">
<style type="text/css">
	.st0{fill:#FFFFFF;}
	.st1{fill:#4CB5E9;}
	.st2{fill:#FCB64D;}
	.st3{fill:none;}
	.st4{fill:#C7C7C7;}
	.st5{fill:#0083C2;}
</style>
<g>
	<rect x="3.2" y="6.8" class="st0" width="41.6" height="38"/>
	<path class="st1" d="M45,6.8h-0.2v38H3.2v-38H2H0v38C0,46.6,1.4,48,3.2,48h41.6c1.8,0,3.2-1.4,3.2-3.2v-38H45z"/>
	<path class="st2" d="M44.8,0H3.2C1.4,0,0,1.6,0,3.6V6v0.8h2h1.2h41.6H45h3V6V3.6C48,1.6,46.6,0,44.8,0z"/>
</g>
<g>
	<path class="st3" d="M28.2,22.5c0,0,1.6-0.1,3.8-0.1v-1.7h-3.8v4l0,0V22.5z"/>
	<rect x="15.7" y="27.1" class="st3" width="3.8" height="4"/>
	<rect x="28.2" y="27.1" class="st3" width="0" height="4"/>
	<rect x="21.9" y="27.1" class="st3" width="3.8" height="4"/>
	<rect x="9.4" y="20.7" class="st3" width="3.8" height="4"/>
	<rect x="9.4" y="27.1" class="st3" width="3.8" height="4"/>
	<rect x="34.4" y="14.4" class="st3" width="3.8" height="4"/>
	<rect x="21.9" y="20.7" class="st3" width="3.8" height="4"/>
	<rect x="15.7" y="20.7" class="st3" width="3.8" height="4"/>
	<rect x="28.2" y="14.4" class="st3" width="3.8" height="4"/>
	<rect x="15.7" y="14.4" class="st3" width="3.8" height="4"/>
	<rect x="28.2" y="33.5" class="st3" width="0" height="4"/>
	<path class="st3" d="M38.3,22.4v-1.7h-3.8v1.7C35.7,22.4,37,22.4,38.3,22.4z"/>
	<rect x="15.7" y="33.5" class="st3" width="3.8" height="4"/>
	<rect x="21.9" y="33.5" class="st3" width="3.8" height="4"/>
	<rect x="9.4" y="14.4" class="st3" width="3.8" height="4"/>
	<rect x="9.4" y="33.5" class="st3" width="3.8" height="4"/>
	<rect x="21.9" y="14.4" class="st3" width="3.8" height="4"/>
	<path class="st4" d="M28.2,37.5L28.2,37.5v-4l0,0v-2.4l0,0v-4l0,0v-2.4l0,0v-4H32v1.7c0.7,0,1.6,0,2.4,0v-1.7h3.8v1.7
		c0.9,0,1.7,0,2.4,0V10.3h-2.4v1.6h-3.8v-1.6H32v1.6h-3.8v-1.6h-2.4v1.6H22v-1.7h-2.4v1.7h-3.8v-1.6h-2.4v1.6h-4v-1.6H7v30.8h2.4
		v-1.2h3.8v1.2h2.4v-1.2h3.8v1.2h2.4v-1.2h3.8v1.3H28v-1.3l0,0v-2.4H28.2z M34.4,14.4h3.8v4h-3.8V14.4z M28.2,14.4H32v4h-3.8V14.4z
		 M13.2,37.5H9.4v-4h3.8V37.5z M13.2,31.1H9.4v-4h3.8V31.1z M13.2,24.7H9.4v-4h3.8V24.7z M13.2,18.3H9.4v-4h3.8V18.3z M19.5,37.5
		h-3.8v-4h3.8V37.5z M19.5,31.1h-3.8v-4h3.8V31.1z M19.5,24.7h-3.8v-4h3.8V24.7z M19.5,18.3h-3.8v-4h3.8V18.3z M25.8,37.5H22v-4h3.8
		V37.5z M25.8,31.1H22v-4h3.8V31.1z M25.8,24.7H22v-4h3.8V24.7z M25.8,18.3H22v-4h3.8V18.3z"/>
</g>
<g>
	<g>
		<path class="st5" d="M40.4,25.7c-1.2-0.9-2.7-1.3-4.5-1.3c-1.4,0-2.6,0.3-3.5,0.9c-1.5,1-2.3,2.6-2.4,4.9h3.5
			c0-0.7,0.2-1.3,0.6-1.9c0.4-0.6,1.1-0.9,2-0.9s1.6,0.3,2,0.8s0.5,1.1,0.5,1.7c0,0.5-0.3,1-0.6,1.5c-0.2,0.3-0.4,0.5-0.7,0.7
			c0,0-1.9,1.2-2.7,2.2c-0.5,0.6-0.5,1.4-0.6,2.6c0,0.1,0,0.3,0.3,0.3s2.5,0,2.7,0s0.3-0.2,0.3-0.3c0-0.4,0.1-0.7,0.1-0.9
			c0.2-0.5,0.6-0.9,1-1.3l1-0.7c0.9-0.7,1.6-1.2,1.9-1.7c0.5-0.7,0.9-1.6,0.9-2.6C42.2,27.8,41.6,26.5,40.4,25.7z M35.8,39.1
			c-1.2,0-2.2,0.8-2.2,2.1s0.9,2.2,2.1,2.2c1.3,0,2.2-0.8,2.3-2.1C37.9,40,37,39.1,35.8,39.1z"/>
	</g>
</g>
</svg>
