<?xml version="1.0" encoding="utf-8"?>
<!-- Generator: Adobe Illustrator 23.0.3, SVG Export Plug-In . SVG Version: 6.00 Build 0)  -->
<svg version="1.1" id="Layer_1" xmlns="http://www.w3.org/2000/svg" xmlns:xlink="http://www.w3.org/1999/xlink" x="0px" y="0px"
	 viewBox="0 0 48 48" style="enable-background:new 0 0 48 48;" xml:space="preserve">
<style type="text/css">
	.st0{display:none;fill:#0082C7;}
	.st1{fill:#FFFFFF;}
	.st2{fill:#4FC3F7;}
	.st3{fill:#90A4AE;}
</style>
<polygon class="st0" points="6.3,31.9 0.5,39.5 4.4,39.5 4.4,41.6 4.4,41.6 4.4,42.9 4.4,42.9 4.4,47 8.3,47 8.3,39.5 12.1,39.5 "/>
<g>
	<path class="st1" d="M41.6,43.6h-0.7v-4.9c0-0.1-0.1-0.2-0.2-0.2h-2h-0.7c-0.1,0-0.2,0.1-0.2,0.2v0.4c0,0.1,0.1,0.2,0.2,0.2h0.7
		v4.2h-0.7c-0.1,0-0.2,0.1-0.2,0.2v0.4c0,0.1,0.1,0.2,0.2,0.2h0.7H41h0.7c0.1,0,0.2-0.1,0.2-0.2l-0.1-0.3
		C41.8,43.7,41.7,43.6,41.6,43.6z"/>
	<path class="st1" d="M38.6,36.2c0,0.7,0.5,1.2,1.2,1.2c0.7,0,1.2-0.5,1.2-1.2c0-0.7-0.5-1.2-1.2-1.2C39.2,35,38.6,35.5,38.6,36.2z"
		/>
	<path class="st2" d="M39.9,31.7c-4.4,0-8,3.6-8,7.9s3.6,8,8,8s8-3.6,8-8S44.3,31.7,39.9,31.7z M41.7,44.3H41h-2.4h-0.7
		c-0.1,0-0.2-0.1-0.2-0.2v-0.4c0-0.1,0.1-0.2,0.2-0.2h0.7v-4.2h-0.7c-0.1,0-0.2-0.1-0.2-0.2v-0.4c0-0.1,0.1-0.2,0.2-0.2h0.7h2
		c0.1,0,0.2,0.1,0.2,0.2v4.9h0.7c0.1,0,0.2,0.1,0.2,0.2l0.1,0.3C41.9,44.2,41.8,44.3,41.7,44.3z M41.1,36.2c0,0.7-0.5,1.2-1.2,1.2
		c-0.7,0-1.2-0.5-1.2-1.2c0-0.7,0.5-1.2,1.2-1.2C40.6,35,41.1,35.5,41.1,36.2z"/>
</g>
<g>
	<path class="st3" d="M24.2,29.8c0.4,0,0.8,0,1.3,0c7.2,0,12.6-1.5,14.1-3.3v-3.7c-0.3,0.4-1.9,0.9-1.9,0.9
		c-2.9,0.6-3.1-0.4-3.8-0.5h-0.1c-1.9,0.4-4.2,0.6-6.9,0.7c-0.5,0-1,0-1.4,0c-0.5,0-1,0-1.5,0c-0.2,0-0.4,0-0.5,0
		c-0.5,0-1.4-0.2-1.3,0l2,1.7V29.8z"/>
	<path class="st3" d="M24,22.3c0.1,0,0.1,0,0.2,0c0.2,0,0.4,0,0.5,0c0.3,0,0.5,0,0.8,0s0.5,0,0.8,0c0.2,0,0.4,0,0.5,0s0.1,0,0.2,0
		c1.7,0,3.4-0.2,4.8-0.4c0-0.4-0.1-0.8-0.1-1.1v0.1c-1.2,0.8-1.9,0.8-2.9,0.3c0,0-0.9-0.5-0.9-0.6c-0.7-0.6-0.5-0.4-0.8-0.7
		c-0.8-0.8-1.2-1.4-1.8-2.4C25,16.9,25.1,17,25,16.7c-5.3-0.1-11-1-13.6-2.9v5.3c0.1,0.1,0.1,0.1,0.2,0.2h5.9l0,0l0,0l1,1
		c-0.3-0.3-0.5-0.5-0.7-0.8l2,2.1l0.2,0.2l0,0l0,0l0.1,0.1C21.5,22.1,22.7,22.2,24,22.3z"/>
	<path class="st3" d="M24,14.4c-0.8-1-0.6-1.9-0.7-3.8c0,0,0-0.6,0.1-1.4l0,0l0,0c0-0.1,0-0.1,0-0.2V8.9c0,0,0,0,0,0.1
		c0-0.1,0-0.2,0-0.2c0-0.2,0.2-0.5,0.2-0.6C23.5,8.4,23.7,8,23.7,8c0-0.1,0.1-0.1,0.2-0.3c0.3-0.3,0.2-0.2,0.5-0.4
		c0.1-0.1,0.1-0.1,0.5-0.2c0.4-0.2,0.4-0.2,0.5-0.2c-0.3-0.5-0.5-1-0.4-1.6C16.7,5.3,11.9,7.7,11.3,10c-0.1,0.1-0.1,0.2-0.1,0.3v1.3
		c1.5,1.6,6.6,3.1,13.4,3.2C24.4,14.8,24.4,14.8,24,14.4z"/>
	<path class="st3" d="M39.6,30.3C39.6,30.3,39.6,30.2,39.6,30.3l0.1-1.7c-2.4,1.6-7.2,3-14.1,3c-0.4,0-0.9,0-1.3,0v6.8
		c0.4,0,0.8,0,1.3,0c2,0,3.6-0.1,5.4-0.4C30.9,32.9,34.8,30.5,39.6,30.3z"/>
</g>
<g>
	<path class="st1" d="M44.3,8.5C44,8.4,44.1,8.7,44,8.4c-0.3-0.8,0.1-0.3-0.2-1C43.6,7,43.9,7.3,44.1,7l0.8-1.7
		c-0.3-0.3-0.9-0.9-1.3-1.2c-0.4-0.4-1-0.7-1.3-0.9l-1.7,1.2c-0.3,0.2,0,0-0.3-0.2c-0.7-0.3,0,0-0.7-0.3c-0.3-0.1-0.7-0.2-0.8-0.5
		l-0.3-2.3c-0.3-0.1-1.8,0-2.4,0c-0.6,0-1,0-1.4,0.1l-0.2,2.1l0.5,0.2c0,0.3-0.3-0.3-0.5-0.2c-0.7,0.3-0.5,0.2-1.1,0.5
		C33.2,4,32.9,4,32.7,3.8L31.6,3c0.3-1-1.3,0.8-1.7,1.1c-0.4,0.4-0.9,0.9-1.1,1.2l1,1.5c0.2,0.3,0.2-0.3,0,0C29.7,7.1,29.5,8,29.5,8
		c0,0.1,0.2-0.3,0,0c-0.1,0.3,0.1,0.5-0.1,0.5l-1.7,0.3c-0.5,0.2-0.5,1.6-0.5,2.2c0,0.6-0.1,0.9,0,1.3l2.2,0.3
		c0.3,0,0.6,0.3,0.7,0.5c0.3,0.7,0.1,0.5,0.4,1.1c0.1,0.3-0.8,0.7-0.9,0.9l-1,1.4c0.3,0.3,1.1,0.9,1.5,1.4c0.4,0.4,0.9,0.8,1.2,1
		l1.8-1c0.3-0.2-0.2-0.2,0.2,0c0.7,0.3,0.3-0.2,1,0c0.3,0.1,0.3,1,0.3,1.3l0.8,1.9c0.3,0,0.8,0.1,1.4,0.1c0.6,0,1.9-0.9,2.2-0.9
		l0.3-0.9c0-0.3-0.2-1,0.2-1.1c0.8-0.3,0,0,0.7-0.3c0.3-0.1,0.5-0.2,0.7,0l1.6,1c0.3-0.3,1-0.6,1.5-1c0.4-0.4,0.9-1.4,1.2-1.6
		l-0.8-1.5c-0.2-0.3-0.3-0.2-0.1-0.4c0.3-0.7,0,0,0.2-0.7c0.1-0.3-0.2-0.4,0.1-0.4l0.5-0.1l1.9-0.5c0-0.3,0-1.1,0-1.7
		c0-0.6,0.1-1.8,0-2.1L44.3,8.5z M36.8,16.2c-2.9,0-5.2-2.3-5.2-5.2s2.3-5.2,5.2-5.2c2.9,0,5.2,2.3,5.2,5.2S39.6,16.2,36.8,16.2z"/>
	<path class="st2" d="M47.5,8.7c-0.1-0.3-0.3-0.5-0.7-0.6L45,7.8c-0.1-0.3,0-0.1-0.2-0.3L45.9,6c0.3-0.3,0.3-0.7,0-0.9
		c0-0.1-0.4-0.8-1.5-1.8s-1.7-1.5-1.8-1.5c-0.3-0.2-0.7-0.2-0.9,0.1l-1.5,1.1c-0.3-0.2-0.2-0.1-0.4-0.2l-0.3-1.8
		c0-0.3-0.3-0.6-0.6-0.7c0,0-0.9-0.3-2.3-0.3c-1.5,0-2.3,0.3-2.3,0.3c-0.3,0.1-0.5,0.3-0.6,0.7l-0.3,1.6v0.1
		c-0.3,0.1-0.1,0.1-0.4,0.2l-1.5-1.1c-0.3-0.3-0.7-0.3-0.9-0.1c0,0-0.8,0.5-1.8,1.5c-1,1-1.5,1.7-1.5,1.8c-0.2,0.3-0.2,0.7,0,0.9
		l1.1,1.5c-0.1,0.3-0.1,0.2-0.2,0.4L26.5,8c-0.3,0.1-0.6,0.3-0.7,0.6c0,0.1-0.3,0.9-0.3,2.3s0.3,2.3,0.3,2.3
		c0.1,0.3,0.3,0.5,0.7,0.6l1.8,0.3c0.1,0.3,0,0.1,0.2,0.4L27.4,16c-0.3,0.3-0.3,0.7,0,0.9c0,0,0.4,0.8,1.5,1.8c1,1,1.7,1.5,1.8,1.5
		c0.3,0.2,0.7,0.2,0.9,0l1.5-1.1c0.3,0.1,0.2,0.1,0.4,0.2l0.3,1.8c0,0.1,0,0.2,0.1,0.2c0.1,0.3,0.3,0.4,0.5,0.4c0,0,0.9,0.3,2.3,0.3
		s2.3-0.3,2.3-0.3c0.3-0.1,0.6-0.3,0.6-0.7l0.2-1l0.1-0.8c0.3-0.1,0.2,0,0.4-0.2l0.7,0.5l0.8,0.6c0.3,0.3,0.7,0.3,0.9,0
		c0,0,0.8-0.4,1.8-1.5c1-1,1.5-1.7,1.5-1.8c0.2-0.3,0.2-0.7,0-0.9l-1.1-1.5c0.2-0.3,0.1-0.1,0.2-0.4l1.8-0.3c0.3,0,0.6-0.3,0.7-0.6
		c0,0,0.3-0.9,0.3-2.3S47.5,8.7,47.5,8.7z M46,12.4l-1.5,0.2h-0.3c-0.3,0-0.6,0.3-0.7,0.5c-0.3,0.7-0.2,0.5-0.4,1.1
		c-0.2,0.3-0.1,0.7,0.1,0.9l1,1.3c-0.3,0.3-0.5,0.7-0.9,1c-0.4,0.4-0.8,0.7-1,0.9l-1.4-1c-0.3-0.2-0.6-0.3-0.9-0.1
		c-0.7,0.3-0.4,0.3-1.1,0.4c-0.3,0.1-0.5,0.4-0.6,0.7L38.1,20c-0.3,0-0.8,0.1-1.4,0.1c-0.6,0-1,0-1.4-0.1l-0.3-1.7
		c0-0.3-0.3-0.6-0.5-0.7c-0.7-0.3-0.5-0.2-1.1-0.4c-0.3-0.1-0.6-0.1-0.9,0.1l-1.4,1c-0.3-0.3-0.7-0.5-1-0.9c-0.4-0.4-0.7-0.8-0.9-1
		l1-1.4c0.2-0.3,0.3-0.6,0.1-0.9c-0.3-0.7-0.3-0.4-0.4-1.1c-0.1-0.3-0.4-0.5-0.7-0.5l-1.7-0.3c0-0.3-0.1-0.8-0.1-1.4
		c0-0.6,0-1,0.1-1.4l1.7-0.3c0.3-0.1,0.6-0.3,0.7-0.5c0.1-0.3,0.3-0.5,0.3-0.6c0,0,0.1-0.3,0.3-0.5c0.1-0.3,0.1-0.6-0.1-0.9l-1-1.4
		c0.3-0.3,0.4-0.7,0.9-1c0.4-0.4,0.8-0.7,1-0.9l1.4,1c0.3,0.2,0.5,0.3,0.9,0.1C34.2,4.2,34,4.3,34.7,4C35,4,35.2,3.7,35.2,3.4V3.3
		l0.2-1.6c0.3,0.1,0.8,0.1,1.4,0.1c0.6,0,1,0.1,1.4,0.1l0.3,1.7c0,0.3,0.3,0.6,0.6,0.7c0.7,0.3,0.5,0.2,1.1,0.5
		c0.3,0.2,0.7,0.1,0.9-0.1l1.4-1c0.3,0.3,0.6,0.5,1,0.9c0.4,0.4,0.7,0.8,0.9,1l-1,1.4c-0.2,0.3-0.3,0.5-0.1,0.9
		c0.3,0.7,0.3,0.3,0.5,1.1c0.1,0.3,0.3,0.5,0.7,0.5l1.7,0.3c0,0.3,0.1,0.8,0.1,1.4C46.2,11.6,46,12,46,12.4z"/>
	<path class="st2" d="M36.8,5.8c-2.9,0-5.2,2.3-5.2,5.2s2.3,5.2,5.2,5.2c2.9,0,5.2-2.3,5.2-5.2S39.6,5.8,36.8,5.8z M36.8,14.5
		c-2,0-3.6-1.5-3.6-3.6s1.5-3.6,3.6-3.6s3.6,1.5,3.6,3.6C40.3,13,38.8,14.5,36.8,14.5z"/>
</g>
<g>
	<path class="st1" d="M21.4,43V27.4h-4.1c-0.8,0-1.4-0.6-1.4-1.4v-4H6v21h2.7H21.4z"/>
	<path class="st1" d="M17.2,26c0,0.1,0.1,0.2,0.2,0.2l3.2,0l-3.3-3.3V26z"/>
	<path class="st3" d="M22.5,26.4L17,21c-0.1-0.1-0.3-0.2-0.4-0.2L6,20.8c-0.7,0-1.2,0.5-1.2,1.2v21c0,0.7,0.6,1.2,1.2,1.2h9.6
		L14.7,43H6v-21h10v4c0,0.8,0.6,1.4,1.4,1.4h4.1v12.7l0,0l0,0.1V43h-8.5c-0.1,0.1-1.7,0.9-2,1.2h10.5c0.7,0,1.2-0.5,1.2-1.2v-1.9
		c0-0.2,0-0.5,0-0.7c0-0.2,0-0.4,0-0.6v-13c0,0,0,0,0,0C22.7,26.6,22.6,26.5,22.5,26.4z M17.4,26.2c-0.1,0-0.2-0.1-0.2-0.2v-3.1
		l3.3,3.3L17.4,26.2z"/>
</g>
<g>
	<path class="st1" d="M17.3,46.8V31h-4.2c-0.8,0-1.4-0.6-1.4-1.4v-4H1.4v21.3h2.8H17.3z"/>
	<path class="st1" d="M13,29.5c0,0.1,0.1,0.2,0.2,0.2l3.3,0L13,26.4V29.5z"/>
	<path class="st3" d="M18.4,29.9l-5.6-5.4c-0.1-0.1-0.3-0.2-0.4-0.2l-10.9,0c-0.7,0-1.3,0.6-1.3,1.2v21.3c0,0.7,0.6,1.2,1.3,1.2h9.8
		l-0.9-1.2H1.4V25.5h10.2v4c0,0.8,0.7,1.4,1.4,1.4h4.2v12.9l0,0l0,0.1v2.9H8.5c-0.1,0.1-1.8,0.9-2.1,1.2h10.8c0.7,0,1.3-0.6,1.3-1.2
		v-2c0-0.2,0-0.5,0-0.7c0-0.2,0-0.4,0-0.6V30.3c0,0,0,0,0,0C18.6,30.1,18.5,30,18.4,29.9z M13.1,29.7c-0.1,0-0.2-0.1-0.2-0.2v-3.2
		l3.4,3.3L13.1,29.7z"/>
</g>
</svg>
