<?xml version="1.0" encoding="utf-8"?>
<!-- Generator: Adobe Illustrator 23.0.3, SVG Export Plug-In . SVG Version: 6.00 Build 0)  -->
<svg version="1.1" id="Layer_1" xmlns="http://www.w3.org/2000/svg" xmlns:xlink="http://www.w3.org/1999/xlink" x="0px" y="0px"
	 viewBox="0 0 48 48" style="enable-background:new 0 0 48 48;" xml:space="preserve">
<style type="text/css">
	.st0{fill:#90A4AE;}
	.st1{fill:#FFFFFF;}
</style>
<g>
	<g>
		<path class="st0" d="M22.4,0.8L11.6,13.9c-0.5,0.6-0.6,1.5-0.3,2.3c0.3,0.7,1.1,1.2,2,1.2h6.5v17.3c0,1.2,0.9,2.2,2.2,2.2h4.3
			c1.2,0,2.2-0.9,2.2-2.2V17.4h6.5c0.8,0,1.6-0.5,2-1.2c0.1-0.3,0.2-0.6,0.2-0.9c0-0.5-0.2-1-0.5-1.4l-10.8-13C25.2,0.3,24.6,0,24,0
			S22.8,0.4,22.4,0.8z"/>
	</g>
</g>
<path class="st0" d="M46,48H2.3c-1.1,0-2-0.9-2-2v-4.1c0-1.1,0.9-2,2-2H46c1.1,0,2,0.9,2,2V46C48,47.1,47.1,48,46,48z"/>
<path class="st1" d="M44.9,46h-3c-0.8,0-1.5-0.7-1.5-1.5v-1c0-0.8,0.7-1.5,1.5-1.5h3c0.8,0,1.5,0.7,1.5,1.5v1
	C46.4,45.3,45.7,46,44.9,46z"/>
</svg>
