<?xml version="1.0" encoding="utf-8"?>
<!-- Generator: Adobe Illustrator 23.0.2, SVG Export Plug-In . SVG Version: 6.00 Build 0)  -->
<svg version="1.1" id="Layer_1" xmlns="http://www.w3.org/2000/svg" xmlns:xlink="http://www.w3.org/1999/xlink" x="0px" y="0px"
	 viewBox="0 0 48 48" style="enable-background:new 0 0 48 48;" xml:space="preserve">
<style type="text/css">
	.st0{fill:#1D2C32;}
</style>
<g>
	<path class="st0" d="M4.3,7.4l13.2,13.2v25.3c0,1,0.4,1.6,1.3,2c0.3,0.1,0.6,0.2,0.9,0.2c0.6,0,1.1-0.2,1.5-0.6l8.7-8.7
		c0.4-0.4,0.6-0.9,0.6-1.5V20.5L43.7,7.4H4.3z"/>
	<path class="st0" d="M47.8,1.4c-0.4-0.9-1.1-1.3-2-1.3H2.2c-1,0-1.6,0.4-2,1.3C-0.2,2.3,0,3.1,0.7,3.7l1.6,1.6h43.4l1.6-1.6
		C48,3.1,48.2,2.3,47.8,1.4z"/>
</g>
<image style="display:none;overflow:visible;" width="21" height="25" xlink:href="26FA6456.jpg"  transform="matrix(1.92 0 0 1.92 3.3387 -0.5016)">
</image>
<path class="st0" d="M47.5,44.5l-0.8-0.8L42.9,40l4.4-4.4l0.1-0.1c0.7-0.7,0.7-1.7,0-2.4l-0.6-0.6c-0.7-0.7-1.7-0.7-2.4,0l-2,2
	L39.9,37l-2.5-2.5l-1.9-2c-0.7-0.7-1.7-0.7-2.4,0l-0.6,0.6C32.1,33.5,32,34,32,34.5c0,0.4,0.2,0.7,0.5,1L37,40l-3.7,3.7l-0.8,0.8
	c-0.7,0.7-0.7,1.7,0,2.4l0.6,0.6c0.7,0.7,1.7,0.7,2.4,0l3.8-3.8L40,43l0.7,0.7l3.8,3.8c0.7,0.7,1.7,0.7,2.4,0l0.6-0.6
	C48.2,46.2,48.2,45.2,47.5,44.5z"/>
</svg>
