<?xml version="1.0" encoding="utf-8"?>
<!-- Generator: Adobe Illustrator 23.0.2, SVG Export Plug-In . SVG Version: 6.00 Build 0)  -->
<svg version="1.1" id="Layer_1" xmlns="http://www.w3.org/2000/svg" xmlns:xlink="http://www.w3.org/1999/xlink" x="0px" y="0px"
	 viewBox="0 0 48 48" style="enable-background:new 0 0 48 48;" xml:space="preserve">
<style type="text/css">
	.st0{fill:#5E747E;}
</style>
<g>
	<path class="st0" d="M4.3,7.4l13.2,13.2v25.3c0,1,0.4,1.6,1.3,2c0.3,0.1,0.6,0.2,0.9,0.2c0.6,0,1.1-0.2,1.5-0.6l8.7-8.7
		c0.4-0.4,0.6-0.9,0.6-1.5V20.5L43.7,7.4H4.3z"/>
	<path class="st0" d="M47.8,1.4c-0.4-0.9-1.1-1.3-2-1.3H2.2c-1,0-1.6,0.4-2,1.3C-0.2,2.3,0,3.1,0.7,3.7l1.6,1.6h43.4l1.6-1.6
		C48,3.1,48.2,2.3,47.8,1.4z"/>
</g>
<image style="display:none;overflow:visible;" width="21" height="25" xlink:href="39C5281B.jpg"  transform="matrix(1.92 0 0 1.92 3.3387 -0.5016)">
</image>
<g>
	<g id="share">
		<path class="st0" d="M48,40l-7-7v4c-7,1-10,6-11,11c2.5-3.5,6-5.1,11-5.1V47L48,40z"/>
	</g>
</g>
</svg>
