<?xml version="1.0" encoding="utf-8"?>
<!-- Generator: Adobe Illustrator 23.0.6, SVG Export Plug-In . SVG Version: 6.00 Build 0)  -->
<svg version="1.1" id="Layer_1" xmlns="http://www.w3.org/2000/svg" xmlns:xlink="http://www.w3.org/1999/xlink" x="0px" y="0px"
	 viewBox="0 0 48 48" style="enable-background:new 0 0 48 48;" xml:space="preserve">
<style type="text/css">
	.st0{fill:#1D2C32;}
</style>
<g>
	<path class="st0" d="M3.8,6.5l11.8,11.8V41c0,0.9,0.4,1.4,1.2,1.8c0.3,0.1,0.5,0.2,0.8,0.2c0.5,0,1-0.2,1.3-0.5l7.8-7.8
		c0.4-0.4,0.5-0.8,0.5-1.3v-15L39.1,6.5H3.8z"/>
	<path class="st0" d="M42.8,1.2C42.4,0.4,41.8,0,41,0H2C1.1,0,0.5,0.4,0.2,1.2S0,2.7,0.6,3.2l1.4,1.4h38.9l1.4-1.4
		C43,2.7,43.2,2,42.8,1.2z"/>
</g>
<g>
	<g id="share">
		<path class="st0" d="M48,37.2l-9.3-9.3v5.3c-9.3,1.3-13.3,8-14.7,14.7c3.3-4.7,8-6.8,14.7-6.8v5.5L48,37.2z"/>
	</g>
</g>
</svg>
