<?xml version="1.0" encoding="utf-8"?>
<!-- Generator: Adobe Illustrator 23.0.6, SVG Export Plug-In . SVG Version: 6.00 Build 0)  -->
<svg version="1.1" id="Layer_1" xmlns="http://www.w3.org/2000/svg" xmlns:xlink="http://www.w3.org/1999/xlink" x="0px" y="0px"
	 viewBox="0 0 48 48" style="enable-background:new 0 0 48 48;" xml:space="preserve">
<style type="text/css">
	.st0{fill:#1D2C32;}
</style>
<path class="st0" d="M47.4,43.9L46.5,43l-4.3-4.2l5-5l0.1-0.1c0.8-0.8,0.8-1.9,0-2.7l-0.7-0.7c-0.8-0.8-1.9-0.8-2.7,0l-2.3,2.3
	l-2.9,2.9l-2.9-2.9l-2.2-2.3c-0.8-0.8-1.9-0.8-2.7,0l-0.7,0.7c-0.5,0.5-0.6,1-0.6,1.6c0,0.5,0.2,0.8,0.6,1.1l5.1,5.1L31.2,43
	l-0.9,0.9c-0.8,0.8-0.8,1.9,0,2.7l0.7,0.7c0.8,0.8,1.9,0.8,2.7,0l4.3-4.3l0.8-0.8l0.8,0.8l4.3,4.3c0.8,0.8,1.9,0.8,2.7,0l0.7-0.7
	C48.2,45.8,48.2,44.7,47.4,43.9z"/>
<g>
	<path class="st0" d="M3.8,6.5l11.8,11.8V41c0,0.9,0.4,1.4,1.2,1.8c0.3,0.1,0.5,0.2,0.8,0.2c0.5,0,1-0.2,1.3-0.5l7.8-7.8
		c0.4-0.4,0.5-0.8,0.5-1.3v-15L39.1,6.5H3.8z"/>
	<path class="st0" d="M42.8,1.2C42.4,0.4,41.8,0,41,0H2C1.1,0,0.5,0.4,0.2,1.2S0,2.7,0.6,3.2l1.4,1.4h38.9l1.4-1.4
		C43,2.7,43.2,2,42.8,1.2z"/>
</g>
</svg>
