<?xml version="1.0" encoding="utf-8"?>
<!-- Generator: Adobe Illustrator 23.0.6, SVG Export Plug-In . SVG Version: 6.00 Build 0)  -->
<svg version="1.1" id="Layer_1" xmlns="http://www.w3.org/2000/svg" xmlns:xlink="http://www.w3.org/1999/xlink" x="0px" y="0px"
	 viewBox="0 0 48 48" style="enable-background:new 0 0 48 48;" xml:space="preserve">
<style type="text/css">
	.st0{fill:#FFFFFF;}
	.st1{fill:#90A4AE;}
	.st2{fill:#64B5F6;}
	.st3{fill:#81C784;}
	.st4{fill:#7986CB;}
	.st5{fill:#E53935;}
	.st6{fill:#FF8A65;}
</style>
<g>
	<path class="st0" d="M44.8,2H3.3c-0.5,0-1,0.4-1,1v42c0,0.5,0.4,1,1,1h14.3c-0.2-0.2-0.4-0.5-0.6-0.8l-0.4-1
		c-0.2-0.3-0.3-0.7-0.3-1.1c0-0.4,0.1-0.8,0.3-1.1c0.1-0.2,0.3-0.5,0.5-0.7c-0.1-0.1-0.1-0.1-0.2-0.2l-0.4-0.4H6.1v-9.6h15v2.1
		l1.2-0.5c0.3-0.2,0.7-0.3,1.2-0.3c0.4,0,0.8,0.1,1.1,0.3c0.2,0.1,0.4,0.3,0.6,0.5l0,0v-2H29c-0.2-0.3-0.4-0.7-0.4-1.3
		c0-0.3,0-0.6,0.2-1v-0.3l1.5-1.8c0.5-0.6,1.2-1,2-1c0.6,0,1.3,0.2,1.8,0.6l0.1,0.1l0.2,0.2h0.1v-0.4c0-0.5,0.1-0.9,0.3-1.3H33V7.1
		h9v17.7h-0.8c0.2,0.3,0.3,0.7,0.3,1.2v0.3l0.3-0.4l0.1-0.1c0.5-0.5,1.2-0.8,2-0.8c0.6,0,1.2,0.2,1.7,0.6l0.3,0.2V3
		C45.8,2.5,45.3,2,44.8,2z M16.9,24.8H6.1V7.1h10.8V24.8z M29.6,24.8h-9.5V7.1h9.5V24.8z"/>
	<path class="st0" d="M33,45.8c-0.1,0.1-0.1,0.1-0.2,0.2h5c-0.6-0.1-1.1-0.3-1.4-0.7c-0.2-0.2-0.8-0.8-0.8-1.7v-0.3l-0.3,0.4
		l-0.1,0.1c-0.2,0.2-0.7,0.6-1.5,0.7l-0.3,1L33,45.8z"/>
	<path class="st0" d="M24.7,42.4L24.7,42.4c0.2,0.1,0.3,0.1,0.5,0.1c0.4,0,0.8-0.2,1-0.6l0.1-0.3c0.1-0.3,0.1-0.6,0-0.9
		c0,0,0,0,0-0.1h-0.9V40c-0.1,0-0.1,0-0.2,0c-0.5,0-0.9,0.3-1.1,0.8c-0.2,0.4-0.1,0.7,0,0.8C24.2,42,24.4,42.2,24.7,42.4z"/>
	<path class="st0" d="M45.8,45v-1.7c-0.4,0.2-0.8,0.3-1.2,0.3c-0.6,0-1.2-0.2-1.7-0.7l-0.2-0.2c-0.1,0-0.2,0.1-0.2,0.1v0.4
		c0.1,0.6-0.1,1.2-0.5,1.6c-0.5,0.6-1.2,1-2,1.1L38.8,46h6C45.2,46,45.8,45.4,45.8,45z"/>
	<path class="st1" d="M47.1,37.4l0.4,0.3l0.1,0.1c0.1,0.1,0.2,0.2,0.3,0.3v-0.8c-0.1,0-0.3,0.1-0.4,0.1L47.1,37.4z"/>
	<path class="st1" d="M46.6,42.7L46.6,42.7c-0.3,0.3-0.5,0.4-0.8,0.6V45c0,0.4-0.5,1-1,1h-6h-0.5h-0.1c-0.1,0-0.3,0-0.4,0h-5
		c-0.7,0.6-1.4,0.8-1.9,0.8h-0.1v0.4c0,0.3-0.1,0.6-0.2,0.9h14.2c1.5,0,3-1.5,3-3v-3.8l-0.1,0.1L46.6,42.7z"/>
	<path class="st1" d="M19.7,46.8c-0.1,0-0.1,0-0.2,0c-0.8,0-1.4-0.3-1.9-0.8H3.3c-0.5,0-1-0.4-1-1V3c0-0.5,0.4-1,1-1h41.5
		c0.5,0,1,0.4,1,1v22.9l1.1,0.9l0.1,0.1c0.2,0.2,0.8,0.8,0.8,1.8c0,0.7-0.2,1.3-0.6,1.7L47,30.6v0.1h0.2c0.1,0,0.3,0,0.4,0
		c0.1,0,0.2,0,0.3,0V3c0-1.7-1.3-3-3-3H3.3c-1.7,0-3,1.3-3,3v42c0,1.7,1.3,3,3,3h16.6C19.7,47.6,19.6,47.2,19.7,46.8z"/>
	<rect x="6.1" y="7.1" class="st2" width="10.8" height="17.7"/>
	<rect x="20.1" y="7.1" class="st3" width="9.5" height="17.7"/>
	<path class="st4" d="M42,7.1h-8.9v17.7h1.8c0.1-0.2,0.2-0.3,0.4-0.5s0.8-0.8,1.7-0.8l1.7-0.1h0.1c0.9,0,1.6,0.4,1.9,0.8
		c0.1,0.1,0.3,0.3,0.5,0.6H42V7.1z"/>
	<path class="st5" d="M6.1,31.1v9.6h10.4l-0.1-0.2v-1.7l0.7-2l0.3-0.3c0.8-0.8,1.6-0.9,2.1-0.9c0,0,0,0,0.1,0c0,0,0,0,0-0.1
		c0-0.4,0.1-0.8,0.3-1.1c0.2-0.3,0.4-0.6,0.8-0.9l0.2-0.2l0.3-0.1v-2.1H6.1z"/>
	<path class="st6" d="M25.3,33.1c0.1,0,0.1-0.1,0.2-0.1c0.4-0.4,1-0.6,1.5-0.6c0.4,0,0.7,0.1,1,0.2c0.3-0.2,0.8-0.5,1.5-0.6h0.3
		l-0.4-0.3l-0.1-0.1c-0.1-0.1-0.3-0.3-0.4-0.5h-3.7v2H25.3z"/>
</g>
<g>
	<g>
		<path class="st1" d="M18.3,39.7c0.1,0.1,0.2,0.3,0.3,0.3l1.1,0.4c-0.1,0.5-0.1,1.2,0,1.7l-1.1,0.4c-0.1,0.1-0.3,0.2-0.3,0.3
			c-0.1,0.1-0.1,0.3,0,0.4l0.5,1.2c0.1,0.3,0.5,0.4,0.9,0.3l1.1-0.4c0.3,0.4,0.8,0.9,1.2,1.2l-0.4,1.1c-0.1,0.3,0,0.6,0.3,0.9
			l1.2,0.4c0.1,0.1,0.3,0.1,0.4,0s0.3-0.2,0.3-0.3l0.4-1.1c0.5,0.1,1.2,0.1,1.7,0l0.4,1.1c0.1,0.3,0.5,0.4,0.9,0.3l1.2-0.5
			c0.1-0.1,0.3-0.2,0.3-0.3c0-0.2,0-0.3,0-0.5l-0.4-1.1c0.4-0.3,0.9-0.8,1.2-1.2l1.1,0.4c0.3,0.1,0.6,0,0.9-0.3l0.4-1.2
			c0.1-0.3,0-0.6-0.3-0.9l-1.1-0.4c0.1-0.5,0.1-1.2,0-1.7l1.1-0.4c0.1-0.1,0.3-0.2,0.3-0.3c0.1-0.1,0.1-0.3,0-0.4l-0.5-1.2
			c-0.1-0.3-0.5-0.4-0.9-0.3L29.4,38c-0.3-0.4-0.8-0.9-1.2-1.2l0.4-1.1c0.1-0.3,0-0.6-0.3-0.9l-1.2-0.4c-0.1-0.1-0.3-0.1-0.4,0
			s-0.3,0.2-0.3,0.3L26,35.8c-0.5-0.1-1.2-0.1-1.7,0l-0.4-1.1c-0.1-0.1-0.2-0.3-0.3-0.3c-0.1-0.1-0.3-0.1-0.4,0L21.8,35
			c-0.1,0.1-0.3,0.2-0.3,0.3c-0.1,0.1-0.1,0.3,0,0.4l0.4,1.1c-0.4,0.3-0.9,0.8-1.2,1.2l-1.1-0.4c-0.3-0.1-0.6,0-0.9,0.3l-0.4,1.2
			l0,0C18.3,39.4,18.3,39.6,18.3,39.7z M26.2,38.3c1.6,0.6,2.4,2.4,1.8,4v0.1c-0.6,1.6-2.5,2.5-4.1,1.8c-1.6-0.6-2.5-2.5-1.8-4.1
			C22.8,38.4,24.6,37.7,26.2,38.3z"/>
	</g>
</g>
<g>
	<g>
		<path class="st3" d="M30.5,29.8c0,0.2,0.1,0.3,0.2,0.4l1.4,1.2c-0.4,0.8-0.6,1.6-0.8,2.5L29.5,34c-0.2,0-0.3,0.1-0.4,0.2
			C29,34.3,29,34.5,29,34.6l0.1,1.7c0,0.3,0.3,0.6,0.6,0.5l1.8-0.1c0.2,0.9,0.6,1.6,1.2,2.3l-1.2,1.4c-0.2,0.2-0.2,0.6,0.1,0.9
			l1.3,1.1c0.1,0.1,0.3,0.1,0.4,0.1c0.2,0,0.3-0.1,0.4-0.2l1.2-1.4c0.8,0.4,1.6,0.6,2.5,0.8l0.1,1.8c0,0.2,0.1,0.3,0.2,0.4
			C37.8,44,38,44,38.1,44l1.7-0.1c0.3,0,0.6-0.3,0.5-0.6l0.1-1.9c0.9-0.2,1.6-0.6,2.3-1.2l1.4,1.2c0.2,0.2,0.6,0.2,0.9-0.1l1.1-1.3
			c0.1-0.1,0.1-0.3,0.1-0.4c0-0.2-0.1-0.3-0.2-0.4L44.6,38c0.4-0.8,0.6-1.6,0.8-2.5l1.8-0.1c0.2,0,0.4,0,0.5-0.1
			c0.1-0.1,0.2-0.4,0.2-0.5v-1.5c0-0.3,0-0.7-0.6-0.7l-1.8,0.1c-0.2-0.9-0.6-1.6-1.2-2.3l1.2-1.4c0.1-0.1,0.1-0.3,0.1-0.4
			c0-0.2-0.1-0.3-0.2-0.4l-1.3-1.1c-0.2-0.2-0.6-0.2-0.9,0.1L42,28.6c-0.8-0.4-1.6-0.6-2.5-0.8L39.4,26c0-0.2-0.1-0.3-0.2-0.4
			c-0.2-0.2-0.4-0.2-0.5-0.2L37,25.5c-0.2,0-0.3,0.1-0.4,0.2s-0.1,0.3-0.1,0.4l0.1,1.8c-0.9,0.2-1.6,0.6-2.3,1.2l-1.4-1.2
			c-0.4-0.3-0.9-0.3-1.1,0l-1.1,1.3c0,0.1-0.1,0.1-0.1,0.2C30.5,29.6,30.5,29.7,30.5,29.8z M35.2,32c0.8-0.9,1.7-1.4,2.9-1.5
			s2.3,0.2,3.1,1c1.3,1.1,1.8,3,1.3,4.6c-0.2,0.4-0.4,1-0.8,1.3c-0.8,0.9-1.7,1.4-2.9,1.5c-1.1,0.1-2.3-0.2-3.1-1
			c-1.3-1.1-1.8-3-1.3-4.6C34.6,32.8,34.9,32.4,35.2,32z"/>
	</g>
</g>
</svg>
