<?xml version="1.0" encoding="utf-8"?>
<!-- Generator: Adobe Illustrator 23.0.3, SVG Export Plug-In . SVG Version: 6.00 Build 0)  -->
<svg version="1.1" id="Layer_1" xmlns="http://www.w3.org/2000/svg" xmlns:xlink="http://www.w3.org/1999/xlink" x="0px" y="0px"
	 viewBox="0 0 48 48" style="enable-background:new 0 0 48 48;" xml:space="preserve">
<style type="text/css">
	.st0{fill:#4FC3F7;}
</style>
<g>
	<path class="st0" d="M41,7c-4.5-4.5-10.6-7-17-7S11.6,2.5,7,7S0,17.6,0,24s2.5,12.4,7,17s10.6,7,17,7s12.4-2.5,17-7s7-10.6,7-17
		S45.5,11.6,41,7z M45.8,22.9h-9.3c-0.1-3.7-0.6-7.3-1.5-10.4c1.8-0.9,3.4-2.1,4.9-3.4C43.4,12.7,45.6,17.6,45.8,22.9z M25.1,25.1
		h9.3c-0.1,3.4-0.5,6.7-1.4,9.6c-2.5-1-5.2-1.6-7.9-1.7V25.1z M38.4,7.6c-1.3,1.1-2.6,2-4.1,2.8c-0.4-1-0.8-2-1.3-2.9
		c-0.9-1.8-2-3.4-3.2-4.5C33.1,3.9,36,5.5,38.4,7.6z M25.1,2.5c2.2,0.5,4.4,2.6,6.1,5.9c0.5,0.9,0.9,1.9,1.2,2.9
		c-2.3,1-4.8,1.5-7.3,1.6V2.5z M33,13.4c0.8,2.9,1.3,6.1,1.3,9.5h-9.3v-7.8C27.8,15,30.5,14.4,33,13.4L33,13.4z M22.9,22.9h-9.3
		c0.1-3.4,0.5-6.6,1.3-9.5c2.5,1,5.2,1.6,7.9,1.7L22.9,22.9L22.9,22.9z M22.9,2.5V13c-2.5-0.1-5-0.7-7.3-1.6c0.4-1,0.8-2,1.2-2.9
		C18.6,5.1,20.7,3,22.9,2.5z M18.1,3c-1.2,1.2-2.2,2.7-3.2,4.5c-0.5,0.9-0.9,1.9-1.3,2.9c-1.4-0.8-2.8-1.7-4.1-2.8
		C12,5.5,14.9,3.9,18.1,3L18.1,3z M8.1,9.1c1.5,1.4,3.2,2.5,4.9,3.4c-0.9,3.2-1.4,6.7-1.5,10.4H2.2C2.4,17.6,4.6,12.7,8.1,9.1z
		 M2.2,25.1h9.3c0.1,3.7,0.6,7.3,1.5,10.5c-1.8,0.9-3.4,2-4.9,3.4C4.6,35.3,2.4,30.4,2.2,25.1z M9.6,40.5c1.3-1.1,2.6-2,4.1-2.8
		c0.4,1,0.8,2,1.2,2.9c0.9,1.8,2,3.4,3.2,4.5C14.9,44.2,12.1,42.6,9.6,40.5L9.6,40.5z M22.9,45.5c-2.2-0.5-4.4-2.6-6.1-5.9
		c-0.5-0.9-0.9-1.8-1.2-2.9c2.3-1,4.8-1.5,7.3-1.6L22.9,45.5L22.9,45.5z M15,34.7c-0.8-2.9-1.3-6.2-1.4-9.6h9.3v7.9
		C20.2,33.1,17.5,33.6,15,34.7L15,34.7z M25.1,45.5V35.1c2.5,0.1,5,0.7,7.3,1.6c-0.4,1-0.8,2-1.2,2.9C29.4,42.9,27.3,45,25.1,45.5
		L25.1,45.5z M29.9,45c1.2-1.2,2.2-2.7,3.2-4.5c0.5-0.9,0.9-1.9,1.2-2.9c1.4,0.8,2.8,1.7,4.1,2.8C36,42.6,33.1,44.2,29.9,45L29.9,45
		z M39.9,39c-1.5-1.3-3.2-2.5-4.9-3.4c0.9-3.2,1.4-6.8,1.5-10.5h9.3C45.6,30.4,43.4,35.3,39.9,39L39.9,39z"/>
</g>
</svg>
