<?xml version="1.0" encoding="utf-8"?>
<!-- Generator: Adobe Illustrator 23.0.3, SVG Export Plug-In . SVG Version: 6.00 Build 0)  -->
<svg version="1.1" id="Layer_1" xmlns="http://www.w3.org/2000/svg" xmlns:xlink="http://www.w3.org/1999/xlink" x="0px" y="0px"
	 viewBox="0 0 48 48" style="enable-background:new 0 0 48 48;" xml:space="preserve">
<style type="text/css">
	.st0{fill:#E0E0E0;stroke:#90A4AE;stroke-width:1.0472;stroke-miterlimit:10;}
	.st1{fill:#90A4AE;}
</style>
<rect x="12.4" y="0.5" class="st0" width="25" height="8.9"/>
<rect x="12.1" y="13.2" class="st0" width="25" height="8.9"/>
<rect x="21.5" y="25.9" class="st0" width="25" height="8.9"/>
<rect x="21.5" y="38.6" class="st0" width="25" height="8.9"/>
<g>
	<g>
		<polygon class="st1" points="4.7,6.5 5.5,6.5 5.5,5.3 6.6,5.3 6.6,4.5 5.5,4.5 5.5,3.4 4.7,3.4 4.7,4.5 3.5,4.5 3.5,5.3 4.7,5.3 
					"/>
		<path class="st1" d="M1.6,1.3v7.2h7V1.3H1.6z M7.9,7.7H2.4V2.1h5.5V7.7z"/>
	</g>
</g>
<g>
	<g>
		<polygon class="st1" points="14.2,31.9 15,31.9 15,30.8 16.2,30.8 16.2,29.9 15,29.9 15,28.8 14.2,28.8 14.2,29.9 13.1,29.9 
			13.1,30.8 14.2,30.8 		"/>
		<path class="st1" d="M11.1,26.8V34h7v-7.2C18.1,26.8,11.1,26.8,11.1,26.8z M17.3,33.2h-5.5v-5.6h5.5V33.2z"/>
	</g>
</g>
<g>
	<g>
		<polygon class="st1" points="14.2,44.6 15,44.6 15,43.5 16.2,43.5 16.2,42.6 15,42.6 15,41.5 14.2,41.5 14.2,42.6 13.1,42.6 
			13.1,43.5 14.2,43.5 		"/>
		<path class="st1" d="M11.1,39.5v7.2h7v-7.2H11.1z M17.3,45.9h-5.5v-5.6h5.5V45.9z"/>
	</g>
</g>
<g>
	<g>
		<polyline class="st1" points="3.5,17.2 3.5,18.1 4.7,18.1 4.7,18.1 5.5,18.1 5.5,18.1 6.6,18.1 6.6,17.2 		"/>
		<path class="st1" d="M1.6,14v7.2h7V14C8.6,14,1.6,14,1.6,14z M7.9,20.4H2.4v-5.6h5.5V20.4z"/>
	</g>
</g>
</svg>
