<?xml version="1.0" encoding="utf-8"?>
<!-- Generator: Adobe Illustrator 23.0.3, SVG Export Plug-In . SVG Version: 6.00 Build 0)  -->
<svg version="1.1" id="Layer_1" xmlns="http://www.w3.org/2000/svg" xmlns:xlink="http://www.w3.org/1999/xlink" x="0px" y="0px"
	 viewBox="0 0 512 512" style="enable-background:new 0 0 512 512;" xml:space="preserve">
<style type="text/css">
	.st0{fill:#FFFFFF;}
	.st1{fill:#90A4AE;}
	.st2{fill:#4FC3F7;}
</style>
<g>
	<g>
		<polygon class="st0" points="446.1,507.3 299.6,506.3 299.6,322.7 207.3,322.7 208.7,506.3 66.7,507.3 66.7,236.7 446.1,236.7 		
			"/>
		<path class="st1" d="M454.5,240.9H55.1v2.5l0.2,0.1c0,0-0.1,0-0.2,0v4.1h0.4l0.1,136.4c0,0.3-0.1,0.6-0.1,0.9V514h399.1V247.5h0
			L454.5,240.9L454.5,240.9z M289.4,498.9h-71.7l1-167h71.7L289.4,498.9z M439.4,498.9H305.1V316.8L202,316.1v182.1l-131.4,0.7
			V385.6c0-0.3,0.1-0.6,0.1-1l-0.1-137.1h368.8V498.9z"/>
		<path class="st1" d="M507.4,234.4l-46.1-43V67.2h17.6V4.5H333.6v62.7h17.6v21.7L260.2,4c-2.9-2.7-7.4-2.7-10.3,0L8.9,228.6
			c0.8,2.1,0.5,4.3,0.2,6.4c0.1,3.8,0.5,7.6,0.7,11.4c0.1,0.4,0.2,0.8,0.3,1.2h32.3c0-0.2,0-0.4,0-0.6c-0.1-0.7-0.1-1.4,0-2.1
			c0,0,0-0.1,0-0.1h-9.8c0,0,0-1.5,0-1.5h9.8c0-0.8,0-1.6,0-2.3H12.1L252.9,12.1l248.6,228.7h-42.2c0.3,2.2,0.6,4.4,0.6,6.7h44.4
			c0,0,0,0,0,0C510.7,244.8,511.1,238,507.4,234.4z M446.1,177.4L366.4,103V67.2h79.8V177.4z M453.7,52.1h-94.9c0,0,0,0,0,0h-10
			V19.6h115v32.5H453.7C453.7,52.1,453.7,52.1,453.7,52.1z"/>
		<path class="st2" d="M10.3,247.5l492.6-0.4c7.6,0,11.3-9.1,5.7-14.2L260.2,4c-2.8-2.5-7.6-2.6-10.3,0L3.8,233.4
			C-3,239.7,1.7,248.8,10.3,247.5z"/>
	</g>
</g>
</svg>
