<?xml version="1.0" encoding="utf-8"?>
<!-- Generator: Adobe Illustrator 23.0.3, SVG Export Plug-In . SVG Version: 6.00 Build 0)  -->
<svg version="1.1" id="Layer_1" xmlns="http://www.w3.org/2000/svg" xmlns:xlink="http://www.w3.org/1999/xlink" x="0px" y="0px"
	 viewBox="0 0 48 48" style="enable-background:new 0 0 48 48;" xml:space="preserve">
<style type="text/css">
	.st0{fill:#FFFFFF;}
	.st1{fill:#90A4AE;}
	.st2{fill:#E57373;}
	.st3{fill:#64B5F6;}
	.st4{fill:#FCFCFC;}
	.st5{fill:#AED581;}
	.st6{fill:#BA68C8;}
	.st7{fill:#FFB74D;}
	.st8{fill:#4FC3F7;}
	.st9{fill:#4DD0E1;}
	.st10{fill:#DCE775;}
	.st11{fill:#9575CD;}
	.st12{fill:#FF8A65;}
	.st13{fill:#FFD54F;}
	.st14{fill:#81C784;}
	.st15{fill:#F06292;}
</style>
<g>
	<g>
		<rect x="39.5" y="7.2" class="st0" width="5.2" height="10.8"/>
		<rect x="40.2" y="13.7" transform="matrix(0.7071 -0.7071 0.7071 0.7071 2.243 33.3888)" class="st1" width="2.4" height="0.6"/>
		<g>
			<path class="st0" d="M32.4,5.5l1.2-2.4c0.1-0.2,0-0.3-0.1-0.4c-0.1-0.1-0.3,0-0.4,0.1l-1.2,2.4c-0.1,0.1,0,0.3,0.1,0.4h0.1
				C32.2,5.7,32.3,5.6,32.4,5.5z"/>
			<path class="st0" d="M38.4,5.4V3c0-0.2-0.1-0.3-0.3-0.3S37.8,2.8,37.8,3v2.4c0,0.2,0.1,0.3,0.3,0.3C38.3,5.7,38.4,5.6,38.4,5.4z"
				/>
			<path class="st0" d="M34.8,5.5L36,3.1c0-0.1,0-0.3-0.2-0.4c-0.1-0.1-0.3,0-0.4,0.1l-1.2,2.4c-0.1,0.1,0,0.3,0.1,0.4h0.1
				C34.6,5.7,34.7,5.6,34.8,5.5z"/>
			<path class="st0" d="M41.7,5.7L41.7,5.7C42,5.6,42,5.4,42,5.3l-1.3-2.4c-0.1-0.1-0.3-0.2-0.4-0.1S40,3,40.1,3.2l1.3,2.4
				C41.5,5.7,41.6,5.7,41.7,5.7z"/>
			<path class="st0" d="M43.2,2.9c-0.1-0.2-0.3-0.2-0.4-0.1c-0.1,0.1-0.2,0.3-0.1,0.4l1.2,2.4c0,0.1,0.2,0.2,0.3,0.2h0.1
				c0.2-0.1,0.2-0.3,0.1-0.4L43.2,2.9z"/>
			<path class="st2" d="M45.3,1.8H45H31.2h-0.3l-2.4,4.8h19.2L45.3,1.8z M31.8,5.3L33,2.9c0.1-0.2,0.3-0.2,0.4-0.1
				c0.2,0.1,0.2,0.3,0.1,0.4l-1.2,2.4c0,0.1-0.2,0.2-0.3,0.2h-0.1C31.8,5.6,31.8,5.4,31.8,5.3z M34.2,5.3l1.2-2.4
				c0.1-0.2,0.3-0.2,0.4-0.1C36,2.8,36,3,36,3.1l-1.2,2.4c0,0.1-0.2,0.2-0.3,0.2h-0.1C34.2,5.6,34.2,5.4,34.2,5.3z M37.8,5.4V3
				c0-0.2,0.1-0.3,0.3-0.3s0.3,0.1,0.3,0.3v2.4c0,0.2-0.1,0.3-0.3,0.3C38,5.7,37.8,5.6,37.8,5.4z M40.3,2.7c0.1-0.1,0.3,0,0.4,0.1
				L42,5.3c0.1,0.1,0,0.3-0.1,0.4h-0.1c-0.1,0-0.2-0.1-0.3-0.2l-1.3-2.4C40,3,40.1,2.8,40.3,2.7z M44.2,5.7L44.2,5.7
				c-0.2,0-0.3-0.1-0.4-0.2l-1.2-2.4c-0.1-0.2,0-0.3,0.1-0.4c0.1-0.1,0.3,0,0.4,0.1l1.2,2.4C44.5,5.4,44.4,5.6,44.2,5.7z"/>
		</g>
		<path class="st2" d="M45.3,0.6C45.3,0.3,45,0,44.7,0H31.5c-0.3,0-0.6,0.3-0.6,0.6s-0.1,1.2,0.3,1.2h13.9
			C45.4,1.8,45.3,0.9,45.3,0.6z"/>
		<polygon class="st1" points="39.5,14.6 42.4,11.7 42,11.3 39.5,13.8 		"/>
		<path class="st1" d="M47.1,18h-1.2v-7.8h-1.2V18h-5.2v1.2h7.6c0.3,0,0.6-0.3,0.6-0.6S47.4,18,47.1,18z"/>
		<path class="st2" d="M28.5,7.2v0.6c0,0.4,0.1,0.7,0.2,1H33c0.1-0.3,0.2-0.6,0.2-1c0,0.4,0.1,0.7,0.2,1h4.3c0.1-0.3,0.2-0.6,0.2-1
			c0,1.3,1,2.3,2.3,2.4h0.2c1.3-0.1,2.3-1.1,2.3-2.4c0,1.1,0.8,2,1.8,2.3h1.2c1-0.3,1.8-1.2,1.8-2.3V7.2H28.5z"/>
	</g>
</g>
<g>
	<path class="st3" d="M40.1,30.8l4.2,4.2L33.6,45.7l-4.2-4.2L40.1,30.8z M47.5,29.7l-1.9-1.9c-0.7-0.7-1.9-0.7-2.7,0l-1.8,1.8
		l4.2,4.2l2.1-2.1C48.1,31.1,48.1,30.3,47.5,29.7z M27.1,47.4c-0.1,0.4,0.2,0.7,0.6,0.6l4.7-1.2l-4.2-4.2L27.1,47.4z"/>
</g>
<g>
	<polygon class="st4" points="18.9,11 19.2,17.6 31.1,17.6 31.1,29.4 37.7,29.4 37.7,11.2 	"/>
	<rect x="20.6" y="13.4" class="st3" width="4.5" height="4.2"/>
	<rect x="26.4" y="13.4" class="st5" width="4" height="4.2"/>
	<rect x="31.8" y="13.4" class="st6" width="3.7" height="7.3"/>
	<rect x="31.9" y="23.3" class="st7" width="3.2" height="4"/>
	<path class="st1" d="M19.1,11.4L19.1,11.4c0-0.1,0.1-0.1,0.2-0.1H37c0.1,0,0.2,0.1,0.2,0.2v16.6v0.8l0,0c0,0.1-0.1,0.1-0.2,0.1l0,0
		l0,0c0,0-0.1,0-0.2,0l0,0h-0.2l0,0h-1.9h-3.6v1.4h4.5l0,0h1.6c0.6,0,0.8-0.5,0.8-1.2V11.5c0-0.6-0.5-1.2-1.1-1.2H19.3
		c-0.6,0-1.1,0.5-1.1,1.2v6.1h0.9"/>
</g>
<g id="Layer_3">
	<g>
		<path class="st8" d="M20.7,36.5v3.3h5.6c0.6-0.2,0.7-0.9,0.7-1.2v-2.1H20.7L20.7,36.5z"/>
		<path class="st4" d="M8.5,20.3v9.9h12.1c0,0,0,0,0,0.1l0,0l0.1,5.5H29l-0.1-15.5H8.5z"/>
		<path class="st1" d="M28.4,19.6H9.2c-0.7,0-1.2,0.5-1.2,1v9.6c0.1,0,0.2,0,0.4,0H9v-9.5c0,0,0.1-0.1,0.2-0.1h19.3
			c0.1,0,0.2,0.1,0.2,0.2V35v0.7l0,0c0,0-0.1,0.1-0.2,0.1h-0.1h-7.7V37H27l0,0h1.8c0.7,0,0.9-0.5,0.9-1V20.6
			C29.7,20,29.1,19.6,28.4,19.6z"/>
		<rect x="21" y="31.3" class="st9" width="2.8" height="2.8"/>
		<rect x="24.9" y="30.7" class="st10" width="2.6" height="3.5"/>
		<rect x="25.1" y="26.1" class="st11" width="2.4" height="3.6"/>
		<rect x="22.9" y="21.6" class="st2" width="3.5" height="3.5"/>
		<rect x="18.2" y="22.2" class="st6" width="3.4" height="3"/>
		<rect x="20.3" y="26.7" class="st8" width="3.6" height="3"/>
		<rect x="13.5" y="21.7" class="st12" width="3.4" height="3.5"/>
		<rect x="9.8" y="22.2" class="st3" width="2.5" height="3"/>
		<rect x="10" y="26.7" class="st13" width="2.3" height="3"/>
		<rect x="13.5" y="27.2" class="st14" width="2.8" height="2.5"/>
		<rect x="17.3" y="26.7" class="st15" width="2.1" height="3"/>
	</g>
</g>
<g id="Layer_4">
	<rect x="1.2" y="46.8" class="st1" width="1.8" height="1.2"/>
	<rect x="3.5" y="46.8" class="st1" width="1.8" height="1.2"/>
	<rect x="13.4" y="46.8" class="st1" width="1.8" height="1.2"/>
	<rect x="16.1" y="46.8" class="st1" width="2.5" height="1.2"/>
	<rect x="6" y="46.8" class="st1" width="1.8" height="1.2"/>
	<rect x="8.4" y="46.8" class="st1" width="1.8" height="1.2"/>
	<rect x="10.9" y="46.8" class="st1" width="1.8" height="1.2"/>
	<g>
		<g>
			<rect x="5.3" y="31.5" class="st1" width="0.6" height="14.9"/>
			<rect x="3.9" y="31.5" class="st1" width="0.3" height="14.9"/>
			<rect x="7.6" y="31.5" class="st1" width="0.3" height="14.9"/>
			<rect x="6.9" y="31.5" class="st1" width="0.3" height="14.9"/>
			<rect x="1.3" y="31.5" class="st1" width="0.3" height="14.9"/>
			<rect x="2.3" y="31.5" class="st1" width="0.3" height="14.9"/>
			<rect x="0.2" y="31.5" class="st1" width="0.6" height="14.9"/>
			<rect x="8.2" y="31.5" class="st1" width="0.3" height="14.9"/>
			<rect x="14.9" y="31.5" class="st1" width="0.6" height="14.9"/>
			<rect x="16.5" y="31.5" class="st1" width="1" height="14.9"/>
			<rect x="17.9" y="31.5" class="st1" width="0.3" height="14.9"/>
			<rect x="18.6" y="31.5" class="st1" width="0.6" height="14.9"/>
			<rect x="12.6" y="31.5" class="st1" width="0.6" height="14.9"/>
			<rect x="14" y="31.5" class="st1" width="0.6" height="14.9"/>
			<rect x="11.2" y="31.5" class="st1" width="0.6" height="14.9"/>
			<rect x="9.6" y="31.5" class="st1" width="0.6" height="14.9"/>
		</g>
	</g>
</g>
</svg>
