<?xml version="1.0" encoding="utf-8"?>
<!-- Generator: Adobe Illustrator 23.0.3, SVG Export Plug-In . SVG Version: 6.00 Build 0)  -->
<svg version="1.1" id="Layer_1" xmlns="http://www.w3.org/2000/svg" xmlns:xlink="http://www.w3.org/1999/xlink" x="0px" y="0px"
	 viewBox="0 0 48 48" style="enable-background:new 0 0 48 48;" xml:space="preserve">
<style type="text/css">
	.st0{fill:#90A4AE;}
	.st1{fill:#FFFFFF;}
	.st2{fill:#4FC3F7;}
</style>
<g>
	<g>
		<path class="st0" d="M35.6,29.2c-0.1,0-1.3,0.4-3.4,0.4c-1.4,0-2.4-0.2-3-0.3c-2.2,0.4-4.7,0.7-7.6,0.8c-0.7,0-1.2,0-1.8,0
			s-1.2,0-1.8,0c-5.3-0.1-9.4-0.9-12.5-2c-1.4-0.4-2.6-1.1-3.6-1.6v6.7c2.1,2.2,8.9,4.1,17.9,4.1s15.8-2,17.9-4.1v-5.7
			C37.2,28.4,36.5,29,35.6,29.2z"/>
		<path class="st0" d="M20.9,25c-1.1-1.1-1.8-2.1-2.1-2.5c-0.4-0.5-0.6-1.1-0.6-1.7c-6.5-0.2-13.2-1.4-16.4-3.6v6.6
			c1.8,2,7.9,3.8,15.9,4c0.1,0,0.1,0,0.2,0c0.2,0,0.4,0,0.7,0c0.3,0,0.7,0,1,0c0.3,0,0.7,0,1,0c0.2,0,0.4,0,0.7,0c0.1,0,0.1,0,0.2,0
			c1.3-0.1,2.5-0.1,3.6-0.2c-0.4,0-0.9-0.1-1.3-0.3C23.2,27.1,22.3,26.5,20.9,25z"/>
		<path class="st0" d="M16.6,17.2c0,0-0.4-1.3-0.4-3.4c0-1.6,0.2-2.7,0.3-3.1v0l0.1-0.2c0.3-1,1-1.8,2.1-2.1c-0.2-0.5-0.3-1-0.3-1.5
			C8.5,6.9,2.8,9.7,2,12.7c-0.1,0.1-0.1,0.2-0.1,0.3v1.6c1.9,2,7.7,3.7,15.6,4C17,18.2,16.7,17.7,16.6,17.2z"/>
		<path class="st0" d="M1.8,35.8v5.9c0,0.1,0,0.2,0.1,0.3c0.9,3.5,8.3,6.1,17.8,6.1c9.3,0,16.9-2.6,17.8-6.1c0-0.1,0.1-0.2,0.1-0.3
			v-5.9c-2.9,2.1-9,3.7-17.9,3.7C10.8,39.5,4.8,37.9,1.8,35.8z"/>
	</g>
	<g>
		<path class="st1" d="M41.8,10.7c-0.3-0.1-0.2,0.2-0.3-0.1c-0.3-1,0.1-0.4-0.3-1.3c-0.2-0.4,0.2-0.1,0.4-0.5l1-2.1
			c-0.3-0.3-1.1-1.1-1.7-1.5c-0.5-0.5-1.3-0.9-1.6-1.1l-2.2,1.5c-0.3,0.2,0,0-0.3-0.2c-0.9-0.3,0,0-0.9-0.3c-0.3-0.1-0.9-0.2-1-0.7
			l-0.3-3c-0.3-0.1-2.2,0-3,0s-1.3,0-1.7,0.1l-0.3,2.7l0.7,0.2c0,0.3-0.3-0.3-0.7-0.2c-0.9,0.3-0.7,0.2-1.4,0.7
			c-0.4,0.2-0.8,0.1-1.1-0.1l-1.4-0.9c0.3-1.2-1.7,1-2.1,1.4c-0.5,0.5-1.1,1.1-1.3,1.5l1.3,1.9c0.2,0.3,0.2-0.4,0,0
			c-0.1,0.3-0.4,1.4-0.4,1.4c0,0.1,0.2-0.3,0,0c-0.1,0.4,0.1,0.7-0.2,0.7l-2.2,0.3c-0.6,0.2-0.6,2.1-0.6,2.8s-0.1,1.2,0,1.6l2.8,0.4
			c0.4,0,0.8,0.3,0.9,0.7c0.3,0.9,0.1,0.7,0.5,1.4c0.1,0.4-1,0.9-1.2,1.1l-1.3,1.7c0.3,0.3,1.4,1.2,1.9,1.7c0.5,0.5,1.2,1,1.5,1.3
			l2.3-1.3c0.3-0.2-0.2-0.2,0.2,0c0.9,0.4,0.4-0.2,1.3,0c0.4,0.1,0.4,1.3,0.4,1.6l1,2.4c0.4,0,1,0.1,1.7,0.1c0.8,0,2.4-1.1,2.8-1.2
			l0.3-1.1c0-0.4-0.2-1.3,0.2-1.4c1-0.3,0,0,0.9-0.4c0.3-0.1,0.6-0.2,0.8,0l2,1.3c0.3-0.3,1.3-0.8,1.8-1.3s1.2-1.7,1.5-2.1l-1-1.8
			c-0.2-0.3-0.3-0.2-0.1-0.5c0.3-0.9,0,0,0.2-0.9c0.1-0.4-0.2-0.5,0.1-0.5l0.6-0.2l2.4-0.6c0-0.4,0-1.4,0-2.1s0.1-2.2,0-2.7
			L41.8,10.7z M32.4,20.5c-3.7,0-6.6-2.9-6.6-6.6s2.9-6.6,6.6-6.6s6.6,2.9,6.6,6.6S36,20.5,32.4,20.5z"/>
		<path class="st2" d="M45.8,10.9c-0.1-0.4-0.4-0.7-0.9-0.8l-2.3-0.3c-0.1-0.3,0-0.1-0.2-0.4l1.4-1.8c0.3-0.3,0.3-0.9,0-1.2
			c0-0.1-0.5-1-1.8-2.3c-1.3-1.3-2.2-2-2.3-2C39.4,2,38.9,2,38.6,2.3l-1.8,1.4c-0.3-0.2-0.2-0.1-0.5-0.2l-0.3-2.3
			c0-0.4-0.3-0.8-0.8-0.9c0,0-1.1-0.3-2.9-0.3c-1.8,0-2.9,0.3-2.9,0.3c-0.4,0.1-0.7,0.4-0.8,0.9l-0.3,2.1v0.1
			c-0.3,0.1-0.1,0.1-0.5,0.2l-1.8-1.4c-0.3-0.3-0.9-0.3-1.2-0.1c0,0-1,0.7-2.3,1.8c-1.3,1.3-1.8,2.2-1.8,2.3c-0.2,0.3-0.2,0.9,0,1.2
			l1.4,1.8c-0.1,0.3-0.1,0.2-0.2,0.5l-2.3,0.3c-0.4,0.1-0.8,0.3-0.9,0.8c0,0.1-0.3,1.1-0.3,2.9s0.3,2.9,0.3,2.9
			c0.1,0.4,0.4,0.7,0.9,0.8l2.3,0.3c0.1,0.3,0,0.1,0.2,0.5l-1.4,1.8c-0.3,0.3-0.3,0.9,0,1.2c0,0,0.5,1,1.8,2.3
			c1.3,1.3,2.2,1.8,2.3,1.8c0.4,0.2,0.9,0.2,1.2,0l1.8-1.4c0.3,0.1,0.2,0.1,0.5,0.2l0.3,2.3c0,0.1,0,0.2,0.1,0.2
			c0.1,0.3,0.3,0.5,0.7,0.5c0,0,1.1,0.3,2.9,0.3c1.8,0,2.9-0.3,2.9-0.3c0.4-0.1,0.8-0.4,0.8-0.9l0.2-1.3l0.1-1
			c0.3-0.1,0.2,0,0.5-0.2l0.9,0.7l1,0.8c0.3,0.3,0.9,0.3,1.2,0c0,0,1-0.5,2.3-1.8s1.8-2.2,1.8-2.3c0.2-0.4,0.2-0.9,0-1.2l-1.4-1.8
			c0.2-0.3,0.1-0.1,0.2-0.5l2.3-0.3c0.4,0,0.8-0.3,0.9-0.8c0,0,0.3-1.1,0.3-2.9S45.8,10.9,45.8,10.9z M44,15.6l-1.8,0.2h-0.3
			c-0.3,0-0.8,0.3-0.9,0.7c-0.3,0.9-0.2,0.7-0.5,1.4c-0.2,0.4-0.1,0.9,0.1,1.1l1.3,1.6c-0.3,0.3-0.7,0.9-1.2,1.3
			c-0.5,0.5-1,0.9-1.3,1.2l-1.7-1.3c-0.3-0.2-0.8-0.3-1.1-0.1c-0.9,0.4-0.5,0.3-1.4,0.5c-0.3,0.1-0.7,0.5-0.8,0.9L34,25.2
			c-0.4,0-1,0.1-1.7,0.1s-1.3,0-1.7-0.1l-0.3-2.2c0-0.4-0.3-0.8-0.7-0.9c-0.9-0.3-0.7-0.2-1.4-0.5c-0.4-0.1-0.8-0.1-1.1,0.1
			l-1.7,1.3c-0.3-0.3-0.9-0.7-1.3-1.2c-0.5-0.5-0.9-1-1.1-1.3l1.3-1.7c0.2-0.3,0.3-0.8,0.1-1.1c-0.4-0.9-0.3-0.5-0.5-1.4
			c-0.1-0.4-0.5-0.7-0.9-0.7l-2.2-0.3c0-0.4-0.1-1-0.1-1.7c0-0.8,0-1.3,0.1-1.7l2.2-0.3c0.4-0.1,0.8-0.3,0.9-0.7
			c0.1-0.3,0.3-0.7,0.3-0.8c0,0,0.1-0.4,0.3-0.7c0.1-0.4,0.1-0.8-0.1-1.1l-1.3-1.7c0.3-0.3,0.5-0.9,1.1-1.3c0.5-0.5,1-0.9,1.3-1.1
			l1.7,1.3c0.3,0.2,0.7,0.3,1.1,0.1c0.9-0.4,0.5-0.3,1.4-0.7c0.4-0.1,0.7-0.4,0.7-0.9V4.1l0.2-2.1c0.4,0.1,1,0.1,1.7,0.1
			c0.8,0,1.3,0.1,1.7,0.1l0.3,2.2c0,0.3,0.3,0.8,0.8,0.9C36,5.6,35.8,5.5,36.5,6c0.3,0.2,0.9,0.1,1.1-0.1l1.7-1.3
			c0.3,0.3,0.8,0.7,1.3,1.1c0.5,0.5,0.9,1,1.2,1.3l-1.3,1.7c-0.2,0.3-0.3,0.7-0.1,1.1c0.4,0.9,0.3,0.4,0.7,1.4
			c0.1,0.4,0.4,0.7,0.9,0.7l2.2,0.3c0,0.4,0.1,1,0.1,1.7S44,15.2,44,15.6z"/>
		<path class="st2" d="M32.4,7.3c-3.7,0-6.6,2.9-6.6,6.6s2.9,6.6,6.6,6.6s6.6-2.9,6.6-6.6S36,7.3,32.4,7.3z M32.4,18.3
			c-2.5,0-4.6-2-4.6-4.6s2-4.6,4.6-4.6c2.6,0,4.6,2,4.6,4.6C36.8,16.4,34.9,18.3,32.4,18.3z"/>
	</g>
</g>
</svg>
