<?xml version="1.0" encoding="utf-8"?>
<!-- Generator: Adobe Illustrator 23.0.3, SVG Export Plug-In . SVG Version: 6.00 Build 0)  -->
<svg version="1.1" id="Layer_1" xmlns="http://www.w3.org/2000/svg" xmlns:xlink="http://www.w3.org/1999/xlink" x="0px" y="0px"
	 viewBox="0 0 48 48" style="enable-background:new 0 0 48 48;" xml:space="preserve">
<style type="text/css">
	.st0{fill:none;}
	.st1{fill:#90A4AE;}
	.st2{fill:#FFFFFF;}
	.st3{fill:#4FC3F7;}
</style>
<g>
	<g>
		<path class="st0" d="M42.2,9.5c0-0.1-0.1-0.2-0.1-0.3S42,9,41.8,8.7c-0.2-0.4-0.4-1.1-0.2-1.9c-0.2,0.1-0.5,0.1-0.8,0.1
			c-0.5,0-1-0.1-1.4-0.4l-0.1-0.1c-0.1-0.1-0.2-0.1-0.2-0.1l-0.4-0.1C38,5.9,37.4,5.5,37,4.9c-0.3,0.5-0.8,0.9-1.5,1.1
			c-0.2,0.1-0.3,0.1-0.4,0.2c-0.1,0.1-0.2,0.1-0.5,0.3c-0.4,0.2-0.8,0.3-1.3,0.3c-0.2,0-0.5,0-0.7-0.1c0.2,0.7,0,1.3,0,1.5l-0.1,0.5
			l-0.2,0.2c-0.1,0.2-0.1,0.3-0.2,0.5c0,0,0,0.1-0.1,0.1c-0.2,0.6-0.7,1.2-1.3,1.5c0.7,0.4,1.2,1,1.3,1.7l0.1,0.3l0.2,0.3
			c0.4,0.6,0.4,1.4,0.2,2.1c0.2-0.1,0.4-0.1,0.7-0.1s0.6,0,0.9,0.1h0.2l0.1,0.1c0.3,0.1,0.4,0.2,0.5,0.2s0.3,0.1,0.5,0.2
			c0.7,0.2,1.2,0.7,1.5,1.3c0.3-0.5,0.9-1.1,1.6-1.3h0.1l0.3-0.1l0.3-0.2c0.4-0.2,0.8-0.3,1.3-0.3c0.3,0,0.5,0,0.8,0.1
			c-0.2-0.6-0.1-1.3,0.2-1.9c0.1-0.3,0.1-0.3,0.2-0.5l0.2-0.5c0.2-0.6,0.6-1.1,1.2-1.4C42.8,10.7,42.4,10.2,42.2,9.5z"/>
		<path class="st1" d="M36.9,24.2c-1.3,0-2.3-0.2-2.7-0.3c-0.2,0-0.4-0.1-0.6-0.2c-1.6,0.2-3.3,0.4-5.2,0.5c-0.5,0-1,0-1.5,0
			s-1,0-1.5,0c-4.3-0.1-7.6-0.7-10-1.6c-0.8-0.3-1.6-0.6-2.2-0.9l4.4,4.3c0.5,0.4,0.7,1,0.8,1.7v1.4c2.4,0.5,5.2,0.8,8.5,0.8
			c7.2,0,12.7-1.6,14.3-3.3v-3.8c-0.4,0.4-0.9,0.8-1.5,0.9C39.8,23.9,38.7,24.2,36.9,24.2z"/>
		<path class="st1" d="M25.9,18.3c-0.4-0.5-0.5-1.1-0.6-1.6c-5.1-0.2-10.2-1.1-12.8-2.8v5.3c1.5,1.6,6.3,3,12.8,3.2
			c0.1,0,0.1,0,0.2,0c0.2,0,0.3,0,0.5,0c0.3,0,0.5,0,0.8,0s0.5,0,0.8,0c0.2,0,0.3,0,0.5,0c0.1,0,0.1,0,0.2,0c0.6,0,1.1-0.1,1.7-0.1
			c-0.5-0.2-1.3-0.7-2.4-1.9C26.7,19.4,26.2,18.7,25.9,18.3z"/>
		<path class="st1" d="M23.7,11c0-1.3,0.2-2.2,0.3-2.6l0,0V8.2c0.2-0.8,0.7-1.5,1.5-1.8c-0.1-0.3-0.1-0.6-0.1-1
			c-7.7,0.2-12.1,2.4-12.8,4.8c-0.1,0.1-0.1,0.2-0.1,0.3v1.3c1.4,1.5,5.9,2.9,12,3.2c-0.2-0.3-0.4-0.6-0.5-1
			C24,13.8,23.7,12.8,23.7,11z"/>
		<path class="st1" d="M12.6,33.4c0,0.1,0,0.2,0.1,0.3c0.1,0.4,0.3,0.8,0.6,1.1v-4.4h-0.7C12.6,30.4,12.6,33.4,12.6,33.4z"/>
		<path class="st1" d="M18.5,31v6.5c2.4,0.6,5.3,1,8.5,1c7.5,0,13.6-2.1,14.3-4.9c0-0.1,0.1-0.2,0.1-0.3v-4.7c-2.3,1.7-7.2,3-14.3,3
			C23.6,31.7,20.8,31.4,18.5,31z"/>
	</g>
	<g>
		<path class="st2" d="M44.7,8.6c-0.3-0.1-0.2,0.2-0.3-0.1c-0.3-0.8,0.1-0.3-0.2-1c-0.2-0.3,0.2-0.1,0.3-0.4l0.8-1.7
			C45,5.1,44.4,4.5,44,4.2c-0.4-0.4-1-0.7-1.3-0.9L41,4.5c-0.3,0.2,0,0-0.3-0.2C40,4,40.7,4.3,40,4c-0.3-0.1-0.7-0.2-0.8-0.5
			l-0.3-2.4c-0.3-0.1-1.8,0-2.4,0c-0.6,0-1,0-1.4,0.1l-0.2,2.1l0.5,0.2c0,0.3-0.3-0.3-0.5-0.2c-0.7,0.3-0.5,0.2-1.1,0.5
			c-0.3,0.2-0.6,0.1-0.9-0.1l-1.1-0.8c0.3-1-1.4,0.8-1.7,1.1c-0.4,0.4-0.9,0.9-1.1,1.2l1,1.5c0.2,0.3,0.2-0.3,0,0
			c-0.1,0.3-0.3,1.1-0.3,1.1c0,0.1,0.2-0.3,0,0c-0.1,0.3,0.1,0.6-0.1,0.6l-1.7,0.3c-0.5,0.2-0.5,1.7-0.5,2.3s-0.1,1,0,1.3l2.2,1.3
			c0.3,0-0.4,0.3-0.3,0.5c0.3,0.7,0.1,0.5,0.4,1.1c0.1,0.3,0.2-0.3,0-0.1l-1,1.4c0.3,0.3,1.1,1,1.6,1.4s1,0.8,1.2,1l1.8-1
			c0.3-0.2-0.2-0.2,0.2,0c0.7,0.3,0.3-0.2,1,0c0.3,0.1,0.3,1.1,0.3,1.3l0.8,1.9c0.3,0,0.8,0.1,1.4,0.1s1.9-0.9,2.3-1l0.3-0.9
			c0-0.3-0.2-1,0.2-1.1c0.8-0.3,0,0,0.7-0.3c0.3-0.1,0.5-0.2,0.7,0l1.6,1c0.3-0.3,1-0.6,1.5-1c0.4-0.4,1-1.4,1.2-1.7L44.6,15
			c-0.2-0.3-0.3-0.2-0.1-0.4c0.3-0.7,0,0,0.2-0.7c0.1-0.3-0.2-0.4,0.1-0.4l0.5-0.1l1.9-0.5c0-0.3,0-1.1,0-1.7c0-0.6,0.1-1.8,0-2.1
			L44.7,8.6z M37.1,16.4c-3,0-5.3-2.3-5.3-5.3s2.3-5.3,5.3-5.3s5.3,2.3,5.3,5.3S40,16.4,37.1,16.4z"/>
		<path class="st3" d="M47.9,8.8c-0.1-0.3-0.3-0.5-0.7-0.6l-1.8-0.3c-0.1-0.3,0-0.1-0.2-0.3l1.1-1.5c0.3-0.3,0.3-0.7,0-1
			c0-0.1-0.4-0.8-1.5-1.8c-1-1-1.7-1.6-1.8-1.6c-0.3-0.2-0.7-0.2-1,0.1L40.6,3c-0.3-0.2-0.2-0.1-0.4-0.2L39.9,1
			c0-0.3-0.3-0.6-0.6-0.7c0,0-0.9-0.3-2.3-0.3s-2.3,0.3-2.3,0.3c-0.4,0-0.6,0.3-0.7,0.7l-0.3,1.7v0.1c-0.3,0.1-0.1,0.1-0.4,0.2
			l-1.5-1.1c-0.3-0.3-0.7-0.3-1-0.1c0,0-0.8,0.5-1.8,1.5S27.5,5,27.5,5.1c-0.2,0.3-0.2,0.7,0,1l1.1,1.5c-0.1,0.3-0.1,0.2-0.2,0.4
			l-1.8,0.3c-0.3,0.1-0.6,0.3-0.7,0.6c0,0.1-0.3,0.9-0.3,2.3s0.3,2.3,0.3,2.3c0.1,0.3,0.3,0.5,0.7,0.6l1.8,0.3
			c0.1,0.3,0,0.1,0.2,0.4l-1.1,1.5c-0.3,0.3-0.3,0.7,0,1c0,0,0.4,0.8,1.5,1.8c1,1,1.7,1.5,1.8,1.5c0.3,0.2,0.7,0.2,1,0l1.5-1.1
			c0.3,0.1,0.2,0.1,0.4,0.2l0.3,1.8c0,0.1,0,0.2,0.1,0.2c0.1,0.3,0.3,0.4,0.5,0.4c0,0,0.9,0.3,2.3,0.3s2.3-0.3,2.3-0.3
			c0.3-0.1,0.6-0.3,0.6-0.7l0.2-1l0.1-0.8c0.3-0.1,0.2,0,0.4-0.2l0.7,0.5l0.8,0.6c0.3,0.3,0.7,0.3,1,0c0,0,0.8-0.4,1.8-1.5
			c1-1,1.5-1.7,1.5-1.8c0.2-0.3,0.2-0.7,0-1l-1.1-1.5c0.2-0.3,0.1-0.1,0.2-0.4l1.8-0.3c0.3,0,0.6-0.3,0.7-0.6c0,0,0.3-0.9,0.3-2.3
			S47.9,8.8,47.9,8.8z M46.4,12.5l-1.5,0.2h-0.3c-0.3,0-0.6,0.3-0.7,0.5c-0.3,0.7-0.2,0.5-0.4,1.1c-0.2,0.3-0.1,0.7,0.1,0.9l1,1.3
			c-0.3,0.3-0.5,0.7-1,1c-0.4,0.4-0.8,0.7-1,1l-1.4-1c-0.3-0.2-0.6-0.3-0.9-0.1c-0.7,0.3-0.4,0.3-1.1,0.4c-0.3,0.1-0.5,0.4-0.6,0.7
			l-0.3,1.7c-0.3,0-0.8,0.1-1.4,0.1s-1,0-1.4-0.1l-0.3-1.7c0-0.3-0.3-0.6-0.5-0.7c-0.7-0.3-0.5-0.2-1.1-0.4
			c-0.3-0.1-0.6-0.1-0.9,0.1l-1.4,1c-0.3-0.3-0.7-0.5-1-1c-0.4-0.4-0.7-0.8-0.9-1l1-1.4c0.2-0.3,0.3-0.6,0.1-0.9
			c-0.3-0.7-0.3-0.4-0.4-1.1c-0.1-0.3-0.4-0.5-0.7-0.5l-1.7-0.3c0-0.3-0.1-0.8-0.1-1.4s0-1,0.1-1.4l1.7-0.3c0.3-0.1,0.6-0.3,0.7-0.5
			s0.3-0.5,0.3-0.6c0,0,0.1-0.3,0.3-0.5c0.1-0.3,0.1-0.6-0.1-0.9l-1-1.4c0.3-0.3,0.4-0.7,0.9-1c0.4-0.4,0.8-0.7,1-0.9l1.4,1
			c0.3,0.2,0.5,0.3,0.9,0.1c0.7-0.3,0.4-0.3,1.1-0.5c0.3-0.1,0.5-0.3,0.5-0.7l0,0l0.2-1.7C36,1.7,36.4,1.7,37,1.7s1,0.1,1.4,0.1
			l0.3,1.7c0,0.3,0.3,0.6,0.6,0.7c0.7,0.3,0.5,0.2,1.1,0.5c0.3,0.2,0.7,0.1,0.9-0.1l1.4-1c0.3,0.3,0.6,0.5,1,0.9s0.7,0.8,1,1l-1,1.4
			c-0.2,0.3-0.3,0.5-0.1,0.9c0.3,0.7,0.3,0.3,0.5,1.1c0.1,0.3,0.3,0.5,0.7,0.5l1.7,0.3c0,0.3,0.1,0.8,0.1,1.4S46.4,12.2,46.4,12.5z"
			/>
		<path class="st3" d="M37.1,5.8c-3,0-5.3,2.3-5.3,5.3s2.3,5.3,5.3,5.3s5.3-2.3,5.3-5.3S40,5.8,37.1,5.8z M37.1,14.7
			c-2,0-3.7-1.6-3.7-3.7s1.6-3.7,3.7-3.7S40.8,9,40.8,11C40.7,13.1,39.1,14.7,37.1,14.7z"/>
	</g>
</g>
<path class="st2" d="M5.7,39.4v-6.9h6v6.9h3.5v-11h-3.7c-0.7,0-1.3-0.6-1.3-1.3v-3.6H1.1v19.2h2.5l-2.7-3.3
	C0.9,39.4,5.7,39.4,5.7,39.4z"/>
<path class="st2" d="M11.5,27.1c0,0.1,0.1,0.1,0.1,0.1h2.9l-3.1-3v2.9H11.5z"/>
<path class="st1" d="M16.3,27.4l-5-4.9c-0.1-0.1-0.2-0.2-0.4-0.2H1.2c-0.6,0-1.1,0.5-1.1,1.1v19.3c0,0.6,0.5,1.1,1.1,1.1h3.3
	l-0.8-1.1H1.1V23.5h9.1v3.6c0,0.7,0.6,1.3,1.3,1.3h3.7V40l0,0l0,0v2.6h-1.4c-0.1,0.1-0.7,0.8-0.9,1.1h2.3c0.6,0,1.1-0.5,1.1-1.1
	v-1.8c0-0.2,0-0.5,0-0.7s0-0.4,0-0.5V27.8l0,0C16.5,27.7,16.4,27.5,16.3,27.4z M11.6,27.3c-0.1,0-0.1-0.1-0.1-0.1v-2.9l3.1,3H11.6z"
	/>
<path class="st3" d="M10.5,40.7v-6.9H7v6.9H3.4l1.2,1.6c0.1,0.1,0.2,0.2,0.3,0.4l3.8,5l5.3-7H10.5L10.5,40.7L10.5,40.7z"/>
</svg>
