<?xml version="1.0" encoding="utf-8"?>
<!-- Generator: Adobe Illustrator 23.0.1, SVG Export Plug-In . SVG Version: 6.00 Build 0)  -->
<svg version="1.1" id="Layer_1" xmlns="http://www.w3.org/2000/svg" xmlns:xlink="http://www.w3.org/1999/xlink" x="0px" y="0px"
	 viewBox="0 0 512 512" style="enable-background:new 0 0 512 512;" xml:space="preserve">
<style type="text/css">
	.st0{fill:#5B6163;}
	.st1{fill:none;}
	.st2{fill:#0082C1;}
</style>
<g>
	<path class="st0" d="M244.2,311.4c0.1,0.2,0.1,0.3,0.2,0.5c0.4,0.9,0.7,1.8,1.5,2.4c0.6,0.4,1.3,0.5,1.9,0.7
		c0.1-0.1,0.1-0.2,0.3-0.3C246.8,313.6,245.5,312.5,244.2,311.4z"/>
	<path class="st0" d="M229.1,250.1c-6.2,0.2-12.4,0.3-18.6,0.3c-6.2,0-12.4-0.1-18.7-0.3c-52.4-1.4-94.2-8.8-124.2-19.4
		c-14.1-4.8-26.2-10.4-35.6-16.8V281c20.3,21.2,88.5,40.8,178.5,40.8c7.4,0,14.6-0.1,21.7-0.4c-0.5-1-0.9-1.9-1.8-2.9
		c0-0.1-0.1-0.1-0.1-0.2c-0.2-0.1-0.4-0.3-0.6-0.5c-7.3-7.3-10.4-18.7-4.5-27.8c0.8-3,2.8-6,6.8-11s4.8-6.4,7-9c2.9-3.4,3-3,5.6-5.2
		c2.4-2,6.4-4.8,9.4-6.8c-0.1,0-1.9,1.3-1.8,1.4c1.7-1.7,3.5-2.4,5.6-3.7c1.8-1.1,2.5-1.8,4.2-2.7c4-2,2-1,4.2-2.5
		c1.5-1,3-1.6,4.4-2.6c0.2-0.2,0.4-0.3,0.6-0.4C258,248.8,244,249.7,229.1,250.1z"/>
	<path class="st0" d="M369.5,227.9c3.4,0.2,4.4,0.1,7.5,1.1c0.2-0.2,6.9,2,7,2c4,2,5,2,5,5l0-22.1c-7.8,5.3-17.5,10.1-28.7,14.3
		C363.4,228.1,366.4,227.7,369.5,227.9z"/>
	<path class="st0" d="M32.1,120.3V171v3.6v3.6v9.2c18.8,19.7,78.8,37.9,159.1,40.5c0.8,0,1.7,0,2.5,0.1c2.3,0.1,4.6,0.1,7,0.2
		c3.3,0.1,6.6,0.1,9.9,0.1c3.3,0,6.6,0,9.9-0.1c2.4,0,4.7-0.1,7-0.2c0.8,0,1.7,0,2.5-0.1c80.3-2.6,140.2-20.8,159.1-40.5v-9.2v-3.6
		V171v-50.8c-34.7,23.9-108.2,36.5-178.5,36.5S66.8,144.1,32.1,120.3z"/>
	<path class="st0" d="M388,75c-8-30.7-69.6-61-177.5-61C102.9,14,41.4,44.1,33.1,74.7c-0.6,1-1,2.2-1,3.5v3.6v12.9
		c20.3,21.1,87.9,40.6,178.5,40.6S368.7,115.8,389,94.7V81.8v-3.6C389,77,388.6,76,388,75z"/>
	<path class="st0" d="M225.4,415.3c-3.7-0.1-8.6-1.7-11.3-3.6c-0.4-0.2-0.9-0.4-1.2-0.7c-2-2-1-1-3-4c-0.1-0.2-0.9-1.8-1-2
		c-0.2-0.3-0.5-1.8-0.8-2.1c0-0.1-0.2-0.9-0.2-0.9c-0.1-0.4-1-2.6-1-3c-1.4-5.8-3-13-2-8c0.8,4-6.5-29.5,1.9-47.2
		c-86.2-0.4-145.7-16.6-174.8-37.1v58.5c0,1.2,0.3,2.2,0.8,3.2c8.4,34.9,83.9,61,177.6,61c3.5,0,6.9-0.1,10.3-0.2
		c0.2-1.6,0.7-3.1,1.3-4.7c0.7-2,0.8-2.6,1.8-4.6c0,0,1.1-1.6,1.2-1.6c-0.1-0.1-0.1-0.1-0.1-0.2c0.4-0.8,2.3-2.6,2.9-3.3
		C227.6,414.8,225.9,415.6,225.4,415.3z"/>
</g>
<g>
	<path class="st0" d="M349.9,389.8c12,0,22-10,22-22c0-12-10-22-22-22s-22,10-22,22C326.9,379.8,336.9,389.8,349.9,389.8z"/>
	<g>
		<path class="st1" d="M349.9,325.7c-23,0-42.1,18-42.1,42.1c0,24,18,42.1,42.1,42.1s42.1-18,42.1-42.1
			C391,344.7,372.9,325.7,349.9,325.7z"/>
		<path class="st1" d="M437.1,348.7c-3-1-7-3-8-6c-3-9-2-5-6-13c-2-4-1-7,1-10l13-16c-3-3-6-8-11-12c-5-5-9-8-12-10l-16,12
			c-3,2-7,3-10,1c-8-3-5-3-13-6c-3-1-6-4-7-8l-3-20c-3-1-9-1-16-1s-12,0-16,1l-2,19v1c0,3-3,7-6,8c-8,3-6,2-13,6c-4,2-7,1-10-1
			l-16-12c-3,3-8,6-12,10c-5,5-8,9-10,12l12,16c2,3,3,6,1,10c-1,3-3,6-3,6c0,1-1,4-3,7c-1,4-5,6-8,6l-20,3c0,4-1,9-1,16s0,12,1,16
			l20,3c4,0,7,3,8,6c3,8,1,6,5,13c1,4,1,8-1,10l-12,16c3,3,5,7,10,12s9,8,12,11l16-12c3-2,6-3,10-1c8,4,5,3,13,5c4,1,6,5,6,8l3,20
			c4,0,9,1,16,1s12,0,16-1l3-20c0-4,3-7,7-8c9-3,5-1,13-5c3-1,8-1,10,1l16,12c3-3,7-6,12-11s8-9,11-12l-12-15c-2-3-3-7-1-10
			c3-8,3-5,5-13c1-4,5-6,8-6h3l17-2c0-4,1-9,1-16s0-12-1-16L437.1,348.7z M349.9,428.9c-34.1,0-61.1-27.1-61.1-61.1
			s27.1-61.1,61.1-61.1s61.1,27.1,61.1,61.1S383,428.9,349.9,428.9z"/>
		<path class="st2" d="M474.1,340.7c-1-4-4-6-8-7l-21-3c-1-3,0-1-2-4l13-17c3-3,3-8,0-11c0-1-5-9-17-21c-12-12-20-18-21-18
			c-3-2-8-2-11,1l-17,13c-3-2-2-1-5-2l-3-21c0-4-3-7-7-8c0,0-10-3-27.1-3s-27.1,3-27.1,3c-4,1-6,4-7,8l-3,19v1c-3,1-1,1-5,2l-17-13
			c-3-3-8-3-11-1c0,0-9,6-21,17c-12,12-17,20-17,21c-2,3-2,8,0,11l13,17c-1,3-1,2-2,5l-21,3c-4,1-7,3-8,7c0,1-3,10-3,27.1
			c0,17,3,27.1,3,27.1c1,4,4,6,8,7l21,3c1,3,0,1,2,5l-13,17c-3,3-3,8,0,11c0,0,5,9,17,21c12,12,20,17,21,17c4,2,8,2,11,0l17-13
			c3,1,2,1,5,2l3,21c0,1,0,2,1,2c1,3,3,5,6,5c0,0,10,3,27.1,3s27.1-3,27.1-3c4-1,7-4,7-8l2-12l1-9c3-1,2,0,5-2l8,6l9,7c3,3,8,3,11,0
			c0,0,9-5,21-17c12-12,17-20,17-21c2-4,2-8,0-11l-13-17c2-3,1-1,2-5l21-3c4,0,7-3,8-7c0,0,3-10,3-27.1S474.1,340.7,474.1,340.7z
			 M457.1,383.8l-17,2h-3c-3,0-7,3-8,6c-3,8-2,6-5,13c-2,4-1,8,1,10l12,15c-3,3-6,8-11,12c-5,5-9,8-12,11l-16-12c-3-2-7-3-10-1
			c-8,4-5,3-13,5c-3,1-6,5-7,8l-3,20c-4,0-9,1-16,1s-12,0-16-1l-3-20c0-4-3-7-6-8c-8-3-6-2-13-5c-4-1-7-1-10,1l-16,12
			c-3-3-8-6-12-11c-5-5-8-9-10-12l12-16c2-3,3-7,1-10c-4-8-3-5-5-13c-1-4-5-6-8-6l-20-3c0-4-1-9-1-16s0-12,1-16l20-3c4-1,7-3,8-6
			c1-3,3-6,3-7c0,0,1-4,3-6c1-4,1-7-1-10l-12-16c3-3,5-8,10-12c5-5,9-8,12-10l16,12c3,2,6,3,10,1c8-4,5-3,13-6c4-1,6-4,6-8v-1l2-19
			c4,1,9,1,16,1s12,1,16,1l3,20c0,3,3,7,7,8c8,3,6,2,13,6c3,2,8,1,10-1l16-12c3,3,7,6,12,10c5,5,8,9,11,12l-12,16c-2,3-3,6-1,10
			c4,8,3,4,6,13c1,4,4,6,8,6l20,3c0,4,1,9,1,16S457.1,379.8,457.1,383.8z"/>
		<path class="st2" d="M349.9,306.6c-34.1,0-61.1,27.1-61.1,61.1s27.1,61.1,61.1,61.1s61.1-27.1,61.1-61.1S383,306.6,349.9,306.6z
			 M349.9,408.8c-23,0-42.1-18-42.1-42.1c0-24,18-42.1,42.1-42.1s42.1,18,42.1,42.1C391,390.8,372.9,408.8,349.9,408.8z"/>
	</g>
</g>
</svg>
