<?xml version="1.0" encoding="utf-8"?>
<!-- Generator: Adobe Illustrator 23.0.3, SVG Export Plug-In . SVG Version: 6.00 Build 0)  -->
<svg version="1.1" id="Layer_1" xmlns="http://www.w3.org/2000/svg" xmlns:xlink="http://www.w3.org/1999/xlink" x="0px" y="0px"
	 viewBox="0 0 48 48" style="enable-background:new 0 0 48 48;" xml:space="preserve">
<style type="text/css">
	.st0{fill:#90A4AE;}
	.st1{fill:#FFFFFF;}
	.st2{fill:#4FC3F7;}
</style>
<g>
	<g>
		<path class="st0" d="M26.8,30c7.2,0,12.7-1.6,14.3-3.3V23c-0.4,0.4-0.9,0.8-1.5,0.9c0.1,0.2-1,0.5-2.8,0.5c-1.3,0-2.3-0.2-2.7-0.3
			c-0.2,0-0.4-0.1-0.6-0.2c-1.6,0.2-3.3,0.4-5.2,0.5c-0.5,0-1,0-1.5,0s-1,0-1.5,0c-4.3-0.1-7.6-0.7-10-1.6c-0.8-0.3-1.6-0.6-2.2-0.9
			l4.4,4.3c0.5,0.4,0.7,1,0.8,1.7v1.4C20.7,29.8,23.5,30,26.8,30z"/>
		<path class="st0" d="M25.3,22.5c0.2,0,0.3,0,0.5,0c0.3,0,0.5,0,0.8,0c0.3,0,0.5,0,0.8,0c0.2,0,0.3,0,0.5,0c0.1,0,0.1,0,0.2,0
			c0.6,0,1.1-0.1,1.7-0.1c-0.5-0.2-1.3-0.7-2.4-1.9c-0.9-1-1.4-1.7-1.7-2.1c-0.4-0.5-0.5-1.1-0.6-1.6C20,16.7,15,15.8,12.3,14v5.3
			c1.5,1.6,6.3,3,12.8,3.2C25.3,22.5,25.3,22.5,25.3,22.5z"/>
		<path class="st0" d="M23.8,14.2c0-0.2-0.3-1.2-0.3-3c0-1.3,0.2-2.2,0.3-2.6V8.3c0.2-0.8,0.7-1.5,1.5-1.8c-0.1-0.3-0.1-0.6-0.1-1
			C17.5,5.8,13.2,8,12.5,10.3c-0.1,0.1-0.1,0.2-0.1,0.3V12c1.4,1.5,5.9,2.9,12,3.2C24.2,14.8,24,14.5,23.8,14.2z"/>
		<path class="st0" d="M12.5,33.5c0,0.1,0,0.2,0.1,0.3c0.1,0.4,0.3,0.8,0.6,1.1v-4.4h-0.7V33.5z"/>
		<path class="st0" d="M41.3,30.1v-1.3c-0.6,0.4-1.3,0.8-2.2,1.2c0.1,0,0.2,0,0.3,0C40,29.9,40.7,30,41.3,30.1z"/>
		<path class="st0" d="M34.6,31.1c-2.2,0.4-4.7,0.6-7.7,0.6c-3.5,0.1-6.3-0.2-8.6-0.6v6.5c2.4,0.6,5.3,1,8.5,1c1,0,1.9,0,2.8-0.1
			C30,35.4,31.9,32.6,34.6,31.1z"/>
	</g>
	<g>
		<path class="st1" d="M44.6,8.8c-0.3-0.1-0.2,0.2-0.3-0.1c-0.3-0.8,0.1-0.3-0.2-1c-0.2-0.3,0.2-0.1,0.3-0.4l0.8-1.7
			c-0.3-0.3-0.9-0.9-1.3-1.2c-0.4-0.4-1-0.7-1.3-0.9l-1.7,1.2c-0.3,0.2,0,0-0.3-0.2c-0.7-0.3,0,0-0.7-0.3c-0.3-0.1-0.7-0.2-0.8-0.5
			l-0.3-2.4c-0.3-0.1-1.8,0-2.4,0c-0.6,0-1,0-1.4,0.1l-0.2,2.1l0.5,0.2c0,0.3-0.3-0.3-0.5-0.2c-0.7,0.3-0.5,0.2-1.1,0.5
			c-0.3,0.2-0.6,0.1-0.9-0.1L31.6,3c0.3-1-1.4,0.8-1.7,1.1C29.5,4.5,29,5,28.8,5.3l1,1.5c0.2,0.3,0.2-0.3,0,0
			c-0.1,0.3-0.3,1.1-0.3,1.1c0,0.1,0.2-0.3,0,0c-0.1,0.3,0.1,0.6-0.1,0.6l-1.7,0.3c-0.5,0.2-0.5,1.7-0.5,2.3s-0.1,1,0,1.3l2.2,0.3
			c0.3,0,0.6,0.3,0.7,0.5c0.3,0.7,0.1,0.5,0.4,1.1c0.1,0.3-0.8,0.7-1,0.9l-1,1.4c0.3,0.3,1.1,1,1.6,1.4s1,0.8,1.2,1l1.8-1
			c0.3-0.2-0.2-0.2,0.2,0c0.7,0.3,0.3-0.2,1,0c0.3,0.1,0.3,1.1,0.3,1.3l0.8,1.9c0.3,0,0.8,0.1,1.4,0.1s1.9-0.9,2.3-1l0.3-0.9
			c0-0.3-0.2-1,0.2-1.1c0.8-0.3,0,0,0.7-0.3c0.3-0.1,0.5-0.2,0.7,0l1.6,1c0.3-0.3,1-0.6,1.5-1c0.4-0.4,1-1.4,1.2-1.7l-0.9-1.2
			c-0.2-0.3-0.3-0.2-0.1-0.4c0.3-0.7,0,0,0.2-0.7c0.1-0.3-0.2-0.4,0.1-0.4l0.5-0.1l1.9-0.5c0-0.3,0-1.1,0-1.7c0-0.6,0.1-1.8,0-2.1
			L44.6,8.8z M37,16.5c-3,0-5.3-2.3-5.3-5.3S34,5.9,37,5.9s5.3,2.3,5.3,5.3S39.9,16.5,37,16.5z"/>
		<path class="st2" d="M47.8,8.9c-0.1-0.3-0.3-0.5-0.7-0.6L45.3,8c-0.1-0.3,0-0.1-0.2-0.3l1.1-1.5c0.3-0.3,0.3-0.7,0-1
			c0-0.1-0.4-0.8-1.5-1.8c-1-1-1.7-1.6-1.8-1.6c-0.3-0.2-0.7-0.2-1,0.1l-1.4,1.2C40.2,2.9,40.3,3,40,2.9l-0.3-1.8
			c0-0.3-0.3-0.6-0.6-0.7c0,0-0.9-0.3-2.3-0.3s-2.3,0.3-2.3,0.3c-0.4,0-0.6,0.3-0.7,0.7l-0.3,1.7v0.1C33.3,3,33.5,3,33.2,3.1L31.7,2
			c-0.3-0.3-0.7-0.3-1-0.1c0,0-0.8,0.5-1.8,1.5s-1.5,1.7-1.5,1.8c-0.2,0.3-0.2,0.7,0,1l1.1,1.5c-0.1,0.3-0.1,0.2-0.2,0.4l-1.8,0.3
			c-0.3,0.1-0.6,0.3-0.7,0.6c0,0.1-0.3,0.9-0.3,2.3s0.3,2.3,0.3,2.3c0.1,0.3,0.3,0.5,0.7,0.6l1.8,0.3c0.1,0.3,0,0.1,0.2,0.4
			l-1.1,1.5c-0.3,0.3-0.3,0.7,0,1c0,0,0.4,0.8,1.5,1.8c1,1,1.7,1.5,1.8,1.5c0.3,0.2,0.7,0.2,1,0l1.5-1.1c0.3,0.1,0.2,0.1,0.4,0.2
			l0.3,1.8c0,0.1,0,0.2,0.1,0.2c0.1,0.3,0.3,0.4,0.5,0.4c0,0,0.9,0.3,2.3,0.3s2.3-0.3,2.3-0.3c0.3-0.1,0.6-0.3,0.6-0.7l0.2-1
			l0.1-0.8c0.3-0.1,0.2,0,0.4-0.2L41,20l0.8,0.6c0.3,0.3,0.7,0.3,1,0c0,0,0.8-0.4,1.8-1.5c1-1,1.5-1.7,1.5-1.8c0.2-0.3,0.2-0.7,0-1
			L45,14.9c0.2-0.3,0.1-0.1,0.2-0.4l1.8-0.3c0.3,0,0.6-0.3,0.7-0.6c0,0,0.3-0.9,0.3-2.3S47.8,8.9,47.8,8.9z M46.3,12.6l-1.5,0.2
			h-0.3c-0.3,0-0.6,0.3-0.7,0.5c-0.3,0.7-0.2,0.5-0.4,1.1c-0.2,0.3-0.1,0.7,0.1,0.9l1,1.3c-0.3,0.3-0.5,0.7-1,1
			c-0.4,0.4-0.8,0.7-1,1l-1.4-1c-0.3-0.2-0.6-0.3-0.9-0.1c-0.7,0.3-0.4,0.3-1.1,0.4c-0.3,0.1-0.5,0.4-0.6,0.7l-0.3,1.7
			c-0.3,0-0.8,0.1-1.4,0.1s-1,0-1.4-0.1L35,18.6c0-0.3-0.3-0.6-0.5-0.7c-0.7-0.3-0.5-0.2-1.1-0.4c-0.3-0.1-0.6-0.1-0.9,0.1l-1.4,1
			c-0.3-0.3-0.7-0.5-1-1c-0.4-0.4-0.7-0.8-0.9-1l1-1.4c0.2-0.3,0.3-0.6,0.1-0.9c-0.3-0.7-0.3-0.4-0.4-1.1c-0.1-0.3-0.4-0.5-0.7-0.5
			l-1.7-0.3c0-0.3-0.1-0.8-0.1-1.4s0-1,0.1-1.4l1.7-0.3c0.3-0.1,0.6-0.3,0.7-0.5s0.3-0.5,0.3-0.6c0,0,0.1-0.3,0.3-0.5
			c0.1-0.3,0.1-0.6-0.1-0.9l-1-1.4c0.3-0.3,0.4-0.7,0.9-1c0.4-0.4,0.8-0.7,1-0.9l1.4,1c0.3,0.2,0.5,0.3,0.9,0.1
			c0.7-0.3,0.4-0.3,1.1-0.5C35,4,35.3,3.8,35.3,3.4l0,0l0.2-1.7c0.4,0.1,0.8,0.1,1.4,0.1s1,0.1,1.4,0.1l0.3,1.7
			c0,0.3,0.3,0.6,0.6,0.7c0.7,0.3,0.5,0.2,1.1,0.5C40.5,5,41,4.9,41.2,4.7l1.4-1c0.3,0.3,0.6,0.5,1,0.9s0.7,0.8,1,1l-1,1.4
			c-0.2,0.3-0.3,0.5-0.1,0.9c0.3,0.7,0.3,0.3,0.5,1.1c0.1,0.3,0.3,0.5,0.7,0.5l1.7,0.3c0,0.3,0.1,0.8,0.1,1.4S46.3,12.3,46.3,12.6z"
			/>
		<path class="st2" d="M37,5.9c-3,0-5.3,2.3-5.3,5.3s2.3,5.3,5.3,5.3s5.3-2.3,5.3-5.3S39.9,5.9,37,5.9z M37,14.8
			c-2,0-3.7-1.6-3.7-3.7s1.6-3.7,3.7-3.7s3.7,1.7,3.7,3.7C40.6,13.3,39,14.8,37,14.8z"/>
	</g>
</g>
<g>
	<path class="st1" d="M3.4,38.3L3.4,38.3L3.6,38l5-6.6l6.5,8.6V28.5h-3.7c-0.7,0-1.3-0.6-1.3-1.3v-3.6H1v17.9L3.4,38.3L3.4,38.3z"/>
	<g>
		<polygon class="st1" points="15.1,42.4 11.9,42.4 11.9,42.8 15.1,42.8 		"/>
	</g>
	<polygon class="st1" points="1,42.4 1,42.8 3.5,42.8 5.4,42.8 5.4,42.4 	"/>
	<path class="st1" d="M11.4,27.3c0,0.1,0.1,0.1,0.1,0.1h2.9l-3.1-3v2.9H11.4z"/>
	<path class="st0" d="M16.2,27.5l-5-4.9c-0.1-0.1-0.2-0.2-0.4-0.2H1.1c-0.6,0-1.1,0.5-1.1,1.1v19.3c0,0.6,0.5,1.1,1.1,1.1h3.8v-1.1
		H1V23.6h9.1v3.6c0,0.7,0.6,1.3,1.3,1.3h3.7v11.6l0,0l0,0v2.6h-2.7v1.1h2.7c0.6,0,1.1-0.5,1.1-1.1v-1.8c0-0.2,0-0.5,0-0.7
		c0-0.2,0-0.4,0-0.5V27.9l0,0C16.2,27.5,16.2,27.5,16.2,27.5z M11.5,27.4c-0.1,0-0.1-0.1-0.1-0.1v-2.9l3.1,3H11.5z"/>
</g>
<path class="st2" d="M10.4,40.9L10.4,40.9h3.5l-5.3-7l-3.8,5c-0.1,0.2-0.2,0.3-0.3,0.4l-1.2,1.6h3.6v6.9h3.5V40.9L10.4,40.9z"/>
<g>
	<path class="st1" d="M41.1,43.5h-0.7v-4.8c0-0.1-0.1-0.2-0.2-0.2h-2h-0.7c-0.1,0-0.2,0.1-0.2,0.2v0.4c0,0.1,0.1,0.2,0.2,0.2h0.7
		v4.1h-0.7c-0.1,0-0.2,0.1-0.2,0.2V44c0,0.1,0.1,0.2,0.2,0.2h0.7h2.3h0.7c0.1,0,0.2-0.1,0.2-0.2l-0.1-0.3
		C41.3,43.6,41.2,43.5,41.1,43.5z"/>
	<path class="st1" d="M40.6,36.3c0-0.7-0.5-1.2-1.2-1.2s-1.2,0.5-1.2,1.2s0.5,1.2,1.2,1.2S40.6,37,40.6,36.3z"/>
	<path class="st2" d="M39.4,31.9c-4.3,0-7.8,3.5-7.8,7.7s3.5,7.8,7.8,7.8s7.8-3.5,7.8-7.8S43.7,31.9,39.4,31.9z M41.2,44.2h-0.7
		h-2.3h-0.7c-0.1,0-0.2-0.1-0.2-0.2v-0.4c0-0.1,0.1-0.2,0.2-0.2h0.7v-4.1h-0.7c-0.1,0-0.2-0.1-0.2-0.2v-0.4c0-0.1,0.1-0.2,0.2-0.2
		h0.7h2c0.1,0,0.2,0.1,0.2,0.2v4.8h0.7c0.1,0,0.2,0.1,0.2,0.2l0.1,0.3C41.4,44.1,41.3,44.2,41.2,44.2z M38.2,36.3
		c0-0.7,0.5-1.2,1.2-1.2s1.2,0.5,1.2,1.2s-0.5,1.2-1.2,1.2S38.2,37,38.2,36.3z"/>
</g>
</svg>
