<?xml version="1.0" encoding="utf-8"?>
<!-- Generator: Adobe Illustrator 23.0.3, SVG Export Plug-In . SVG Version: 6.00 Build 0)  -->
<svg version="1.1" id="Layer_1" xmlns="http://www.w3.org/2000/svg" xmlns:xlink="http://www.w3.org/1999/xlink" x="0px" y="0px"
	 viewBox="0 0 48 48" style="enable-background:new 0 0 48 48;" xml:space="preserve">
<style type="text/css">
	.st0{fill:#90A4AE;}
	.st1{fill:#FFFFFF;}
</style>
<g>
	<g>
		<path class="st0" d="M25.5,36l10.8-13c0.5-0.6,0.6-1.5,0.3-2.3s-1.1-1.2-2-1.2h-6.5V2.2C28.2,0.9,27.3,0,26,0h-4.3
			c-1.2,0-2.2,0.9-2.2,2.2v17.3H13c-0.8,0-1.6,0.5-2,1.2c-0.1,0.3-0.2,0.6-0.2,0.9c0,0.5,0.2,1,0.5,1.4L22.2,36
			c0.4,0.5,1,0.8,1.6,0.8C24.5,36.8,25.1,36.5,25.5,36z"/>
	</g>
</g>
<path class="st0" d="M45.8,48H2.2c-1.1,0-2-0.9-2-2v-4.1c0-1.1,0.9-2,2-2h43.7c1.1,0,2,0.9,2,2V46C47.8,47.1,46.9,48,45.8,48z"/>
<path class="st1" d="M44.8,46h-3c-0.8,0-1.5-0.7-1.5-1.5v-1c0-0.8,0.7-1.5,1.5-1.5h3c0.8,0,1.5,0.7,1.5,1.5v1
	C46.3,45.3,45.5,46,44.8,46z"/>
</svg>
