<?xml version="1.0" encoding="utf-8"?>
<!-- Generator: Adobe Illustrator 23.0.1, SVG Export Plug-In . SVG Version: 6.00 Build 0)  -->
<svg version="1.1" id="Capa_1" xmlns="http://www.w3.org/2000/svg" xmlns:xlink="http://www.w3.org/1999/xlink" x="0px" y="0px"
	 viewBox="0 0 487.6 487.6" style="enable-background:new 0 0 487.6 487.6;" xml:space="preserve">
<style type="text/css">
	.st0{fill:#0082C1;}
</style>
<g>
	<path class="st0" d="M243.8,0C109.2,0,0,109.2,0,243.8c0,134.7,109.2,243.8,243.8,243.8c134.7,0,243.8-109.2,243.8-243.8
		C487.6,109.2,378.5,0,243.8,0z M243.8,103.6c20.4,0,37,16.6,37,37c0,20.4-16.6,37-37,37c-20.4,0-37-16.6-37-37
		C206.8,120.2,223.3,103.6,243.8,103.6z M307.3,381.2c0,3.7-3,6.7-6.7,6.7h-21.5h-70.7h-21.5c-3.7,0-6.7-3-6.7-6.7v-13.7
		c0-3.7,3-6.7,6.7-6.7h21.5V230.7h-22.2c-3.7,0-6.7-3-6.7-6.7v-13.7c0-3.7,3-6.7,6.7-6.7h22.2h64h0.2c3.7,0,6.7,3,6.7,6.7v150.5
		h21.3c3.7,0,6.7,3,6.7,6.7L307.3,381.2L307.3,381.2z"/>
</g>
</svg>
