<?xml version="1.0" encoding="utf-8"?>
<!-- Generator: Adobe Illustrator 23.0.3, SVG Export Plug-In . SVG Version: 6.00 Build 0)  -->
<svg version="1.1" id="Layer_1" xmlns="http://www.w3.org/2000/svg" xmlns:xlink="http://www.w3.org/1999/xlink" x="0px" y="0px"
	 viewBox="0 0 48 48" style="enable-background:new 0 0 48 48;" xml:space="preserve">
<style type="text/css">
	.st0{fill:#FFFFFF;}
	.st1{fill:#64B5F6;}
	.st2{fill:none;}
	.st3{fill:#90A4AE;}
</style>
<g>
	<g>
		<circle class="st0" cx="35.8" cy="36.3" r="10"/>
		<path class="st1" d="M35.8,24.7c-6.4,0-11.7,5.2-11.7,11.7S29.4,48,35.8,48s11.7-5.2,11.7-11.7S42.3,24.7,35.8,24.7z M35.8,45.5
			c-5.1,0-9.2-4.1-9.2-9.2s4.1-9.2,9.2-9.2s9.2,4.1,9.2,9.2S40.9,45.5,35.8,45.5z"/>
		<path class="st1" d="M41.9,36h-5.2v-6.3c0-0.5-0.4-1-1-1s-1,0.4-1,1V37c0,0.5,0.4,1,1,1h6.2c0.5,0,1-0.4,1-1S42.5,36,41.9,36z"/>
	</g>
</g>
<g>
	<g>
		<path class="st2" d="M35.6,28.9c-4.1,0-7.4,3.3-7.4,7.4s3.3,7.4,7.4,7.4s7.4-3.3,7.4-7.4S39.6,28.9,35.6,28.9z"/>
		<path class="st0" d="M35.2,22.2c0.3-1.8,0.5-3.8,0.5-5.8V1.7H14.2c-1.7,0-3.2,1.4-3.2,3.2v28.2h8c1.1,0,2.1-0.1,3.2-0.1
			C23.5,26.9,28.7,22.4,35.2,22.2z"/>
	</g>
	<path class="st3" d="M40.9,0.1H15.1c-3.3,0-5.9,2.6-5.9,5.6v26.6H0v6c0,3.1,2.7,5.5,5.9,5.5h18.2c-0.4-0.4-0.5-0.9-0.9-1.4
		c-0.2-0.3-0.4-0.7-0.6-1.1c-0.8-1.5-1.2-3.4-1.2-5.3c0-0.4,0-0.8,0.1-1.2c0-0.3,0.1-0.5,0.1-0.8c0.1-0.6,0.3-1.2,0.4-1.7H11.9V5.6
		c0-1.6,1.4-3,3.2-3h19.8c-0.6,0.8-0.9,1.8-0.9,3v17.1c0.8-0.2,2-0.2,2.8,0v-11h10.1V5.7C46.8,2.6,44.1,0.1,40.9,0.1z M36.8,9.1V9
		l0.1,0.1H36.8z M44,9.1h-0.1L44,9V9.1z"/>
</g>
</svg>
