<?xml version="1.0" encoding="utf-8"?>
<!-- Generator: Adobe Illustrator 23.0.3, SVG Export Plug-In . SVG Version: 6.00 Build 0)  -->
<svg version="1.1" id="Layer_1" xmlns="http://www.w3.org/2000/svg" xmlns:xlink="http://www.w3.org/1999/xlink" x="0px" y="0px"
	 viewBox="0 0 48 48" style="enable-background:new 0 0 48 48;" xml:space="preserve">
<style type="text/css">
	.st0{fill:#64B5F6;}
	.st1{fill:#90A4AE;}
</style>
<path class="st0" d="M28.5,31.6c-0.8,0-1.5,0.7-1.5,1.5v6c0,0.8-0.7,1.5-1.5,1.5H21V18.1c0-1.3-0.8-2.4-2-2.8l-0.4-0.1h7
	c0.8,0,1.5,0.7,1.5,1.5v4.5c0,0.8,0.7,1.5,1.5,1.5c0.8,0,1.5-0.7,1.5-1.5v-4.5c0-2.5-2-4.5-4.5-4.5H9.4c-0.1,0-0.1,0-0.2,0
	c-0.1,0-0.1,0-0.2,0c-1.6,0-3,1.3-3,3V42c0,1.3,0.8,2.4,2,2.8l9,3C17.4,48,17.7,48,18,48c1.6,0,3-1.3,3-3v-1.5h4.5
	c2.5,0,4.5-2,4.5-4.5v-6C30,32.2,29.3,31.6,28.5,31.6z"/>
<path class="st1" d="M41.5,6.4l-6-6c-0.4-0.4-1.1-0.6-1.6-0.3C33.3,0.3,33,0.9,33,1.5V6h-6c-0.8,0-1.5,0.7-1.5,1.5S26.2,9,27,9h6
	v4.5c0,0.6,0.4,1.1,0.9,1.4c0.6,0.2,1.2,0.1,1.6-0.3l6-6C42.1,7.9,42.1,7,41.5,6.4z"/>
</svg>
