<?xml version="1.0" encoding="utf-8"?>
<!-- Generator: Adobe Illustrator 23.0.3, SVG Export Plug-In . SVG Version: 6.00 Build 0)  -->
<svg version="1.1" id="Layer_1" xmlns="http://www.w3.org/2000/svg" xmlns:xlink="http://www.w3.org/1999/xlink" x="0px" y="0px"
	 viewBox="0 0 48 48" style="enable-background:new 0 0 48 48;" xml:space="preserve">
<style type="text/css">
	.st0{fill:#90A4AE;}
	.st1{fill:#FFFFFF;}
	.st2{fill:#4FC3F7;}
</style>
<g>
	<path class="st0" d="M24.2,43.7c-0.7-0.8-0.8-1.9-0.3-2.8c-0.8-0.3-1.3-1-1.6-1.8c0-0.1-0.4-1.3-0.4-3.1c0-1.3,0.2-2.3,0.3-2.7
		v-0.1l0.1-0.3c0.3-0.8,0.9-1.4,1.7-1.8c-0.3-0.8-0.3-1.8,0.1-2.5c0.1-0.2,0.3-0.5,0.6-0.9v-1.8c0.2-0.2,0.4-0.5,0.6-0.8
		c1-1.4,1.8-3,2.4-4.6c1.1-0.5,1.9-1.6,1.9-2.9v-3.2c0-0.8-0.3-1.5-0.8-2.1V8c0-0.4,0.2-3.1-1.7-5.2C25.3,0.9,22.6,0,19,0
		s-6.3,0.9-7.9,2.8C9.2,5,9.4,7.6,9.4,8v4.3c-0.5,0.6-0.8,1.3-0.8,2.1v3.2c0,1,0.4,1.9,1.2,2.5c0.7,2.9,2.3,5.1,2.8,5.8v2.7
		c0,0.8-0.4,1.5-1.1,1.9l-7.1,3.9C2,35.5,0.6,38,0.6,40.6v2.6C0.6,47,12.6,48,19,48c2.4,0,5.7-0.1,8.8-0.5c-0.4-0.3-1-0.8-1.8-1.6
		C25,45,24.4,44.1,24.2,43.7z"/>
</g>
<g>
	<path class="st1" d="M44.3,33.2c-0.3-0.1-0.2,0.2-0.3-0.1c-0.3-0.9,0.1-0.3-0.2-1.1c-0.2-0.3,0.2-0.1,0.3-0.4l0.9-1.8
		c-0.3-0.3-1-1-1.4-1.3c-0.4-0.4-1.1-0.8-1.4-1l-1.8,1.3c-0.3,0.2,0,0-0.3-0.2c-0.8-0.3,0,0-0.8-0.3c-0.3-0.1-0.8-0.2-0.9-0.5
		L38,25.2c-0.3-0.1-1.9,0-2.6,0s-1.1,0-1.5,0.1l-0.2,2.2l0.5,0.2c0,0.3-0.3-0.3-0.5-0.2c-0.8,0.3-0.5,0.2-1.2,0.5
		c-0.3,0.2-0.6,0.1-1-0.1l-1.2-0.9c0.3-1.1-1.5,0.9-1.8,1.2c-0.4,0.4-1,1-1.2,1.3l1.1,1.6c0.2,0.3,0.2-0.3,0,0
		c-0.1,0.3-0.3,1.2-0.3,1.2c0,0.1,0.2-0.3,0,0c-0.1,0.3,0.1,0.6-0.1,0.6l-1.8,0.3c-0.5,0.2-0.5,1.8-0.5,2.5c0,0.6-0.1,1.1,0,1.4
		l2.3,0.8c0.3,0,0.1,0,0.2,0.3c0.3,0.8,0.1,0.5,0.4,1.1c0.1,0.3-0.2,0.6-0.5,0.8l-1.1,1.5c0.3,0.3,1.2,1.1,1.7,1.5
		c0.5,0.4,1.1,0.9,1.3,1.1l1.9-1.1c0.3-0.2-0.2-0.2,0.2,0c0.8,0.3,0.3-0.2,1.1,0c0.3,0.1,0.3,1.2,0.3,1.4l0.9,2
		c0.3,0,0.9,0.1,1.5,0.1s2-1,2.5-1.1l0.3-1c0-0.3-0.2-1.1,0.2-1.2c0.9-0.3,0,0,0.8-0.3c0.3-0.1,0.5-0.2,0.8,0l1.7,1.1
		c0.3-0.3,1.1-0.6,1.6-1.1c0.4-0.4,1.1-1.5,1.3-1.8l-1-1.3c-0.2-0.3-0.3-0.2-0.1-0.4c0.3-0.8,0,0,0.2-0.8c0.1-0.3-0.2-0.4,0.1-0.4
		l0.5-0.1l2-0.5c0-0.3,0-1.2,0-1.8s0.1-1.9,0-2.3L44.3,33.2z M36.1,41.6c-3.2,0-5.7-2.5-5.7-5.7s2.5-5.7,5.7-5.7
		c3.2,0,5.7,2.5,5.7,5.7S39.2,41.6,36.1,41.6z"/>
	<path class="st2" d="M47.7,33.4c-0.1-0.3-0.3-0.5-0.8-0.6L45,32.5c-0.1-0.3,0-0.1-0.2-0.3l1.2-1.6c0.3-0.3,0.3-0.8,0-1.1
		c0-0.1-0.4-0.9-1.6-1.9c-1.1-1.1-1.8-1.7-1.9-1.7c-0.3-0.2-0.8-0.2-1.1,0.1l-1.5,1.3c-0.3-0.2-0.2-0.1-0.4-0.2l-0.3-1.9
		c0-0.3-0.3-0.6-0.6-0.8c0,0-1-0.3-2.5-0.3s-2.5,0.3-2.5,0.3c-0.4,0-0.6,0.3-0.8,0.8l-0.3,1.8V27c-0.3,0.1-0.1,0.1-0.4,0.2L30.4,26
		c-0.3-0.3-0.8-0.3-1.1-0.1c0,0-0.9,0.5-1.9,1.6c-1.1,1.1-1.6,1.8-1.6,1.9c-0.2,0.3-0.2,0.8,0,1.1l1.2,1.6c-0.1,0.3-0.1,0.2-0.2,0.4
		l-1.9,0.3c-0.3,0.1-0.6,0.3-0.8,0.6c0,0.1-0.3,1-0.3,2.5s0.3,2.5,0.3,2.5c0.1,0.3,0.3,0.5,0.8,0.6l1.9,0.3c0.1,0.3,0,0.1,0.2,0.4
		l-1.2,1.6c-0.3,0.3-0.3,0.8,0,1.1c0,0,0.4,0.9,1.6,1.9c1.1,1.1,1.8,1.6,1.9,1.6c0.3,0.2,0.8,0.2,1.1,0l1.6-1.2
		c0.3,0.1,0.2,0.1,0.4,0.2l0.3,1.9c0,0.1,0,0.2,0.1,0.2c0.1,0.3,0.3,0.4,0.5,0.4c0,0,1,0.3,2.5,0.3c1.5,0,2.5-0.3,2.5-0.3
		c0.3-0.1,0.6-0.3,0.6-0.8l0.2-1.1l0.1-0.9c0.3-0.1,0.2,0,0.4-0.2l0.8,0.5l0.9,0.6c0.3,0.3,0.8,0.3,1.1,0c0,0,0.9-0.4,1.9-1.6
		c1.1-1.1,1.6-1.8,1.6-1.9c0.2-0.3,0.2-0.8,0-1.1l-1.2-1.6c0.2-0.3,0.1-0.1,0.2-0.4l1.9-0.3c0.3,0,0.6-0.3,0.8-0.6
		c0,0,0.3-1,0.3-2.5S47.7,33.4,47.7,33.4z M46.1,37.4l-1.6,0.2h-0.3c-0.3,0-0.6,0.3-0.8,0.5c-0.3,0.8-0.2,0.5-0.4,1.2
		c-0.2,0.3-0.1,0.8,0.1,1l1.1,1.4c-0.3,0.3-0.5,0.8-1.1,1.1c-0.4,0.4-0.9,0.8-1.1,1.1l-1.5-1.1c-0.3-0.2-0.6-0.3-1-0.1
		c-0.8,0.3-0.4,0.3-1.2,0.4c-0.3,0.1-0.5,0.4-0.6,0.8l-0.3,1.8c-0.3,0-0.9,0.1-1.5,0.1c-0.6,0-1.1,0-1.5-0.1l-0.3-1.8
		c0-0.3-0.3-0.6-0.5-0.8c-0.8-0.3-0.5-0.2-1.2-0.4c-0.3-0.1-0.6-0.1-1,0.1l-1.5,1.1c-0.3-0.3-0.8-0.5-1.1-1.1
		c-0.4-0.4-0.8-0.9-1-1.1l1.1-1.5c0.2-0.3,0.3-0.6,0.1-1c-0.3-0.8-0.3-0.4-0.4-1.2c-0.1-0.3-0.4-0.5-0.8-0.5L26,37.2
		c0-0.3-0.1-0.9-0.1-1.5s0-1.1,0.1-1.5l1.8-0.3c0.3-0.1,0.6-0.3,0.8-0.5c0.1-0.2,0.3-0.5,0.3-0.6c0,0,0.1-0.3,0.3-0.5
		c0.1-0.3,0.1-0.6-0.1-1l-1.1-1.5c0.3-0.3,0.4-0.8,1-1.1c0.4-0.4,0.9-0.8,1.1-1l1.5,1.1c0.3,0.2,0.5,0.3,1,0.1
		c0.8-0.3,0.4-0.3,1.2-0.5c0.3-0.1,0.5-0.3,0.5-0.8l0,0l0.2-1.8c0.4,0.1,0.9,0.1,1.5,0.1s1.1,0.1,1.5,0.1l0.3,1.8
		c0,0.3,0.3,0.6,0.6,0.8c0.8,0.3,0.5,0.2,1.2,0.5c0.3,0.2,0.8,0.1,1-0.1l1.5-1.1c0.3,0.3,0.6,0.5,1.1,1c0.4,0.4,0.8,0.9,1.1,1.1
		l-1.1,1.5c-0.2,0.3-0.3,0.5-0.1,1c0.3,0.8,0.3,0.3,0.5,1.2c0.1,0.3,0.3,0.5,0.8,0.5l1.8,0.3c0,0.3,0.1,0.9,0.1,1.5
		S46.1,37.1,46.1,37.4z"/>
	<path class="st2" d="M36.1,30.2c-3.2,0-5.7,2.5-5.7,5.7c0,3.2,2.5,5.7,5.7,5.7c3.2,0,5.7-2.5,5.7-5.7
		C41.8,32.7,39.2,30.2,36.1,30.2z M36.1,39.8c-2.1,0-4-1.7-4-4s1.7-4,4-4c2.3,0,4,1.8,4,4C40,38,38.3,39.8,36.1,39.8z"/>
</g>
</svg>
