<?xml version="1.0" encoding="utf-8"?>
<!-- Generator: Adobe Illustrator 23.0.3, SVG Export Plug-In . SVG Version: 6.00 Build 0)  -->
<svg version="1.1" id="Layer_1" xmlns="http://www.w3.org/2000/svg" xmlns:xlink="http://www.w3.org/1999/xlink" x="0px" y="0px"
	 viewBox="0 0 48 48" style="enable-background:new 0 0 48 48;" xml:space="preserve">
<style type="text/css">
	.st0{fill:#FFFFFF;}
	.st1{fill:#90A4AE;}
	.st2{fill:#64B5F6;}
	.st3{fill:#E53935;}
	.st4{fill:#81C784;}
</style>
<g>
	<rect x="3.2" y="6" class="st0" width="41.6" height="38.8"/>
	<path class="st1" d="M44.8,6v38.8H3.2V6H2H0v38.8C0,46.6,1.4,48,3.2,48h41.6c1.8,0,3.2-1.4,3.2-3.2V6h-3H44.8z"/>
	<path class="st2" d="M44.8,0H3.2C1.4,0,0,1.4,0,3.2V6h2h1.2h41.6H45h3V3.2C48,1.4,46.6,0,44.8,0z"/>
</g>
<rect x="6.1" y="17" class="st3" width="10" height="10"/>
<rect x="6.1" y="29" class="st2" width="9.8" height="9.8"/>
<rect x="18.1" y="29" class="st4" width="9.8" height="9.8"/>
</svg>
