<?xml version="1.0" encoding="utf-8"?>
<!-- Generator: Adobe Illustrator 23.0.3, SVG Export Plug-In . SVG Version: 6.00 Build 0)  -->
<svg version="1.1" id="Layer_1" xmlns="http://www.w3.org/2000/svg" xmlns:xlink="http://www.w3.org/1999/xlink" x="0px" y="0px"
	 viewBox="0 0 48 48" style="enable-background:new 0 0 48 48;" xml:space="preserve">
<style type="text/css">
	.st0{fill:#4FC3F7;}
	.st1{fill:#FFFFFF;}
	.st2{fill:#90A4AE;}
	.st3{fill:#03C662;}
</style>
<g>
	<path class="st0" d="M30.1,38.1H6.5v5.1c0,1.1,0.9,2.1,2.1,2.1h21.6v-0.1V38.1z"/>
	<path class="st1" d="M35.8,26.2h2.9h3.1h2.6V4.4c0-0.7-0.6-1.3-1.3-1.3H2.9C2.2,3.2,1.6,3.7,1.6,4.4v30.9c0,0.7,0.6,1.3,1.3,1.3
		h27.2v-1.7v-2l0.6-1.1l2.4-4C33.6,26.8,34.6,26.2,35.8,26.2z"/>
	<path class="st2" d="M30.1,36.6H2.9c-0.7,0-1.3-0.6-1.3-1.3V4.4c0-0.7,0.6-1.3,1.3-1.3h40c0.7,0,1.3,0.6,1.3,1.3v21.8h0.3
		c0.4,0,0.8,0.1,1.2,0.3V4.4c0-1.5-1.2-2.9-2.9-2.9h-40C1.3,1.5,0,2.8,0,4.4v30.9c0,1.5,1.2,2.9,2.9,2.9h3.6h23.6V36.6z"/>
</g>
<g>
	<g>
		<g>
			<path class="st3" d="M45.3,28.8c-0.2-0.3-0.5-0.5-0.9-0.5h-3.7v4.5h7L45.3,28.8z"/>
			<path class="st3" d="M39.6,28.3h-3.8c-0.4,0-0.7,0.2-0.9,0.5l-2.3,4h7L39.6,28.3L39.6,28.3z"/>
			<path class="st3" d="M32.2,33.8v11.4c0,0.7,0.5,1.2,1.2,1.2h13.4c0.7,0,1.2-0.5,1.2-1.2V33.8H32.2z"/>
		</g>
	</g>
</g>
</svg>
