<?xml version="1.0" encoding="utf-8"?>
<!-- Generator: Adobe Illustrator 23.0.3, SVG Export Plug-In . SVG Version: 6.00 Build 0)  -->
<svg version="1.1" id="Layer_1" xmlns="http://www.w3.org/2000/svg" xmlns:xlink="http://www.w3.org/1999/xlink" x="0px" y="0px"
	 viewBox="0 0 48 48" style="enable-background:new 0 0 48 48;" xml:space="preserve">
<style type="text/css">
	.st0{fill:#4FC3F7;}
	.st1{fill:#FFFFFF;stroke:#90A4AE;stroke-width:1.6084;stroke-miterlimit:10;}
	.st2{fill:#E53935;}
	.st3{fill:#9575CD;}
	.st4{fill:#AED581;}
	.st5{fill:#4DD0E1;}
	.st6{fill:#4DB6AC;}
	.st7{fill:#BA68C8;}
	.st8{fill:#E57373;}
	.st9{fill:#9FA8DA;}
	.st10{fill:#FFB74D;}
	.st11{fill:#64B5F6;}
	.st12{fill:#FFF176;}
	.st13{fill:#DCE775;}
	.st14{fill:#F06292;}
</style>
<g>
	<path class="st0" d="M40.2,46.5H9c-1.2,0-2.1-1-2.1-2.1v-5.6h35.5v5.6C42.4,45.4,41.4,46.5,40.2,46.5z"/>
	<path class="st1" d="M44.9,38.1H3.1C2,38.1,1,37.1,1,36V3.7c0-1.2,1-2.1,2.1-2.1h41.7c1.2,0,2.1,1,2.1,2.1V36
		C47,37.1,46,38.1,44.9,38.1z"/>
	<rect x="4.9" y="29.5" class="st2" width="4.1" height="4.2"/>
	<rect x="11.2" y="28.3" class="st3" width="5.3" height="5.3"/>
	<rect x="19.3" y="28.3" class="st4" width="6.8" height="5.3"/>
	<rect x="28.7" y="27.6" class="st5" width="6" height="6"/>
	<rect x="36.8" y="26.3" class="st6" width="5.6" height="7.4"/>
	<rect x="37" y="16.5" class="st7" width="5.1" height="7.6"/>
	<rect x="32.7" y="6.9" class="st8" width="7.5" height="7.5"/>
	<rect x="22.7" y="8.2" class="st9" width="7.1" height="6.4"/>
	<rect x="27.1" y="17.8" class="st0" width="7.6" height="6.4"/>
	<rect x="12.6" y="7.1" class="st10" width="7.3" height="7.3"/>
	<rect x="4.9" y="8.2" class="st11" width="5.3" height="6.3"/>
	<rect x="5.2" y="17.8" class="st12" width="4.9" height="6.3"/>
	<rect x="12.6" y="18.8" class="st13" width="6.1" height="5.4"/>
	<rect x="20.8" y="17.8" class="st14" width="4.4" height="6.4"/>
</g>
</svg>
