<?xml version="1.0" encoding="utf-8"?>
<!-- Generator: Adobe Illustrator 23.0.3, SVG Export Plug-In . SVG Version: 6.00 Build 0)  -->
<svg version="1.1" id="Layer_1" xmlns="http://www.w3.org/2000/svg" xmlns:xlink="http://www.w3.org/1999/xlink" x="0px" y="0px"
	 viewBox="0 0 48 48" style="enable-background:new 0 0 48 48;" xml:space="preserve">
<style type="text/css">
	.st0{fill:#90A4AE;}
	.st1{fill:#4FC3F7;}
</style>
<g>
	<g>
		<path class="st0" d="M47.6,11.1c-0.2-0.2-0.5-0.3-0.8-0.4l-2.1-0.1c-0.2-1-0.5-1.9-1-2.8l1.5-1.4c0.3-0.1,0.4-0.4,0.4-0.7
			s-0.1-0.6-0.3-0.8l-1.5-1.7c-0.4-0.5-1.1-0.5-1.6-0.1l-1.5,1.5C39.9,4,39,3.6,38,3.3l0.1-2.1c0-0.6-0.5-1.1-1-1.1L34.8,0
			c-0.3,0-0.6,0.1-0.8,0.3s-0.3,0.5-0.4,0.8v2c-1,0.2-1.9,0.5-2.8,1l-1.4-1.5c-0.4-0.5-1.1-0.5-1.6-0.1L26.1,4
			c-0.2,0.2-0.3,0.5-0.4,0.8c0,0.3,0.1,0.6,0.3,0.8l1.4,1.5c-0.6,0.8-1,1.7-1.3,2.7L24,9.7c-0.6,0-1.1,0.4-1.1,1.1l-0.1,2.3
			c0,0.6,0.5,1.1,1,1.1l2.1,0.1c0.2,1,0.5,1.9,1,2.8l-1.5,1.4c-0.2,0.2-0.3,0.5-0.4,0.8c0,0.3,0.1,0.6,0.3,0.8l1.5,1.7
			c0.4,0.5,1.1,0.5,1.6,0.1l1.5-1.4c0.8,0.6,1.7,1,2.7,1.3l-0.1,2.1c0,0.6,0.5,1.1,1,1.1l2.3,0.1c0.3,0,0.6-0.1,0.8-0.3
			c0.2-0.2,0.3-0.5,0.4-0.8l0.1-2.1c1-0.2,1.9-0.5,2.8-1l1.4,1.5c0.2,0.2,0.5,0.3,0.8,0.4c0.3,0,0.6-0.1,0.8-0.3l1.7-1.5
			c0.2-0.2,0.3-0.5,0.4-0.8c0-0.3-0.1-0.6-0.3-0.8l-1.4-1.5c0.6-0.8,1-1.7,1.3-2.7l2.1,0.1c0.6,0,1.1-0.4,1.2-1.1l0.1-2.3
			c0,0,0,0,0-0.1C47.9,11.6,47.8,11.3,47.6,11.1z M35.2,18.1c-3-0.1-5.4-2.6-5.4-5.6c0-0.1,0-0.2,0-0.2c0.1-3.1,2.8-5.5,5.9-5.4
			s5.5,2.7,5.4,5.9C40.9,15.8,38.3,18.2,35.2,18.1z"/>
	</g>
</g>
<g>
	<g>
		<path class="st1" d="M32.3,35.3c-0.1-0.3-0.3-0.5-0.6-0.6l-3-1.1c0.2-1.5,0.2-3.1-0.1-4.6l2.9-1.3c0.3-0.1,0.5-0.3,0.6-0.6
			c0.1-0.3,0.1-0.6,0-0.8l-1.3-2.8c-0.2-0.5-0.9-0.8-1.5-0.5l-2.9,1.3c-0.9-1.3-2-2.3-3.4-3.1l1.1-3c0.2-0.6-0.1-1.2-0.6-1.4
			l-2.9-1.1c-0.3-0.1-0.6-0.1-0.8,0c-0.3,0.1-0.5,0.3-0.6,0.6l-1.1,3c-1.5-0.2-3.1-0.2-4.6,0.1l-1.3-2.9c-0.1-0.3-0.3-0.5-0.6-0.6
			s-0.6-0.1-0.8,0L8,17.1c-0.6,0.3-0.8,0.9-0.6,1.5l1.3,2.9c-1.3,0.9-2.3,2-3.2,3.4l-3-1.1c-0.6-0.2-1.2,0.1-1.4,0.6L0,27.3
			c-0.1,0.3-0.1,0.6,0,0.8c0.1,0.3,0.3,0.5,0.6,0.6l3,1.1c-0.2,1.5-0.2,3.1,0.1,4.6L1,35.7c-0.3,0.1-0.5,0.3-0.6,0.6s-0.1,0.6,0,0.8
			l1.3,2.8c0.3,0.5,0.9,0.8,1.5,0.5L6,39.2c0.9,1.3,2.1,2.3,3.4,3.2l-1.1,3c-0.1,0.3-0.1,0.6,0,0.8c0.1,0.3,0.3,0.5,0.6,0.6l2.9,1.1
			c0.6,0.2,1.2-0.1,1.4-0.6l1.1-3c1.5,0.2,3.1,0.2,4.6-0.1l1.3,2.9c0.1,0.3,0.3,0.5,0.6,0.6c0.3,0.1,0.6,0.1,0.8,0l2.8-1.3
			c0.3-0.1,0.5-0.3,0.6-0.6s0.1-0.6,0-0.8l-1.3-2.9c1.3-0.9,2.3-2,3.1-3.3l3,1.1c0.6,0.2,1.2-0.1,1.4-0.6l1.1-2.9
			c0-0.1,0.1-0.3,0.1-0.4C32.5,35.6,32.4,35.4,32.3,35.3z M23.2,34.3c-0.7,1.9-2.1,3.3-3.9,4.2s-3.9,0.9-5.7,0.2
			c-2.9-1.1-4.8-3.9-4.8-7c0-0.9,0.2-1.8,0.5-2.6c0.7-1.9,2.1-3.4,3.9-4.2s3.9-0.9,5.7-0.2c2.9,1.1,4.8,3.9,4.8,7
			C23.7,32.6,23.5,33.5,23.2,34.3z"/>
	</g>
</g>
</svg>
