<?xml version="1.0" encoding="utf-8"?>
<!-- Generator: Adobe Illustrator 23.0.3, SVG Export Plug-In . SVG Version: 6.00 Build 0)  -->
<svg version="1.1" id="Layer_1" xmlns="http://www.w3.org/2000/svg" xmlns:xlink="http://www.w3.org/1999/xlink" x="0px" y="0px"
	 viewBox="0 0 48 48" style="enable-background:new 0 0 48 48;" xml:space="preserve">
<style type="text/css">
	.st0{fill:#90A4AE;}
</style>
<rect x="2.3" y="41.8" class="st0" width="4.7" height="3.2"/>
<rect x="8.1" y="41.8" class="st0" width="4.7" height="3.2"/>
<rect x="33.2" y="41.8" class="st0" width="4.7" height="3.2"/>
<rect x="40.1" y="41.8" class="st0" width="6.2" height="3.2"/>
<rect x="14.3" y="41.8" class="st0" width="4.7" height="3.2"/>
<rect x="20.6" y="41.8" class="st0" width="4.7" height="3.2"/>
<rect x="26.9" y="41.8" class="st0" width="4.7" height="3.2"/>
<g>
	<g>
		<rect x="12.7" y="3.1" class="st0" width="1.6" height="37.6"/>
		<rect x="9.3" y="3.1" class="st0" width="0.9" height="37.6"/>
		<rect x="18.5" y="3.1" class="st0" width="0.9" height="37.6"/>
		<rect x="16.9" y="3.1" class="st0" width="0.9" height="37.6"/>
		<rect x="2.5" y="3.1" class="st0" width="0.9" height="37.6"/>
		<rect x="5" y="3.1" class="st0" width="0.9" height="37.6"/>
		<rect y="3.1" class="st0" width="1.6" height="37.7"/>
		<rect x="20.3" y="3.1" class="st0" width="0.9" height="37.6"/>
		<rect x="37.1" y="3.1" class="st0" width="1.6" height="37.6"/>
		<rect x="41.3" y="3.1" class="st0" width="2.5" height="37.6"/>
		<rect x="44.6" y="3.1" class="st0" width="0.9" height="37.6"/>
		<rect x="46.4" y="3.1" class="st0" width="1.6" height="37.7"/>
		<rect x="31.2" y="3.1" class="st0" width="1.6" height="37.6"/>
		<rect x="34.6" y="3.1" class="st0" width="1.6" height="37.6"/>
		<rect x="27.8" y="3.1" class="st0" width="1.6" height="37.6"/>
		<rect x="23.6" y="3.1" class="st0" width="1.6" height="37.6"/>
	</g>
</g>
</svg>
