<?xml version="1.0" encoding="utf-8"?>
<!-- Generator: Adobe Illustrator 23.0.1, SVG Export Plug-In . SVG Version: 6.00 Build 0)  -->
<svg version="1.1" id="Capa_1" xmlns="http://www.w3.org/2000/svg" xmlns:xlink="http://www.w3.org/1999/xlink" x="0px" y="0px"
	 viewBox="0 0 446.8 446.8" style="enable-background:new 0 0 446.8 446.8;" xml:space="preserve">
<style type="text/css">
	.st0{fill:#E73B3F;}
</style>
<g>
	<path d="M276.3,330.7H148.8l12.5-34.6c1.6,0.7,3.3,1.1,5.2,1.1h102c3.4-7.6,10.2-14,17.4-19c7.6-5.6,19.8-7.9,28.9-4.7
		c2.1,0.8,15.3,11.3,15.3,11.3s2.7,2.1,4.1,3.6c0,0-1.4-1.5-1.4-1.5c0.2,0.2,0.3,0.4,0.5,0.5c0.3,0.3,2.9,3,3.2,3.3
		c0,0,1.1,1.2,1.1,1.2c2.4,2.6,2.7,2.8,5.2,5.2h20.3c5.8,0,11-3.8,12.8-9.3l55.9-174.3c1.3-4.1,0.6-8.5-1.9-12s-6.6-5.5-10.8-5.5
		H117.3c-0.6,0-1.2,0-1.7,0.1l-12.4-35.8c-1.3-3.7-4.1-6.7-7.8-8.1L32.8,27.7c-6.9-2.7-14.7,0.7-17.4,7.6C12.7,42.2,16.1,50,23,52.7
		L79.8,75l69.6,200.5c-3.1,1.1-5.7,3.4-6.9,6.7l-20.1,55.9c-1.2,3.4-0.7,7.2,1.4,10.2c2.1,3,5.5,4.7,9.1,4.7h10.3
		c-6.4,7.1-10.3,16.5-10.3,26.8c0,22.2,18,40.2,40.2,40.2c22.2,0,40.2-18,40.2-40.2c0-10.3-3.9-19.7-10.3-26.8h87.7
		c-6.4,7.1-10.3,16.5-10.3,26.8c0,0,0,0,0,0.1c1.8-2,8.7-7.8,10.6-9.7c5.6-5.5,6.6-6.6,12.6-11.7c-2-2.4-2-2.4-4-4.8 M173.1,362
		c9.9,0,17.9,8,17.9,17.9c0,9.9-8,17.9-17.9,17.9s-17.9-8-17.9-17.9C155.3,370,163.3,362,173.1,362z M124.8,122.9H207V153h-71.8
		L124.8,122.9z M207,270.3H176l-10.1-29H207V270.3z M207,214.5h-50.4l-12-34.6H207V214.5z M295.7,270.3h-61.8v-29h61.8V270.3z
		 M295.7,214.5h-61.8v-34.6h61.8V214.5z M295.7,153h-61.8v-30.2h61.8V153z M353.3,270.3h-30.8v-29h40.1L353.3,270.3z M371.2,214.5
		h-48.7v-34.6h59.8L371.2,214.5z M390.9,153h-68.4v-30.2h78.1L390.9,153z"/>
</g>
<g>
	<path class="st0" d="M380,358.4l39.5-39.5c6-6,6-15,0-21l-5.4-5.4c-6-6-15-6-21,0L353.6,332l-38.9-39.5c-6-6-15-6-21,0l-5.4,5.4
		c-6,6-6,15,0,21l39.5,39.5l-39.5,39.5c-6,6-6,15,0,21l5.4,5.4c6,6,15,6,21,0l39.5-39.5l39.5,39.5c6,6,15,6,21,0l5.4-5.4
		c6-6,6-15,0-21L380,358.4z"/>
</g>
</svg>
