<?xml version="1.0" encoding="utf-8"?>
<!-- Generator: Adobe Illustrator 23.0.1, SVG Export Plug-In . SVG Version: 6.00 Build 0)  -->
<svg version="1.1" id="Capa_1" xmlns="http://www.w3.org/2000/svg" xmlns:xlink="http://www.w3.org/1999/xlink" x="0px" y="0px"
	 viewBox="0 0 246 246" style="enable-background:new 0 0 246 246;" xml:space="preserve">
<style type="text/css">
	.st0{fill:#010002;}
</style>
<g>
	<g>
		<path class="st0" d="M190.6,178.9H62.1v-53.5L76.2,138c2.2,2,5.2,2.9,8.2,2.9c2.7,0,5.4-0.8,7.6-2.5c4.5-3.5,4.8-9.3,0.6-13.1
			L59.1,95.6c-0.1-0.1-0.3-0.1-0.4-0.3c-0.8-0.7-1.7-1.2-2.8-1.7c-0.2-0.1-0.3-0.2-0.5-0.3c0,0-0.1,0-0.1,0
			c-1.2-0.4-2.4-0.6-3.6-0.7c-0.4,0-0.8,0-1.2,0c-0.9,0-1.8,0.1-2.6,0.3c-0.4,0.1-0.8,0.2-1.2,0.3c-1.1,0.4-2.2,0.9-3.1,1.6
			c-0.1,0-0.1,0.1-0.2,0.1c0,0,0,0,0,0c0,0-0.1,0-0.1,0L6.2,124.6c-4.5,3.5-4.6,9.4-0.4,13.1c4.3,3.7,11.3,3.8,15.8,0.3l18.3-14.5
			v64.7c0,5.1,5,9.2,11.1,9.2h139.6c6.2,0,11.1-4.1,11.1-9.2C201.8,183,196.8,178.9,190.6,178.9z"/>
	</g>
</g>
<g>
	<g>
		<path class="st0" d="M54.4,80.5h128.5V134l-14.1-12.6c-2.2-2-5.2-2.9-8.2-2.9c-2.7,0-5.4,0.8-7.6,2.5c-4.5,3.5-4.8,9.3-0.6,13.1
			l33.4,29.8c0.1,0.1,0.3,0.1,0.4,0.3c0.8,0.7,1.7,1.2,2.8,1.7c0.2,0.1,0.3,0.2,0.5,0.3c0,0,0.1,0,0.1,0c1.2,0.4,2.4,0.6,3.6,0.7
			c0.4,0,0.8,0,1.2,0c0.9,0,1.8-0.1,2.6-0.3c0.4-0.1,0.8-0.2,1.2-0.3c1.1-0.4,2.2-0.9,3.1-1.6c0.1,0,0.1-0.1,0.2-0.1c0,0,0,0,0,0
			c0,0,0.1,0,0.1,0l37.1-29.4c4.5-3.5,4.6-9.4,0.4-13.1c-4.3-3.7-11.3-3.8-15.8-0.3l-18.3,14.5V71.2c0-5.1-5-9.2-11.1-9.2H54.4
			c-6.2,0-11.1,4.1-11.1,9.2C43.3,76.3,48.3,80.5,54.4,80.5z"/>
	</g>
</g>
</svg>
