<?xml version="1.0" encoding="utf-8"?>
<!-- Generator: Adobe Illustrator 23.0.3, SVG Export Plug-In . SVG Version: 6.00 Build 0)  -->
<svg version="1.1" id="Layer_1" xmlns="http://www.w3.org/2000/svg" xmlns:xlink="http://www.w3.org/1999/xlink" x="0px" y="0px"
	 viewBox="0 0 48 48" style="enable-background:new 0 0 48 48;" xml:space="preserve">
<style type="text/css">
	.st0{fill:#FFFFFF;}
	.st1{fill:#90A4AE;}
	.st2{fill:#64B5F6;}
	.st3{fill:#81C784;}
	.st4{fill:#E53935;}
	.st5{fill:#5B6163;}
	.st6{fill:none;stroke:#64B5F6;stroke-width:0.5;stroke-miterlimit:10;}
	.st7{fill:#64B5F6;stroke:#64B5F6;stroke-width:0.25;stroke-miterlimit:10;}
</style>
<g>
	<rect x="3.2" y="6" class="st0" width="41.6" height="38.8"/>
	<path class="st1" d="M44.8,6v38.8H3.2V6H2H0v38.8C0,46.6,1.4,48,3.2,48h41.6c1.8,0,3.2-1.4,3.2-3.2V6h-3H44.8z"/>
	<path class="st2" d="M44.8,0H3.2C1.4,0,0,1.4,0,3.2V6h2h1.2h41.6H45h3V3.2C48,1.4,46.6,0,44.8,0z"/>
</g>
<path class="st1" d="M5.9,18.3h16.9c0.6,0,1.1-0.5,1.1-1.1s-0.5-1.1-1.1-1.1H5.9c-0.6,0-1.1,0.5-1.1,1.1C4.9,17.7,5.3,18.3,5.9,18.3
	z"/>
<path class="st1" d="M6.3,13.6h30.2c1,0,1.9-0.7,1.9-1.5s-0.8-1.5-1.9-1.5H6.3c-1,0-1.9,0.7-1.9,1.5C4.4,12.9,5.2,13.6,6.3,13.6z"/>
<path class="st1" d="M5.9,23.3h16.9c0.6,0,1.1-0.5,1.1-1.1s-0.5-1.1-1.1-1.1H5.9c-0.6,0-1.1,0.5-1.1,1.1S5.3,23.3,5.9,23.3z"/>
<rect x="33.8" y="19" class="st2" width="4" height="25.2"/>
<rect x="39.3" y="24.5" class="st3" width="4" height="19.7"/>
<rect x="28.3" y="29.9" class="st4" width="4" height="14.3"/>
<path class="st5" d="M16.5,34l2.1-2.8c0.1,0,0.3,0.1,0.4,0.1c0.6,0,1-0.5,1-1c0-0.6-0.5-1-1-1c-0.6,0-1,0.5-1,1
	c0,0.2,0.1,0.4,0.2,0.6L15.9,34H16H16.5z"/>
<path class="st5" d="M10,37.9l-1.7,2.4c-0.1,0-0.2-0.1-0.4-0.1c-0.6,0-1,0.5-1,1c0,0.6,0.4,1,1,1s1-0.5,1-1c0-0.2-0.1-0.5-0.2-0.6
	l1.9-2.6l1.4,0.3c0,0.5,0.5,1,1,1c0.6,0,1-0.5,1-1c0-0.2-0.1-0.4-0.2-0.6l2.4-3.2H18c0.1,0.4,0.5,0.8,1,0.8c0.6,0,1-0.5,1-1
	s-0.5-1-1-1s-0.8,0.3-1,0.8h-1.6l0,0H16h-0.1l0,0H14c-0.1-0.4-0.5-0.8-0.9-0.8c-0.6,0-1,0.5-1,1c0,0.2,0.1,0.5,0.2,0.6l-1.9,2.6
	L9,37.2c0-0.5-0.5-1-1-1c-0.6,0-1,0.5-1,1c0,0.6,0.4,1,1,1c0.4,0,0.7-0.2,0.9-0.6L10,37.9"/>
<path class="st0" d="M12.6,35.2c0.1,0,0.2,0.1,0.4,0.1c0.5,0,0.8-0.3,0.9-0.8h1.6l-2.1,2.8c-0.1,0-0.3-0.1-0.4-0.1
	c-0.4,0-0.7,0.2-0.9,0.6l-1.2-0.2L12.6,35.2z"/>
<line class="st6" x1="18.7" y1="34.3" x2="13.2" y2="34.3"/>
<line class="st6" x1="12.6" y1="34.7" x2="7.9" y2="41.3"/>
<circle class="st7" cx="13" cy="34.3" r="1"/>
<circle class="st7" cx="19" cy="34.3" r="1"/>
<circle class="st7" cx="7.9" cy="41.4" r="1"/>
</svg>
