<?xml version="1.0" encoding="utf-8"?>
<!-- Generator: Adobe Illustrator 23.0.1, SVG Export Plug-In . SVG Version: 6.00 Build 0)  -->
<svg version="1.1" id="Capa_1" xmlns="http://www.w3.org/2000/svg" xmlns:xlink="http://www.w3.org/1999/xlink" x="0px" y="0px"
	 viewBox="0 0 489.5 489.5" style="enable-background:new 0 0 489.5 489.5;" xml:space="preserve">
<g>
	<path d="M88.8,233.8c0.6-4.6,1.3-9.2,2.3-13.8H31.3c-1.2,7.5-1.9,15-2.2,22.5C48.9,239.1,68.7,235.5,88.8,233.8z"/>
	<path d="M44.6,172.1c-4.3,10.4-7.6,21.1-10.2,31.9h61.1c1.8-5.4,3.9-10.7,6.3-15.9"/>
	<path d="M108.8,174.6c2.9-5,6.2-9.9,9.8-14.7c-19.1-6.1-37.9-13.7-55.3-23.6C58.9,143,54.9,150,51.4,157"/>
	<path d="M459.4,417l-45.6-35.2c75.3-99.9,49.8-245.7-60.8-312.5c-84.6-51.1-194.8-36.8-263.5,34.2c-6.1,6.4-11.8,13-17,19.8
		c18.1,9.9,37.7,17.4,57.3,23.3C181,92,266.3,81.9,328.9,123.9c74.4,49.9,90.6,151.3,38,221.8l-45.5-35.1c-2.5-1.9-6.3,0.2-6.4,3.5
		l-3.5,147.1c0,2.5,2.3,4.3,4.7,3.6l141.4-40.7C460.8,423.2,461.9,419,459.4,417z"/>
</g>
<g>
	<path d="M252.6,381.6v-41.9c0-3.9-3.1-7-7-7h-76.9v-76.9c0-3.9-3.1-7-7-7h-41.9c-3.9,0-7,3.1-7,7v76.9H36c-3.9,0-7,3.1-7,7v41.9
		c0,3.9,3.1,7,7,7h76.9v76.9c0,3.9,3.1,7,7,7h41.9c3.9,0,7-3.1,7-7v-76.9h76.9C249.5,388.6,252.6,385.5,252.6,381.6z"/>
</g>
</svg>
