<?xml version="1.0" encoding="utf-8"?>
<!-- Generator: Adobe Illustrator 23.0.3, SVG Export Plug-In . SVG Version: 6.00 Build 0)  -->
<svg version="1.1" id="Layer_1" xmlns="http://www.w3.org/2000/svg" xmlns:xlink="http://www.w3.org/1999/xlink" x="0px" y="0px"
	 viewBox="0 0 48 48" style="enable-background:new 0 0 48 48;" xml:space="preserve">
<style type="text/css">
	.st0{fill:#FFFFFF;stroke:#90A4AE;stroke-width:2.0721;stroke-miterlimit:10;}
	.st1{fill:#90A4AE;}
	.st2{fill:#E53935;}
	.st3{fill:#81C784;}
	.st4{fill:#FFB74D;}
</style>
<path class="st0" d="M44.9,46.9H3.1C1.9,46.9,1,46,1,44.9V3.1C1,2,1.9,1.1,3.1,1.1h41.9C46.1,1.1,47,2,47,3.1v41.8
	C47,46,46.1,46.9,44.9,46.9z"/>
<path class="st1" d="M7.3,16.9h5.3c0.9,0,1.6-0.8,1.6-1.6c0-0.9-0.8-1.6-1.6-1.6H7.3c-0.9,0-1.6,0.7-1.6,1.6S6.3,16.9,7.3,16.9z"/>
<path class="st1" d="M7.3,27.9h5.3c0.9,0,1.6-0.8,1.6-1.6c0-0.9-0.8-1.6-1.6-1.6H7.3c-0.9,0-1.6,0.7-1.6,1.6S6.3,27.9,7.3,27.9z"/>
<path class="st1" d="M7.5,41.3h6c1,0,1.9-0.8,1.9-1.6s-0.9-1.6-2-1.6H7.5c-1,0-1.9,0.8-1.9,1.6S6.4,41.3,7.5,41.3z"/>
<path class="st1" d="M23.7,9.5V6.1c0-0.5-0.8-1-1.6-1c-0.9,0-1.6,0.4-1.6,1v3.4c0,0.5,0.8,1,1.6,1C23,10.5,23.7,10,23.7,9.5z"/>
<path class="st1" d="M37.1,9.5V6.1c0-0.5-0.8-1-1.6-1c-0.9,0-1.6,0.4-1.6,1v3.4c0,0.5,0.8,1,1.6,1C36.3,10.5,37.1,10,37.1,9.5z"/>
<rect x="18.7" y="34.8" class="st2" width="7.2" height="7.4"/>
<rect x="32.1" y="23.9" class="st2" width="7.4" height="7.2"/>
<rect x="18.7" y="23.9" transform="matrix(0.7071 -0.7071 0.7071 0.7071 -12.9176 23.8689)" class="st3" width="7.2" height="7.2"/>
<rect x="32.1" y="34.9" transform="matrix(0.7071 -0.7071 0.7071 0.7071 -16.7362 36.5567)" class="st3" width="7.2" height="7.2"/>
<polygon class="st4" points="22.5,12.9 26.6,20.2 18.2,20.2 "/>
<polygon class="st4" points="35.7,12.9 40,20.2 31.6,20.2 "/>
</svg>
