<?xml version="1.0" encoding="utf-8"?>
<!-- Generator: Adobe Illustrator 23.0.1, SVG Export Plug-In . SVG Version: 6.00 Build 0)  -->
<svg version="1.1" id="Layer_1" xmlns="http://www.w3.org/2000/svg" xmlns:xlink="http://www.w3.org/1999/xlink" x="0px" y="0px"
	 viewBox="0 0 512 512" style="enable-background:new 0 0 512 512;" xml:space="preserve">
<path d="M396.3,297.8L396.3,297.8L396.3,297.8L396.3,297.8v128.5c0,2.4-1.6,4-4,4H72.6c-2.4,0-4-1.6-4-4V106.6c0-2.4,1.6-4,4-4
	h300.7c5.2-5.2,25-25.4,36.1-36.1c-5.2-2.4-10.7-3.6-16.7-3.6H72.6C48.4,63,29,82.4,29,106.6v319.7c0,24.2,19.4,43.6,43.6,43.6
	h319.7c24.2,0,43.6-19.4,43.6-43.6V258.2C426.5,267.7,402.7,291.5,396.3,297.8z"/>
<path d="M202.4,385.1c5.6,5.6,12.7,8.3,20.2,8.3c7.5,0,15.1-3.2,20.2-8.3l247.5-247.5c11.5-11.5,11.5-29.8,0-40.9
	c-11.5-11.5-29.8-11.5-40.9,0L223,323.6l-92.4-92.4c-11.5-11.5-29.8-11.5-40.9,0c-11.5,11.5-11.5,29.8,0,40.9L202.4,385.1z"/>
</svg>
