<?xml version="1.0" encoding="utf-8"?>
<!-- Generator: Adobe Illustrator 23.0.3, SVG Export Plug-In . SVG Version: 6.00 Build 0)  -->
<svg version="1.1" id="Layer_1" xmlns="http://www.w3.org/2000/svg" xmlns:xlink="http://www.w3.org/1999/xlink" x="0px" y="0px"
	 viewBox="0 0 48 48" style="enable-background:new 0 0 48 48;" xml:space="preserve">
<style type="text/css">
	.st0{fill:#FFFFFF;}
	.st1{fill:#90A4AE;}
	.st2{fill:#64B5F6;}
</style>
<g>
	<rect x="4.7" y="6.9" class="st0" width="38.6" height="38"/>
	<path class="st1" d="M43.3,44.9H4.7V6.8h-3v38c0,1.8,1.3,3.2,3,3.2h38.6c1.6,0,3-1.4,3-3.2v-38h-3V44.9z"/>
	<path class="st1" d="M19.2,18.7H36c0.4,0,0.9-0.4,0.9-0.9S36.6,17,36,17H19.2c-0.4,0-0.9,0.3-0.9,0.9S18.8,18.7,19.2,18.7z"/>
	<path class="st2" d="M12.2,30.7c1.8,0,3.2-1.5,3.2-3.2s-1.5-3.2-3.2-3.2S9,25.8,9,27.5S10.5,30.7,12.2,30.7z M12.2,25.9
		c0.9,0,1.6,0.7,1.6,1.6c0,0.9-0.7,1.6-1.6,1.6s-1.6-0.7-1.6-1.6C10.6,26.6,11.3,25.9,12.2,25.9z"/>
	<path class="st1" d="M19.2,28.2H36c0.4,0,0.9-0.3,0.9-0.9s-0.3-0.9-0.9-0.9H19.2c-0.4,0-0.9,0.3-0.9,0.9S18.8,28.2,19.2,28.2z"/>
	<path class="st2" d="M12.2,40.2c1.8,0,3.2-1.4,3.2-3.2s-1.5-3.2-3.2-3.2S9,35.2,9,37S10.5,40.2,12.2,40.2z M12.2,35.4
		c0.9,0,1.6,0.7,1.6,1.6s-0.7,1.6-1.6,1.6s-1.6-0.7-1.6-1.6S11.3,35.4,12.2,35.4z"/>
	<circle class="st2" cx="12.2" cy="17.9" r="3.2"/>
	<path class="st1" d="M19.2,37.8H36c0.4,0,0.9-0.3,0.9-0.9c0-0.5-0.3-0.9-0.9-0.9H19.2c-0.4,0-0.9,0.3-0.9,0.9
		C18.4,37.5,18.8,37.8,19.2,37.8z"/>
	<path class="st2" d="M43.3,6.8h3V3.2c0-1.8-1.3-3.2-3-3.2H4.7c-1.6,0-3,1.4-3,3.2v3.6h3"/>
</g>
</svg>
