<?xml version="1.0" encoding="utf-8"?>
<!-- Generator: Adobe Illustrator 23.0.1, SVG Export Plug-In . SVG Version: 6.00 Build 0)  -->
<svg version="1.1" id="Layer_1" xmlns="http://www.w3.org/2000/svg" xmlns:xlink="http://www.w3.org/1999/xlink" x="0px" y="0px"
	 viewBox="0 0 512 512" style="enable-background:new 0 0 512 512;" xml:space="preserve">
<style type="text/css">
	.st0{fill:#FFCA26;}
	.st1{fill:#249F33;}
</style>
<g>
	<polygon class="st0" points="495,484.8 495,375 386,485 	"/>
	<path class="st0" d="M234,360c16-13,45-21,60-8l30,29l123-123c20-10,35-10,48,1V27.2H16v314.6h164.4v143L270,485l-55-60
		C200,400,218.8,372.3,234,360z"/>
	<polygon class="st0" points="16,484.8 107.2,484.8 16,393.6 	"/>
	<polygon class="st0" points="137.5,454.4 137.5,384.7 67.8,384.7 	"/>
	<path class="st1" d="M499.3,286.5c-1.3-1.4-2.8-2.6-4.3-3.7c-13.7-10.1-32.9-8.9-45.3,3.7L325.9,412.7l-31-31.6
		c-13.7-13.9-35.9-13.9-49.5,0s-13.7,36.6,0,50.5l52,53.1l3.7,3.8c13.7,13.9,35.9,13.9,49.5,0l3.7-3.8L495,341.4l4.3-4.4
		C512.9,323,512.9,300.4,499.3,286.5z"/>
</g>
</svg>
