<?xml version="1.0" encoding="utf-8"?>
<!-- Generator: Adobe Illustrator 23.0.1, SVG Export Plug-In . SVG Version: 6.00 Build 0)  -->
<svg version="1.1" id="Layer_1" xmlns="http://www.w3.org/2000/svg" xmlns:xlink="http://www.w3.org/1999/xlink" x="0px" y="0px"
	 viewBox="0 0 48 48" style="enable-background:new 0 0 48 48;" xml:space="preserve">
<style type="text/css">
	.st0{fill:#FFFFFF;}
	.st1{fill:#4CB5E9;}
	.st2{fill:#FCB64D;}
	.st3{fill:none;}
	.st4{fill:#C7C7C7;}
	.st5{fill:#00CA61;stroke:#FFFFFF;stroke-miterlimit:10;}
	.st6{fill:#00CA61;}
	.st7{fill:#E73B3F;}
</style>
<g>
	<rect x="3.2" y="6.8" class="st0" width="41.6" height="38"/>
	<path class="st1" d="M45,6.8h-0.2v38H3.2v-38H2H0v38C0,46.6,1.4,48,3.2,48h41.6c1.8,0,3.2-1.4,3.2-3.2v-38H45z"/>
	<path class="st2" d="M44.8,0H3.2C1.4,0,0,1.6,0,3.6V6v0.8h2h1.2h41.6H45h3V6V3.6C48,1.6,46.6,0,44.8,0z"/>
</g>
<g>
	<rect x="28.2" y="20.7" class="st3" width="3.8" height="4"/>
	<rect x="15.7" y="27.1" class="st3" width="3.8" height="4"/>
	<rect x="28.2" y="27.1" class="st3" width="3.8" height="4"/>
	<rect x="21.9" y="27.1" class="st3" width="3.8" height="4"/>
	<rect x="9.4" y="20.7" class="st3" width="3.8" height="4"/>
	<rect x="9.4" y="27.1" class="st3" width="3.8" height="4"/>
	<rect x="34.4" y="14.4" class="st3" width="3.8" height="4"/>
	<rect x="21.9" y="20.7" class="st3" width="3.8" height="4"/>
	<rect x="15.7" y="20.7" class="st3" width="3.8" height="4"/>
	<rect x="28.2" y="14.4" class="st3" width="3.8" height="4"/>
	<rect x="15.7" y="14.4" class="st3" width="3.8" height="4"/>
	<rect x="28.2" y="33.5" class="st3" width="3.8" height="4"/>
	<rect x="34.4" y="27.1" class="st3" width="3.8" height="4"/>
	<rect x="34.4" y="33.5" class="st3" width="3.8" height="4"/>
	<rect x="34.4" y="20.7" class="st3" width="3.8" height="4"/>
	<rect x="15.7" y="33.5" class="st3" width="3.8" height="4"/>
	<rect x="21.9" y="33.5" class="st3" width="3.8" height="4"/>
	<rect x="9.4" y="14.4" class="st3" width="3.8" height="4"/>
	<rect x="9.4" y="33.5" class="st3" width="3.8" height="4"/>
	<rect x="21.9" y="14.4" class="st3" width="3.8" height="4"/>
	<path class="st4" d="M38.3,10.3v1.6h-3.8v-1.6H32v1.6h-3.8v-1.6h-2.4v1.6H22v-1.7h-2.4v1.7h-3.8v-1.6h-2.4v1.6h-4v-1.6H7v30.8h2.4
		v-1.2h3.8v1.2h2.4v-1.2h3.8v1.2h2.4v-1.2h3.8v1.3H28v-1.3h4v1.3h2.4v-1.3h3.8v1.2h2.4v-14v-2.4V10.3H38.3z M38.3,14.4v4h-3.8v-4
		H38.3z M32,14.4v4h-3.8v-4H32z M19.5,24.7h-3.8v-4h3.8V24.7z M21.9,20.7h3.8v4h-3.8V20.7z M13.2,24.7H9.4v-4h3.8V24.7z M9.4,27.1
		h3.8v4H9.4V27.1z M15.7,27.1h3.8v4h-3.8V27.1z M21.9,27.1h3.8v4h-3.8V27.1z M28.2,27.1H32v4h-3.8V27.1z M28.2,24.7v-4H32v4H28.2z
		 M25.8,14.4v4H22v-4H25.8z M19.5,14.4v4h-3.8v-4H19.5z M13.2,14.4v4H9.4v-4H13.2z M9.4,37.5v-4h3.8v4H9.4z M15.7,37.5v-4h3.8v4
		H15.7z M21.9,37.5v-4h3.8v4H21.9z M28.2,37.5v-4H32v4H28.2z M34.4,37.5v-4h3.8v4H34.4z M38.3,31.1h-3.8v-4h3.8V31.1z M34.4,24.7v-4
		h3.8v4H34.4z"/>
</g>
<g>
	<path class="st5" d="M9.9,16.4c0.6,0,1.2,0.2,1.7,0.7l3,3l3-3c0.5-0.5,1.1-0.7,1.7-0.7s1.2,0.2,1.7,0.7l0.5,0.5
		c0.9,1.1,0.9,2.5,0,3.4l-3,3l3,3c0.9,1.1,0.9,2.5,0,3.4L21,30.9c-0.5,0.5-1.1,0.7-1.7,0.7s-1.2-0.2-1.7-0.7l-3-3l-3,3
		c-0.5,0.5-1.1,0.7-1.7,0.7c-0.6,0-1.2-0.2-1.7-0.7l-0.5-0.5c-0.9-1.1-0.9-2.5,0-3.4l3-3l-3-3c-0.9-1.1-0.9-2.5,0-3.4l0.5-0.5
		C8.7,16.6,9.3,16.4,9.9,16.4z"/>
	<path class="st6" d="M17.1,24l3.7-3.7c0.5-0.5,0.5-1.4,0-2l-0.5-0.5c-0.5-0.5-1.4-0.5-2,0l-3.7,3.7l-3.7-3.7c-0.5-0.5-1.4-0.5-2,0
		l-0.5,0.5c-0.5,0.5-0.5,1.4,0,2l3.7,3.7l-3.7,3.7c-0.5,0.5-0.5,1.4,0,2l0.5,0.5c0.5,0.5,1.4,0.5,2,0l3.7-3.7l3.7,3.7
		c0.5,0.5,1.4,0.5,2,0l0.5-0.5c0.5-0.5,0.5-1.4,0-2L17.1,24z"/>
</g>
<g>
	<path class="st0" d="M30.2,30.2c3.4,0,6.2-2.8,6.2-6.2s-2.8-6.2-6.2-6.2S24,20.6,24,24S26.8,30.2,30.2,30.2z"/>
	<path class="st0" d="M30.2,33.5c5.3,0,9.6-4.2,9.6-9.4s-4.3-9.5-9.6-9.5s-9.6,4.2-9.6,9.5C20.6,29.3,24.9,33.5,30.2,33.5z
		 M30.2,15.8c4.5,0,8.2,3.7,8.2,8.2s-3.7,8.2-8.2,8.2S22,28.5,22,24S25.7,15.8,30.2,15.8z"/>
	<path class="st7" d="M30.2,32.2c4.5,0,8.2-3.7,8.2-8.2s-3.7-8.2-8.2-8.2S22,19.5,22,24S25.7,32.2,30.2,32.2z M30.2,17.8
		c3.4,0,6.2,2.8,6.2,6.2s-2.8,6.2-6.2,6.2S24,27.4,24,24S26.8,17.8,30.2,17.8z"/>
</g>
</svg>
