<?xml version="1.0" encoding="utf-8"?>
<!-- Generator: Adobe Illustrator 23.0.1, SVG Export Plug-In . SVG Version: 6.00 Build 0)  -->
<svg version="1.1" id="Layer_1" xmlns="http://www.w3.org/2000/svg" xmlns:xlink="http://www.w3.org/1999/xlink" x="0px" y="0px"
	 viewBox="0 0 48 48" style="enable-background:new 0 0 48 48;" xml:space="preserve">
<style type="text/css">
	.st0{fill:#FFFFFF;}
	.st1{fill:#4CB5E9;}
	.st2{fill:#FCB64D;}
	.st3{fill:#C7C7C7;}
	.st4{fill:none;}
	.st5{fill:#E73B3F;}
	.st6{fill:#00CA61;stroke:#FFFFFF;stroke-miterlimit:10;}
</style>
<g>
	<rect x="3.2" y="6.8" class="st0" width="41.6" height="38"/>
	<path class="st1" d="M45,6.8h-0.2v38H3.2v-38H2H0v38C0,46.6,1.4,48,3.2,48h41.6c1.8,0,3.2-1.4,3.2-3.2v-38H45z"/>
	<path class="st2" d="M44.8,0H3.2C1.4,0,0,1.6,0,3.6V6v0.8h2h1.2h41.6H45h3V6V3.6C48,1.6,46.6,0,44.8,0z"/>
</g>
<g>
	<g>
		<path class="st3" d="M38.3,10.3v1.6h-3.8v-1.6H32v1.6h-3.8v-1.6h-2.4v1.6H22v-1.7h-2.4v1.7h-3.8v-1.6h-2.4v1.6h-4v-1.6H7v30.8h2.4
			v-1.2h3.8v1.2h2.4v-1.2h3.8v1.2h2.4v-1.2h3.8v1.3H28v-1.3h4v1.3h2.4v-1.3h3.8v1.2h2.4v-14v-2.4V10.3H38.3z M13.2,37.5H9.4v-4h3.8
			V37.5z M25.7,37.5h-3.8v-4h3.8V37.5z M32,37.5h-3.8v-4H32V37.5z M38.2,37.5h-3.8v-4h3.8V37.5z M32,21l2.5-2.6l0,0h-0.1v-4h0.1h3.7
			h0.1v3l-0.1,1h0.7l0.3,0.3c0.5,0.6,0.5,1.5,0,2v4h-4.4l2.4,2.4h1h0.1v1.2c0.3,0.5,0.3,1.2,0,1.7v1.2h-0.1h-3.7h-0.1v-1.8L32,26.9
			l-0.2,0.2H32v4h-3.8v-0.4c-0.6,0.4-1.4,0.4-1.9-0.1l-0.5-0.5c0-0.1-0.1-0.1-0.1-0.2v1.2h-3.1c-1.4,1.3-3.2,2.2-5.2,2.4h2v4h-3.8
			v-4c-2.1-0.2-4.1-1.1-5.5-2.4H9.4v-0.8c-1.4-1.6-2.2-3.7-2.2-5.9c0-2.3,0.9-4.4,2.2-6l0,0v-4h3.8v1.4c0.4-0.1,0.7-0.3,1.1-0.3h0.1
			c0.2,0,0.4-0.1,0.7-0.1c0.2,0,0.4-0.1,0.6-0.1v-0.8h3.8v1.4c0.9,0.3,1.7,0.8,2.4,1.3v-2.7H22h3.7h0.1v4h-0.1h-2.4
			c0.6,0.7,1.1,1.5,1.5,2.3h0.9v4h-0.1c0,0.8-0.2,1.6-0.4,2.4h0.5v1.2c0-0.1,0.1-0.1,0.1-0.2l3.4-3.4h-1v-1.6l-2.4-2.3
			c-0.5-0.6-0.5-1.5,0-2l0.5-0.5c0.6-0.5,1.4-0.5,1.9-0.1v-3.8H32v4h-2.6l2.3,2.3"/>
	</g>
	<g>
		<path class="st4" d="M21.9,21.5c-0.8-1.5-2.2-2.7-4-3.1c-0.5-0.1-1-0.2-1.5-0.2c-0.2,0-0.5,0-0.7,0c-1.7,0.2-3.3,1.1-4.3,2.5
			c-0.8,1-1.2,2.3-1.2,3.7c0,0.1,0,0.2,0,0.3c0,0.9,0.3,1.7,0.6,2.4c0.5,1.1,1.4,2,2.4,2.6c0.7,0.5,1.6,0.8,2.5,0.9
			c0.2,0,0.5,0,0.7,0c1.1,0,2.2-0.3,3.1-0.8c1-0.6,1.9-1.5,2.4-2.5c0,0,0-0.1,0.1-0.2c0.4-0.7,0.6-1.5,0.6-2.4c0-0.1,0-0.2,0-0.3
			C22.6,23.4,22.3,22.4,21.9,21.5z"/>
		<path class="st5" d="M23.7,20.7c-0.4-0.9-1-1.6-1.7-2.3c0,0,0,0-0.1-0.1c-0.7-0.6-1.5-1.2-2.4-1.5c-1-0.4-2-0.6-3.1-0.6
			c-0.2,0-0.5,0-0.7,0c-0.9,0.1-1.7,0.3-2.5,0.6c-0.9,0.4-1.7,0.9-2.4,1.5c-1.6,1.5-2.6,3.6-2.6,6c0,1.6,0.4,3,1.2,4.2
			c0.6,1,1.4,1.8,2.3,2.5c1.3,0.9,3,1.5,4.7,1.5c2.1,0,4-0.8,5.5-2.1c1-0.9,1.8-2.1,2.2-3.4c0.3-0.8,0.4-1.6,0.5-2.4
			c0-0.1,0-0.2,0-0.3C24.6,23.1,24.3,21.8,23.7,20.7z M22,27.1c0,0.1,0,0.1-0.1,0.2c-0.5,1-1.4,1.9-2.4,2.5c-0.9,0.5-2,0.8-3.1,0.8
			c-0.2,0-0.5,0-0.7,0c-0.9-0.1-1.8-0.4-2.5-0.9c-1-0.6-1.8-1.5-2.4-2.6c-0.4-0.7-0.6-1.5-0.6-2.4c0-0.1,0-0.2,0-0.3
			c0-1.4,0.5-2.7,1.2-3.7c1-1.3,2.5-2.3,4.3-2.5c0.2,0,0.5,0,0.7,0c0.5,0,1,0.1,1.5,0.2c1.7,0.4,3.2,1.6,4,3.1
			c0.4,0.9,0.7,1.8,0.7,2.9c0,0.1,0,0.2,0,0.3C22.5,25.6,22.3,26.4,22,27.1z"/>
	</g>
	<path class="st6" d="M36.7,32c-0.6,0-1.2-0.2-1.7-0.7l-3-3l-3.1,3.1l-0.2,0.1c-0.4,0.3-1,0.5-1.5,0.5c-0.6,0-1.2-0.2-1.6-0.7
		l-0.5-0.5c-0.2-0.2-0.2-0.3-0.3-0.4c-0.5-0.8-0.5-2,0.1-2.8c0,0,0.1-0.1,0.2-0.3l3-3l-3-2.9l0,0c-0.8-1-0.8-2.5,0.1-3.3l0.5-0.5
		c0.5-0.4,1.1-0.7,1.7-0.7c0.5,0,1,0.2,1.5,0.5c0.1,0,0.2,0.1,0.2,0.2l3,3l3-3.1l0,0c0.5-0.4,1.1-0.6,1.7-0.6c0.6,0,1.2,0.2,1.7,0.7
		l0.5,0.5c0.9,1.1,0.9,2.5,0,3.4l-3,3l3,3c0.2,0.2,0.2,0.3,0.3,0.4c0.5,0.8,0.5,2-0.1,2.8c0,0-0.1,0.1-0.2,0.3l-0.5,0.5
		C37.9,31.8,37.3,32,36.7,32z"/>
</g>
</svg>
