<?xml version="1.0" encoding="utf-8"?>
<!-- Generator: Adobe Illustrator 23.0.1, SVG Export Plug-In . SVG Version: 6.00 Build 0)  -->
<svg version="1.1" id="Layer_1" xmlns="http://www.w3.org/2000/svg" xmlns:xlink="http://www.w3.org/1999/xlink" x="0px" y="0px"
	 viewBox="0 0 48 48" style="enable-background:new 0 0 48 48;" xml:space="preserve">
<style type="text/css">
	.st0{fill:#FFFFFF;}
	.st1{fill:#4CB5E9;}
	.st2{fill:#FCB64D;}
	.st3{fill:none;}
	.st4{fill:#C7C7C7;}
	.st5{fill:none;stroke:#E73B3F;stroke-width:2;stroke-miterlimit:10;}
	.st6{fill:#00CA61;}
</style>
<g>
	<rect x="3.2" y="6.8" class="st0" width="41.6" height="38"/>
	<path class="st1" d="M45,6.8h-0.2v38H3.2v-38H2H0v38C0,46.6,1.4,48,3.2,48h41.6c1.8,0,3.2-1.4,3.2-3.2v-38H45z"/>
	<path class="st2" d="M44.8,0H3.2C1.4,0,0,1.6,0,3.6V6v0.8h2h1.2h41.6H45h3V6V3.6C48,1.6,46.6,0,44.8,0z"/>
</g>
<g>
	<path class="st3" d="M10.1,20.7H9.4v3.5C9.5,23.1,9.7,21.8,10.1,20.7z"/>
	<path class="st3" d="M9.4,27.9v3.2H10C9.7,30.1,9.5,29,9.4,27.9z"/>
	<path class="st3" d="M34.4,14.4v2.5c0.3,0.5,0.6,1,0.8,1.5h3v-4H34.4z"/>
	<path class="st3" d="M38.1,27.1c0,0.5-0.1,0.9-0.1,1.4c-0.1,0.9-0.2,1.7-0.3,2.6h0.7v-4H38.1z"/>
	<path class="st3" d="M37.1,33.5c-0.1,0.4-0.2,0.8-0.4,1.1c-0.6,1.5-1.1,2-2.3,2.5c0,0,0,0.1-0.1,0.1v0.3h3.8v-4
		C38.1,33.5,37.1,33.5,37.1,33.5z"/>
	<path class="st3" d="M36.9,20.7c0.7,1.2,1,2.6,1.1,4h0.2v-4H36.9z"/>
	<path class="st3" d="M13.2,16.3v-2H9.4v4h2c0.1-0.1,0.1-0.1,0.2-0.2c0,0,0.1-0.1,0.2-0.1C12.3,17.1,12.6,16.8,13.2,16.3z"/>
	<path class="st3" d="M13.2,37.1L13.2,37.1C13.1,37.1,13,37,13,37c-0.1,0-0.1-0.1-0.2-0.1c0,0-0.1,0-0.1-0.1c-0.7-1-1.3-2.1-1.8-3.3
		H9.4v4h3.8V37.1C13.2,37.2,13.2,37.2,13.2,37.1z"/>
	<path class="st4" d="M38.3,10.3v1.6h-3.8v-1.6H32v1.6h-3.8v-1.6h-2.4v1.6H22v-1.7h-2.4v1.7h-3.8v-1.6h-2.4v1.6h-4v-1.6H7v30.8h2.4
		v-1.2h3.8v1.2h2.4v-1.2h2.1c-1.8-0.4-3.4-1.4-4.5-2.9v0.5H9.4v-4h1.8c-0.5-0.7-0.7-1.6-1-2.4H9.4v-3.2c-0.1-0.5-0.1-1.1-0.1-1.6
		c0-0.6,0-1.3,0.1-2.1v-3.5h1.5c0.3-1,0.9-1.8,1.5-2.4h-3v-4h3.8v3c0.2-0.1,0.9-0.9,1.3-1.2c0.4-0.3,0.9-0.6,1.9-1.3
		s1.9-1.1,3.5-1.4c1.2-0.3,3.7-0.4,4.8-0.3c1.5,0.1,2.9,0.2,4.2,0.7c1.3,0.5,0.7,0.2,1.8,0.7c0,0,1,0.6,1.1,0.6l0.6,0.4l0.7,0.6
		c0.6,0.7,0.4,0.2,1,0.9c0.2,0.3,0.1,0,0.2,0.3v-3h3.8v4h-3c0.1,0.2,0.2,0.3,0.3,0.5c0,0.1,0.1,0.1,0.1,0.2c0.5,0.5,1,1.1,1.3,1.7
		h1.4v4H38c0.1,0.8,0.1,1.6,0,2.4h0.2v4h-0.7c-0.1,0.8-0.3,1.6-0.5,2.4h1.2v4h-3.8v-0.3c-0.8,1.2-2.3,2.1-3.9,2.7H32v1.3h2.4v-1.3
		h3.8v1.2h2.4V10.3H38.3z"/>
</g>
<circle class="st5" cx="24" cy="27.1" r="11"/>
<g>
	<path class="st6" d="M26.5,27.1l3.7-3.7c0.5-0.5,0.5-1.4,0-2l-0.5-0.5c-0.5-0.5-1.4-0.5-2,0L24,24.7L20.3,21c-0.5-0.5-1.4-0.5-2,0
		l-0.5,0.5c-0.5,0.5-0.5,1.4,0,2l3.7,3.7l-3.7,3.7c-0.5,0.5-0.5,1.4,0,2l0.5,0.5c0.5,0.5,1.4,0.5,2,0l3.7-3.7l3.7,3.7
		c0.5,0.5,1.4,0.5,2,0l0.5-0.5c0.5-0.5,0.5-1.4,0-2L26.5,27.1z"/>
</g>
</svg>
