<?xml version="1.0" encoding="utf-8"?>
<!-- Generator: Adobe Illustrator 23.0.3, SVG Export Plug-In . SVG Version: 6.00 Build 0)  -->
<svg version="1.1" id="Layer_1" xmlns="http://www.w3.org/2000/svg" xmlns:xlink="http://www.w3.org/1999/xlink" x="0px" y="0px"
	 viewBox="0 0 48 48" style="enable-background:new 0 0 48 48;" xml:space="preserve">
<style type="text/css">
	.st0{fill:#FFFFFF;}
	.st1{fill:#90A4AE;}
	.st2{fill:#E57373;}
</style>
<g id="Capa_1">
	<g>
		<rect x="5.5" y="18" class="st0" width="36.5" height="28"/>
		<path class="st0" d="M14.7,14.2c0.1,0.1,0.2,0.1,0.3,0.1c0.3,0,0.5-0.2,0.7-0.4l3-6c0.2-0.4,0-0.8-0.3-1c-0.4-0.2-0.8,0-1,0.3
			l-3,6C14.1,13.5,14.3,14,14.7,14.2z"/>
		<path class="st0" d="M24,14.2c0.4,0,0.7-0.3,0.7-0.7v-6c0-0.4-0.3-0.7-0.7-0.7c-0.4,0-0.7,0.3-0.7,0.7v6
			C23.3,13.9,23.6,14.2,24,14.2z"/>
		<path class="st0" d="M8.7,14.2c0.1,0.1,0.2,0.1,0.3,0.1c0.3,0,0.5-0.2,0.7-0.4l3-6c0.2-0.4,0-0.8-0.3-1c-0.4-0.2-0.8,0-1,0.3l-3,6
			C8.1,13.5,8.3,14,8.7,14.2z"/>
		<path class="st0" d="M38.3,13.8c0.1,0.3,0.4,0.4,0.7,0.4c0.1,0,0.2,0,0.3-0.1c0.4-0.2,0.5-0.6,0.3-1l-3-6c-0.2-0.4-0.6-0.5-1-0.3
			c-0.4,0.2-0.5,0.6-0.3,1L38.3,13.8z"/>
		<path class="st0" d="M32.3,13.9c0.1,0.3,0.4,0.4,0.7,0.4c0.1,0,0.2,0,0.4-0.1c0.4-0.2,0.5-0.7,0.3-1l-3.3-6
			c-0.2-0.4-0.7-0.5-1-0.3c-0.4,0.2-0.5,0.7-0.3,1L32.3,13.9z"/>
		<rect x="24.9" y="30.1" transform="matrix(0.7071 -0.7071 0.7071 0.7071 -13.6771 28.7504)" class="st1" width="6" height="1.5"/>
		<rect x="29.1" y="34.4" transform="matrix(0.7071 -0.7071 0.7071 0.7071 -15.4308 32.9962)" class="st1" width="6" height="1.5"/>
		<path class="st1" d="M12,37.5c0,0.8,0.7,1.5,1.5,1.5s1.5-0.7,1.5-1.5c0-0.5-0.3-1-0.7-1.3v-3.5c0.4-0.3,0.7-0.7,0.7-1.3
			c0-0.8-0.7-1.5-1.5-1.5S12,30.7,12,31.5c0,0.5,0.3,1,0.7,1.3v3.5C12.3,36.5,12,37,12,37.5z"/>
		<path class="st2" d="M0,16.5h48l-6-12h-0.7H6.7H6L0,16.5z M35.7,6.8c0.4-0.2,0.8,0,1,0.3l3,6c0.2,0.4,0,0.8-0.3,1
			c-0.1,0.1-0.2,0.1-0.3,0.1c-0.3,0-0.5-0.2-0.7-0.4l-3-6C35.1,7.5,35.3,7,35.7,6.8z M29.4,6.8c0.4-0.2,0.8-0.1,1,0.3l3.3,6
			c0.2,0.4,0.1,0.8-0.3,1c-0.1,0.1-0.2,0.1-0.4,0.1c-0.3,0-0.5-0.1-0.7-0.4l-3.3-6C28.9,7.5,29,7,29.4,6.8z M23.3,7.5
			c0-0.4,0.3-0.7,0.7-0.7c0.4,0,0.7,0.3,0.7,0.7v6c0,0.4-0.3,0.7-0.7,0.7c-0.4,0-0.7-0.3-0.7-0.7V7.5L23.3,7.5z M14.3,13.2l3-6
			c0.2-0.4,0.6-0.5,1-0.3c0.4,0.2,0.5,0.6,0.3,1l-3,6c-0.1,0.3-0.4,0.4-0.7,0.4c-0.1,0-0.2,0-0.3-0.1C14.3,14,14.1,13.5,14.3,13.2z
			 M8.3,13.2l3-6c0.2-0.4,0.6-0.5,1-0.3c0.4,0.2,0.5,0.6,0.3,1l-3,6c-0.1,0.3-0.4,0.4-0.7,0.4c-0.1,0-0.2,0-0.3-0.1
			C8.3,14,8.1,13.5,8.3,13.2z"/>
		<path class="st2" d="M42,1.5C42,0.7,41.3,0,40.5,0h-33C6.7,0,6,0.7,6,1.5s-0.2,3,0.7,3h34.7C42.2,4.5,42,2.3,42,1.5z"/>
		<rect x="24" y="32.3" transform="matrix(0.7071 -0.7071 0.7071 0.7071 -14.5572 30.8692)" class="st1" width="12" height="1.5"/>
		<path class="st1" d="M40.5,45H18V25.1c0.1,0,0.2,0.4,0.3,0.4l-1.8-0.4V45h-9V25.2h-3V45h-3C0.7,45,0,45.7,0,46.5S0.7,48,1.5,48h45
			c0.8,0,1.5-0.7,1.5-1.5S47.3,45,46.5,45h-3V25h-3L40.5,45L40.5,45z"/>
		<path class="st2" d="M0,19.5c0,2.8,1.9,5.1,4.5,5.8h3c2.6-0.7,4.5-3,4.5-5.8c0,2.8,1.9,5.2,4.5,5.9l1.5-0.1h-1.5v0.2h1.8
			c3.2-0.2,5.7-2.8,5.7-6c0,3.2,2.5,5.8,5.7,6h0.6c3.2-0.2,5.7-2.8,5.7-6c0,2.8,1.9,5.1,4.5,5.8h3c2.6-0.7,4.5-3,4.5-5.8V18H0V19.5z
			"/>
	</g>
</g>
</svg>
