<?xml version="1.0" encoding="utf-8"?>
<!-- Generator: Adobe Illustrator 23.0.6, SVG Export Plug-In . SVG Version: 6.00 Build 0)  -->
<svg version="1.1" id="Layer_1" xmlns="http://www.w3.org/2000/svg" xmlns:xlink="http://www.w3.org/1999/xlink" x="0px" y="0px"
	 viewBox="0 0 48 48" style="enable-background:new 0 0 48 48;" xml:space="preserve">
<style type="text/css">
	.st0{fill:#FFFFFF;}
	.st1{fill:#90A4AE;}
	.st2{fill:#64B5F6;}
	.st3{fill:#81C784;}
	.st4{fill:#7986CB;}
	.st5{fill:#E53935;}
	.st6{fill:#FFFFFF;stroke:#000000;stroke-miterlimit:10;}
	.st7{fill:#1D2C32;stroke:#FFFFFF;stroke-width:0.25;stroke-miterlimit:10;}
</style>
<g>
	<path class="st0" d="M44.8,2H3.3c-0.5,0-1,0.4-1,1v42c0,0.5,0.4,1,1,1h22.2c-2.4-2.3-4-5.4-4.4-8.8v3.5h-15v-9.6h15v2.7
		c0.4-3.6,2.1-6.7,4.6-9h-5.6V7.1h9.5v15.2c1.1-0.5,2.3-0.8,3.5-1.1V7.1H42v15.5c1.4,0.7,2.7,1.6,3.8,2.7V3C45.8,2.5,45.3,2,44.8,2z
		 M16.9,24.8H6.1V7.1h10.8V24.8z"/>
	<path class="st1" d="M42.8,48h2c1.5,0,3-1.5,3-3v-1.9C46.6,45.1,44.8,46.8,42.8,48z"/>
	<path class="st1" d="M25.5,46H3.3c-0.5,0-1-0.4-1-1V3c0-0.5,0.4-1,1-1h41.5c0.5,0,1,0.4,1,1v22.3c0.8,0.8,1.4,1.6,2,2.6V3
		c0-1.7-1.3-3-3-3H3.3c-1.7,0-3,1.3-3,3v42c0,1.7,1.3,3,3,3h24.9C27.2,47.4,26.3,46.8,25.5,46z"/>
	<rect x="6.1" y="7.1" class="st2" width="10.8" height="17.7"/>
	<path class="st3" d="M20.1,7.1v17.7h5.6c1.1-1,2.4-1.9,3.9-2.5V7.1H20.1z"/>
	<path class="st4" d="M33.1,7.1v14.1c0.8-0.1,1.6-0.2,2.4-0.2c2.3,0,4.5,0.6,6.5,1.6V7.1H33.1z"/>
	<path class="st5" d="M6.1,31.1v9.6h15v-3.5C21,36.6,21,36.1,21,35.5s0-1.1,0.1-1.7v-2.7C21.1,31.1,6.1,31.1,6.1,31.1z"/>
</g>
<circle class="st6" cx="35.5" cy="35.3" r="11.7"/>
<g>
	<circle class="st7" cx="35.5" cy="35.5" r="2.6"/>
	<path class="st7" d="M35.5,23C28.6,23,23,28.6,23,35.5S28.6,48,35.5,48S48,42.4,48,35.5S42.4,23,35.5,23z M42.9,42.8
		c-1.9,1.9-4.5,3-7.4,3s-5.5-1.2-7.4-3c-1.9-1.9-3-4.5-3-7.3c0-2.9,1.2-5.5,3-7.4c1.9-1.9,4.5-3,7.4-3s5.5,1.2,7.4,3
		c1.9,1.9,3,4.5,3,7.4S44.7,41,42.9,42.8z"/>
	<path class="st7" d="M35.5,27.3c-4.4,0-8,3.6-8,8s3.6,8,8,8s8-3.6,8-8S39.9,27.3,35.5,27.3z M39.7,39.4c-1.1,1.1-2.5,1.7-4.2,1.7
		c-1.6,0-3.1-0.7-4.2-1.7c-1.1-1.1-1.7-2.5-1.7-4.2c0-1.6,0.7-3.1,1.7-4.2c1.1-1.1,2.5-1.7,4.2-1.7c1.6,0,3.1,0.7,4.2,1.7
		c1.1,1.1,1.7,2.5,1.7,4.2S40.8,38.4,39.7,39.4z"/>
</g>
</svg>
