<?xml version="1.0" encoding="utf-8"?>
<!-- Generator: Adobe Illustrator 23.0.1, SVG Export Plug-In . SVG Version: 6.00 Build 0)  -->
<svg version="1.1" id="Capa_1" xmlns="http://www.w3.org/2000/svg" xmlns:xlink="http://www.w3.org/1999/xlink" x="0px" y="0px"
	 viewBox="0 0 512 512" style="enable-background:new 0 0 512 512;" xml:space="preserve">
<style type="text/css">
	.st0{fill:#F89B3A;}
</style>
<g>
	<g>
		<path class="st0" d="M508.1,444.5L284,37c-5.7-10.3-16.2-16.5-28-16.5c-11.9,0-22.3,6.2-28,16.5L3.9,444.5
			c-5.4,9.9-5.2,21.6,0.5,31.4c5.8,9.8,16.1,15.7,27.5,15.7h448c11.4,0,21.7-5.9,27.5-15.7C513.3,466.1,513.5,454.4,508.1,444.5z
			 M248.5,150.8c2.1-0.4,4.2-0.5,6.3-0.5c18.2,0,34.3,13,37.4,31.4c0.7,4.2,0.7,8.4,0,12.4l-24.9,148.2c-1,6.1-6.4,10.5-12.4,10.5
			c-0.7,0-1.4-0.1-2.1-0.2c-5.5-0.9-9.5-5.2-10.4-10.3L217.3,194C213.8,173.6,227.8,154.2,248.5,150.8z M254.7,453.9
			c-20.9,0-37.9-17-37.9-37.9c0-20.9,17-37.9,37.9-37.9s37.9,17,37.9,37.9S275.6,453.9,254.7,453.9z"/>
	</g>
</g>
</svg>
