<?xml version="1.0" encoding="utf-8"?>
<!-- Generator: Adobe Illustrator 23.0.1, SVG Export Plug-In . SVG Version: 6.00 Build 0)  -->
<svg version="1.1" id="Capa_1" xmlns="http://www.w3.org/2000/svg" xmlns:xlink="http://www.w3.org/1999/xlink" x="0px" y="0px"
	 viewBox="0 0 487.6 487.6" style="enable-background:new 0 0 487.6 487.6;" xml:space="preserve">
<style type="text/css">
	.st0{fill:#0082C1;}
</style>
<g>
	<path class="st0" d="M243.8,0C109.2,0,0,109.2,0,243.8c0,134.7,109.2,243.8,243.8,243.8c134.7,0,243.8-109.2,243.8-243.8
		S378.5,0,243.8,0z M246.1,60c25.5,0,46.3,20.8,46.3,46.3s-20.8,46.3-46.3,46.3s-46.3-20.8-46.3-46.3C199.7,80.8,220.4,60,246.1,60z
		 M325.6,407.6c0,4.6-3.8,8.4-8.4,8.4h-26.9h-88.5h-26.9c-4.6,0-8.4-3.8-8.4-8.4v-17.2c0-4.6,3.8-8.4,8.4-8.4h26.9V219.2H174
		c-4.6,0-8.4-3.8-8.4-8.4v-17.2c0-4.6,3.8-8.4,8.4-8.4h27.8h80.1l1.5,0.1c4.6,0,7.2,3.7,7.2,8.3v188.5h26.7c4.6,0,8.4,3.8,8.4,8.4
		V402v5.6H325.6z"/>
</g>
</svg>
