<?xml version="1.0" encoding="utf-8"?>
<!-- Generator: Adobe Illustrator 23.0.6, SVG Export Plug-In . SVG Version: 6.00 Build 0)  -->
<svg version="1.1" id="Capa_1" xmlns="http://www.w3.org/2000/svg" xmlns:xlink="http://www.w3.org/1999/xlink" x="0px" y="0px"
	 viewBox="0 0 48 48" style="enable-background:new 0 0 48 48;" xml:space="preserve">
<style type="text/css">
	.st0{fill:none;}
	.st1{fill:#1D2C32;}
	.st2{fill:#E53935;}
</style>
<g>
	<g>
		<path class="st0" d="M20.2,6c-4.4,0-8,3.6-8,8v4h6.7c2.5-2.4,5.7-4,9.3-4.7C27.8,9.2,24.4,6,20.2,6z"/>
		<path class="st0" d="M31.7,31.3l-6.1-6.1c-0.1-0.1-0.2-0.1-0.2-0.1c0,0.1-0.1,0.1-0.1,0.2l6.2,6.2l-6.1,6.1
			c-0.1,0.1-0.1,0.2-0.1,0.2l6.1-6.1l6.1,6.1c0,0,0-0.1,0-0.1l-5.7-6.2l6-6c0.1-0.1,0.1-0.1,0.1-0.2c-0.1-0.1-0.2-0.1-0.2-0.1
			L31.7,31.3z"/>
		<path class="st1" d="M13,31.5c0-5.3,2.3-10.1,5.9-13.5h-6.7v-4c0-4.4,3.6-8,8-8c4.2,0,7.6,3.2,8,7.3c1.1-0.2,2.2-0.3,3.3-0.3H33
			l0.1,0c0.4,0,0.7,0.1,1.1,0.2C33.7,5.9,27.6,0,20.2,0c-7.7,0-14,6.3-14,14v4h-3c-0.6,0-1,0.4-1,1v25c0,2.2,1.8,4,4,4h16.9
			C17,44.9,13,38.7,13,31.5z"/>
	</g>
	<path class="st2" d="M32.9,15c-0.4,0-1,0-1.4,0C22.4,15,15,22.4,15,31.5C15,40,21.6,47.2,30.1,48c0.4,0,1,0,1.4,0
		C40.6,48,48,40.6,48,31.5C48,23,41.2,15.8,32.9,15z M39.1,36.3c0.8,0.8,0.8,2,0,3c-0.4,0.4-0.8,0.6-1.4,0.6c-0.6,0-1-0.2-1.4-0.6
		l-3.4-3.4l-1.4-1.4l-4.8,4.8c-0.4,0.4-0.8,0.6-1.4,0.6s-1-0.2-1.4-0.6c-0.8-0.8-0.8-2,0-3l4.8-4.8l-4.8-4.8c-0.8-0.8-0.8-2,0-3
		c0.8-0.8,2-0.8,3,0l4.8,4.8l1.4-1.4l3.4-3.4c0.8-0.8,2-0.8,3,0s0.8,2,0,3l-4.8,4.8L39.1,36.3z"/>
</g>
</svg>
