<?xml version="1.0" encoding="utf-8"?>
<!-- Generator: Adobe Illustrator 23.0.6, SVG Export Plug-In . SVG Version: 6.00 Build 0)  -->
<svg version="1.1" id="Capa_1" xmlns="http://www.w3.org/2000/svg" xmlns:xlink="http://www.w3.org/1999/xlink" x="0px" y="0px"
	 viewBox="0 0 48 48" style="enable-background:new 0 0 48 48;" xml:space="preserve">
<style type="text/css">
	.st0{fill:none;}
	.st1{fill:#1D2C32;}
	.st2{fill:#43A047;}
</style>
<g>
	<g>
		<path class="st0" d="M19.7,6c-4.4,0-8,3.6-8,8v4h12.4l3.6-3.6V14C27.7,9.6,24.1,6,19.7,6z"/>
		<path class="st0" d="M17,39.7c0.1,0.2,0.4,0.3,0.7,0.3h1.8l-2.6-2.6l-0.2,1.5C16.7,39.2,16.8,39.5,17,39.7z"/>
		<path class="st1" d="M17.7,40c-0.3,0-0.6-0.1-0.7-0.3c-0.2-0.2-0.3-0.5-0.3-0.8l0.2-1.5l-2.7-2.7c-1.8-1.8-1.8-4.9,0-6.7l9.9-9.9
			H11.7v-4c0-4.4,3.6-8,8-8s8,3.6,8,8v0.4l0.4-0.4c0.9-0.9,2.1-1.4,3.4-1.4c0.8,0,1.5,0.2,2.2,0.5C33.2,5.9,27.1,0,19.7,0
			c-7.7,0-14,6.3-14,14v4h-3c-0.6,0-1,0.4-1,1v25c0,2.2,1.8,4,4,4h21.8l-8-8H17.7z"/>
	</g>
	<path class="st2" d="M47.2,29.2L33.6,15.6l-0.2-0.2c-1-1-2.9-1-3.9,0l-13.9,14c-1,1-1,2.9,0,3.9l13.9,13.9c0.2,0.2,0.5,0.3,0.7,0.5
		c1,0.5,2.4,0.3,3.2-0.5l13.9-13.9C48.2,32.1,48.2,30.2,47.2,29.2z M33.5,34.1L29,38.4l-5.9-5.9l2.2-2l3.7,3.7l1.3-1.3l3.1-3.1
		l4.2-4.2l2.2,2.2L33.5,34.1z"/>
</g>
</svg>
