<?xml version="1.0" encoding="utf-8"?>
<!-- Generator: Adobe Illustrator 23.0.1, SVG Export Plug-In . SVG Version: 6.00 Build 0)  -->
<svg version="1.1" id="Capa_1" xmlns="http://www.w3.org/2000/svg" xmlns:xlink="http://www.w3.org/1999/xlink" x="0px" y="0px"
	 viewBox="0 0 485.2 485.2" style="enable-background:new 0 0 485.2 485.2;" xml:space="preserve">
<g>
	<path d="M0,272.9l0,151.6c0,33.5,27.2,60.7,60.6,60.7h242.6c33.5,0,60.7-27.2,60.7-60.7V272.9c0-33.5-27.2-60.6-60.7-60.6v-91
		c0-33.5,27.2-60.7,60.7-60.7c33.4,0,60.7,27.2,60.7,60.7v91h60.7v-91C485.2,54.4,430.8,0,363.9,0C297,0,242.6,54.4,242.6,121.3v91
		H121.3H60.6C27.2,212.3,0,239.4,0,272.9z M151.6,333.6c0-16.8,13.6-30.3,30.3-30.3c16.8,0,30.3,13.6,30.3,30.3
		c0,11.1-6.3,20.4-15.2,25.7v50.1c0,8.4-6.8,15.2-15.2,15.2c-8.4,0-15.2-6.8-15.2-15.2v-50.1C157.9,354,151.6,344.7,151.6,333.6z"/>
</g>
</svg>
