<?xml version="1.0" encoding="utf-8"?>
<!-- Generator: Adobe Illustrator 23.0.3, SVG Export Plug-In . SVG Version: 6.00 Build 0)  -->
<svg version="1.1" id="Layer_1" xmlns="http://www.w3.org/2000/svg" xmlns:xlink="http://www.w3.org/1999/xlink" x="0px" y="0px"
	 viewBox="0 0 48 48" style="enable-background:new 0 0 48 48;" xml:space="preserve">
<style type="text/css">
	.st0{fill:#FFFFFF;}
	.st1{fill:#90A4AE;}
	.st2{fill:none;}
	.st3{fill:#4FC3F7;}
</style>
<g>
	<path class="st0" d="M38.1,32.5V9.5h-6c-1.2,0-2.1-0.9-2.1-2.1V1.5H15.3v3.7h-0.7v0.1h11.3c0.5,0,1,0.2,1.4,0.6l8.1,8
		c0.3,0.3,0.6,0.8,0.6,1.3v18.2h0.2v-0.7L38.1,32.5L38.1,32.5z"/>
	<path class="st0" d="M31.9,7.7C31.9,7.9,32,8,32.1,8h4.8l-5-4.9V7.7z"/>
	<polygon class="st0" points="27.8,13.6 29.3,13.6 27.8,12.1 	"/>
	<path class="st1" d="M39.7,8.2l-8.1-8C31.5,0.1,31.2,0,31,0H15.3c-1,0-1.8,0.8-1.8,1.8v3.5h1.9V1.8h14.8v5.9c0,1.1,0.9,2.1,2.1,2.1
		h6v23.2h-2.1v0.7v1.1h2.1c1,0,1.8-0.8,1.8-1.8V30c0-0.3,0-0.7,0-1.1c0-0.3,0-0.6,0-0.8V8.9l0,0C40,8.6,39.9,8.4,39.7,8.2z M32.1,8
		c-0.1,0-0.2-0.1-0.2-0.3V3.1l5,4.9H32.1z"/>
</g>
<g>
	<polygon class="st2" points="32.6,35.6 32.5,35.6 32.5,35.7 	"/>
	<path class="st2" d="M26.5,16.9c-1.2,0-2.1-1-2.1-2.1C24.4,16,25.3,16.9,26.5,16.9z"/>
	<path class="st2" d="M26.5,15C26.5,15,26.5,14.9,26.5,15C26.5,15,26.6,15.1,26.5,15l4.9,0.2L31.2,15H26.5z"/>
	<path class="st0" d="M31.9,39.9l1.4,0.1v-1.7l-6.5-0.1v1.7l5,0.1C31.9,40,31.9,39.9,31.9,39.9z"/>
	<path class="st0" d="M32.5,35.7L32.5,35.7V16.9h-6c-1.2,0-2.1-0.9-2.1-2.1V8.9H9.7V38l12.4-15.2L32.5,35.7z"/>
	<polygon class="st0" points="9.7,38.3 9.7,39.9 13.7,39.9 16.7,39.9 16.7,38.3 	"/>
	<polygon class="st0" points="30.4,39.9 32.5,39.9 32.5,38.3 31.6,38.3 	"/>
	<polygon class="st0" points="32.5,38.2 32.5,37.1 32.1,37.6 	"/>
	<path class="st0" d="M31.2,15l-4.8-4.7v4.6c0,0,0,0,0,0.1c0,0,0,0,0.1,0H31.2z"/>
	<path class="st1" d="M34.2,15.3l-8.1-8C25.9,7.1,25.7,7,25.5,7H9.8C8.8,7,8,7.8,8,8.8v31.1c0,1,0.8,1.8,1.8,1.8l6.9,0l0-1.8l-7,0
		v-1.6V8.9h14.8v5.9c0,1.1,0.9,2.1,2.1,2.1h6v23.1h-5.7c0,0,0,1.8,0,1.8l5.7,0c1,0,1.8-0.8,1.8-1.8V37c0-0.3,0-0.7,0-1.1
		c0-0.3,0-0.6,0-0.8V16C34.4,15.7,34.3,15.5,34.2,15.3z M26.6,15.1c-0.1,0-0.1-0.1-0.2-0.1c0,0,0,0,0-0.1v-4.6l4.8,4.7l0.2,0.2
		L26.6,15.1z"/>
</g>
<path class="st3" d="M24.8,36.8L24.8,36.8h5.8l-8.6-11.3l-8.6,11.3h5.7V48h5.7V36.8L24.8,36.8z"/>
</svg>
