<?xml version="1.0" encoding="utf-8"?>
<!-- Generator: Adobe Illustrator 23.0.3, SVG Export Plug-In . SVG Version: 6.00 Build 0)  -->
<svg version="1.1" id="Layer_1" xmlns="http://www.w3.org/2000/svg" xmlns:xlink="http://www.w3.org/1999/xlink" x="0px" y="0px"
	 viewBox="0 0 48 48" style="enable-background:new 0 0 48 48;" xml:space="preserve">
<style type="text/css">
	.st0{fill:#90A4AE;}
</style>
<path class="st0" d="M38.4,34.3l-7.6-3.8c-0.7-0.4-1.2-1.1-1.2-1.9v-2.7c0.2-0.2,0.4-0.5,0.6-0.8c1-1.4,1.8-3,2.4-4.6
	c1.1-0.5,1.9-1.6,1.9-2.9v-3.2c0-0.8-0.3-1.5-0.8-2.1V8c0-0.4,0.2-3.1-1.7-5.2C30.3,0.9,27.6,0,24,0s-6.3,0.9-7.9,2.8
	C14.2,5,14.4,7.6,14.4,8v4.3c-0.5,0.6-0.8,1.3-0.8,2.1v3.2c0,1,0.4,1.9,1.2,2.5c0.7,2.9,2.3,5.1,2.8,5.8v2.7c0,0.8-0.4,1.5-1.1,1.9
	l-7.1,3.9C7,35.5,5.6,38,5.6,40.6v2.6C5.6,47,17.6,48,24,48s18.4-1,18.4-4.8v-2.4C42.4,38,40.9,35.5,38.4,34.3z"/>
</svg>
