<?xml version="1.0" encoding="utf-8"?>
<!-- Generator: Adobe Illustrator 23.0.3, SVG Export Plug-In . SVG Version: 6.00 Build 0)  -->
<svg version="1.1" id="Layer_1" xmlns="http://www.w3.org/2000/svg" xmlns:xlink="http://www.w3.org/1999/xlink" x="0px" y="0px"
	 viewBox="0 0 512 512" style="enable-background:new 0 0 512 512;" xml:space="preserve">
<style type="text/css">
	.st0{fill:#90A4AE;}
	.st1{fill:#FFFFFF;}
	.st2{fill:#64B5F6;}
</style>
<g>
	<path class="st0" d="M482.7,159.1C430.3,60.7,313.5,10.1,205,39.5C63.4,78.2-10.1,229.8,41.3,363.2L0,379.7c6.4,0,7.4-2.8,0,0
		l122.3,104.9c2.8,1.8,5.6,0,6.4-2.8c0,0,6.4-151.7,7.4-156.3L104,338.3c-35.9-93.8,13.8-199.5,111.3-231.7
		c83.7-26.7,175.7,12.9,213.4,91.9c39.5,83.7,7.4,182.1-69,227.1c-13.8,8.2-20.2,25.7-13.8,41.3c7.4,19.3,30.3,26.7,47.8,16.6
		C502,420.2,546.1,277.6,482.7,159.1z"/>
</g>
<g>
	<g>
		<circle class="st1" cx="267.6" cy="259.1" r="99.2"/>
		<path class="st2" d="M267.6,144c-63.5,0-116.1,51.6-116.1,116.1s52.6,115.1,116.1,115.1s116.1-51.6,116.1-116.1
			S332.1,144,267.6,144z M267.6,350.4c-50.6,0-91.3-40.7-91.3-91.3s40.7-91.3,91.3-91.3s91.3,40.7,91.3,91.3
			S318.2,350.4,267.6,350.4z"/>
		<path class="st2" d="M328.1,256.2h-51.6v-62.5c0-5-4-9.9-9.9-9.9c-6,0-9.9,4-9.9,9.9v72.4c0,5,4,9.9,9.9,9.9h61.5
			c5,0,9.9-4,9.9-9.9C338,260.1,334.1,256.2,328.1,256.2z"/>
	</g>
</g>
</svg>
