<?xml version="1.0" encoding="utf-8"?>
<!-- Generator: Adobe Illustrator 23.0.2, SVG Export Plug-In . SVG Version: 6.00 Build 0)  -->
<svg version="1.1" id="Layer_1" xmlns="http://www.w3.org/2000/svg" xmlns:xlink="http://www.w3.org/1999/xlink" x="0px" y="0px"
	 viewBox="0 0 48 48" style="enable-background:new 0 0 48 48;" xml:space="preserve">
<style type="text/css">
	.st0{fill:#5E747E;}
</style>
<g>
	<path class="st0" d="M43.2,9.3C37.1,0.8,25.8-2.3,16.2,1.8C6.5,5.9,1.4,15.7,2.6,25.3h6.3c-1.2-6.9,2.3-14.2,9-17.5
		c7.3-3.5,16.3-1,20.7,5.8c5.2,7.9,2.6,18.4-5.4,23.1l-3-5.3c-0.2-0.3-0.6-0.2-0.8,0.1L23,45.5c-0.1,0.2,0,0.5,0.3,0.5L38.7,48
		c0.4,0,0.6-0.3,0.5-0.6l-3-5.3C47.6,35.5,51.1,20.3,43.2,9.3z"/>
</g>
<path class="st0" d="M33.5,20.2h-8.2v-10c0-0.8-0.7-1.5-1.5-1.5c-0.8,0-1.5,0.7-1.5,1.5v11.5c0,0.8,0.7,1.5,1.5,1.5h9.7
	c0.8,0,1.5-0.7,1.5-1.5C35,20.9,34.3,20.2,33.5,20.2z"/>
<g>
	<path class="st0" d="M17.9,36.8h-6.2v-6.2c0-0.3-0.3-0.6-0.6-0.6H7.8c-0.3,0-0.6,0.3-0.6,0.6v6.2H1.1c-0.3,0-0.6,0.3-0.6,0.6v3.4
		c0,0.3,0.3,0.6,0.6,0.6h6.2v6.2c0,0.3,0.3,0.6,0.6,0.6h3.4c0.3,0,0.6-0.3,0.6-0.6v-6.2h6.2c0.3,0,0.6-0.3,0.6-0.6v-3.4
		C18.4,37,18.2,36.8,17.9,36.8z"/>
</g>
</svg>
