<?xml version="1.0" encoding="utf-8"?>
<!-- Generator: Adobe Illustrator 23.0.2, SVG Export Plug-In . SVG Version: 6.00 Build 0)  -->
<svg version="1.1" id="Layer_1" xmlns="http://www.w3.org/2000/svg" xmlns:xlink="http://www.w3.org/1999/xlink" x="0px" y="0px"
	 viewBox="0 0 48 48" style="enable-background:new 0 0 48 48;" xml:space="preserve">
<style type="text/css">
	.st0{fill:#5E747E;}
</style>
<g>
	<path class="st0" d="M2.8,30.4c0.7,1.8,2.8,2.5,4.4,1.6c1.3-0.7,1.9-2.3,1.4-3.8c-2.8-7.7,0.5-16.6,8.3-20.4
		c7.3-3.5,16.3-1,20.7,5.8c5.2,7.9,2.6,18.4-5.4,23.1l-3-5.3c-0.2-0.3-0.6-0.2-0.8,0.1l-6.4,14.1c-0.1,0.2,0,0.5,0.3,0.5L37.8,48
		c0.4,0,0.6-0.3,0.5-0.6l-3-5.3c11.4-6.6,14.9-21.8,7-32.8c-6.1-8.4-17.4-11.6-27-7.5C3.8,6.6-1.2,19.4,2.8,30.4z"/>
</g>
<path class="st0" d="M32.6,20.2h-8.2v-10c0-0.8-0.7-1.5-1.5-1.5c-0.8,0-1.5,0.7-1.5,1.5v11.5c0,0.8,0.7,1.5,1.5,1.5h9.7
	c0.8,0,1.5-0.7,1.5-1.5C34.1,20.9,33.4,20.2,32.6,20.2z"/>
</svg>
