<?xml version="1.0" encoding="utf-8"?>
<!-- Generator: Adobe Illustrator 23.0.1, SVG Export Plug-In . SVG Version: 6.00 Build 0)  -->
<svg version="1.1" id="Capa_1" xmlns="http://www.w3.org/2000/svg" xmlns:xlink="http://www.w3.org/1999/xlink" x="0px" y="0px"
	 viewBox="0 0 512 512" style="enable-background:new 0 0 512 512;" xml:space="preserve">
<style type="text/css">
	.st0{fill:#F89B3A;}
</style>
<g>
	<g>
		<path class="st0" d="M508.1,444.5L284,37c-5.7-10.3-16.2-16.5-28-16.5c-11.9,0-22.3,6.2-28,16.5L3.9,444.5
			c-5.4,9.9-5.2,21.6,0.5,31.4c5.8,9.8,16.1,15.7,27.5,15.7h448c11.4,0,21.7-5.9,27.5-15.7C513.3,466.1,513.5,454.4,508.1,444.5z
			 M250.9,184.8c1.7-0.3,3.4-0.4,5.1-0.4c14.7,0,27.7,10.5,30.2,25.4c0.6,3.4,0.5,6.8,0,10l-20.2,119.9c-0.8,5-5.2,8.5-10.1,8.5
			c-0.6,0-1.1,0-1.7-0.1c-4.4-0.7-7.7-4.2-8.4-8.3l-20.2-119.9C222.9,203.2,234.2,187.5,250.9,184.8z M256,430.1
			c-16.9,0-30.7-13.8-30.7-30.7s13.8-30.7,30.7-30.7s30.7,13.8,30.7,30.7S272.9,430.1,256,430.1z"/>
	</g>
</g>
</svg>
