<?xml version="1.0" encoding="utf-8"?>
<!-- Generator: Adobe Illustrator 23.0.3, SVG Export Plug-In . SVG Version: 6.00 Build 0)  -->
<svg version="1.1" id="Layer_1" xmlns="http://www.w3.org/2000/svg" xmlns:xlink="http://www.w3.org/1999/xlink" x="0px" y="0px"
	 viewBox="0 0 48 48" style="enable-background:new 0 0 48 48;" xml:space="preserve">
<style type="text/css">
	.st0{fill:#FFFFFF;}
	.st1{fill:#90A4AE;}
	.st2{fill:#4DD0E1;}
	.st3{fill:none;}
</style>
<g>
	<path class="st0" d="M20,41.8l7.6,0V27.4h-7.8c-0.4,0-0.9-0.2-1.3-0.5c-0.4-0.4-0.5-0.7-0.5-1.3v-7.8H8.4v11c0.3,0,0.5,0,0.8,0
		c6.1,0,11.1,4.5,11.1,10C20.3,40.1,20,41.9,20,41.8z"/>
	<path class="st0" d="M21.1,18.5c-0.2-0.2-0.5-0.4-0.8-0.5v7.1c0,0,7.1,0,7.1,0.1c-0.2-0.5-0.3-0.6-0.5-0.8L21.1,18.5z"/>
	<path class="st1" d="M29.6,24c-0.3-0.6-0.5-1.1-0.9-1.4l-5.9-5.9c-0.4-0.4-0.8-0.6-1.4-0.9c-0.6-0.3-1.2-0.4-1.7-0.4h-12
		c-0.5,0-0.9,0.2-1.3,0.5C6.2,16.3,6,16.8,6,17.2v12c0,0,0.1,0,0.1,0c0.7-0.2,1.4-0.3,2.1-0.4c0,0,0.1,0,0.1,0c0,0,0,0,0,0v-11H18
		v7.8c0,0.5,0.2,0.9,0.5,1.3c0.4,0.4,0.8,0.5,1.3,0.5h7.8v14.4l-7.6,0c0,0.1,0,0.1-0.1,0.3l-0.1,0.2c0,0,0,0-0.1,0.3
		c0,0,0,0.1-0.1,0.1c-0.2,0.4-0.3,0.5-0.5,0.8c-0.2,0.3-0.1,0.2-0.4,0.6l-0.1,0.1c-0.1,0.1,0,0-0.1,0.1h9.7c0.5,0,0.9-0.2,1.3-0.5
		c0.4-0.4,0.5-0.8,0.5-1.3V25.7C30,25.2,29.9,24.6,29.6,24z M20.3,25.1V18c0.4,0.1,0.6,0.3,0.8,0.5l5.9,5.9c0.2,0.2,0.3,0.4,0.5,0.8
		C27.5,25.1,20.3,25.1,20.3,25.1z"/>
</g>
<g>
	<path class="st2" d="M9.2,31.2c-5.1,0-9.2,3.6-9.2,7.9c0,1.5,0.5,3,1.4,4.3c-0.2,2-0.6,3.3-1.3,4C0,47.6,0,47.7,0,47.8
		C0.1,47.9,0.2,48,0.3,48l0,0c0.1,0,3-0.5,5.1-1.5c1.2,0.5,2.4,0.7,3.8,0.7c5.1,0,9.2-3.6,9.2-7.9S14.3,31.2,9.2,31.2z"/>
	<ellipse class="st0" cx="14.6" cy="39.2" rx="1.9" ry="1.8"/>
	<ellipse class="st0" cx="9.2" cy="39.2" rx="1.9" ry="1.8"/>
	<ellipse class="st0" cx="3.8" cy="39.2" rx="1.9" ry="1.8"/>
</g>
<g>
	<path class="st3" d="M22.3,23.1c0.2,0,0.4,0,0.6,0l-0.6-0.6V23.1z"/>
	<path class="st1" d="M30.4,20.9H31h5.4c-0.1-2.1-0.5-4.4-1.1-6.4c-0.3-0.9-0.5-1.8-0.9-2.7c-1.1,0.4-2.2,0.5-3.4,0.7
		c-1.2,0.2-2.3,0.3-3.5,0.3v1.6v3.5l2.6,2.6C30.2,20.5,30.3,20.7,30.4,20.9z"/>
	<path class="st1" d="M31,3.7c1.7,1.9,3.1,4,4.2,6.2c2.1-0.7,4.2-1.8,6.1-3l0.5-0.4c-2.9-2.9-6.6-4.9-10.8-5.7
		c-0.9-0.2-1.8-0.3-2.7-0.4l-0.4,0.3C29,1.7,30,2.7,31,3.7z"/>
	<path class="st1" d="M33.7,10.4C32.9,8.9,32,7.4,31,6c-1-1.3-2.1-2.5-3.5-3.7v9c1.2,0,2.3-0.2,3.5-0.4
		C31.8,10.9,32.7,10.7,33.7,10.4z"/>
	<path class="st1" d="M36,31.3c2.3,0.8,4.5,2,6.5,3.4l0.6,0.5c2.9-3.5,4.7-7.9,4.9-12.8H37.7C37.6,25.5,37,28.6,36,31.3z"/>
	<path class="st1" d="M18.4,10c1.7-3.6,4.1-6.7,7.2-9.2l-0.4-0.4c-5.2,0.4-9.9,2.7-13.5,6.2L12.3,7C14.2,8.3,16.2,9.3,18.4,10z"/>
	<path class="st1" d="M26,2.3c-2.7,2.3-4.7,5.1-6.2,8.1c2.1,0.5,4.1,0.9,6.2,0.9V2.3z"/>
	<path class="st1" d="M17,13.4c0.2-0.7,0.5-1.3,0.7-2.1c-2.2-0.8-4.4-1.9-6.3-3.2l-0.6-0.4c-1.4,1.7-2.7,3.6-3.6,5.7h1.9H17z"/>
	<path class="st1" d="M18.6,13.4h2.5c0.5,0,1.1,0.1,1.7,0.4c0.5,0.2,0.9,0.5,1.2,0.7c0.1,0.1,0.2,0.1,0.2,0.2l1.8,1.8v-2v-1.6
		c-2.3-0.1-4.6-0.5-6.8-1.1C19,12.3,18.8,12.8,18.6,13.4z"/>
	<path class="st1" d="M36.8,14.5c0.5,2.1,0.9,4.3,1,6.5H48c-0.1-2.2-0.5-4.5-1.3-6.5c-0.9-2.5-2.3-4.8-4-6.8l-0.6,0.5
		c-2,1.3-4.1,2.4-6.3,3.2C36.1,12.3,36.5,13.4,36.8,14.5z"/>
	<path class="st1" d="M34.5,31c1.1-2.7,1.6-5.5,1.7-8.5h-4.9l0.5,1c0.3,0.3,0.3,0.5,0.3,0.5v6.3C32.9,30.5,33.7,30.7,34.5,31z"/>
	<path class="st1" d="M35.4,32.7c-0.9,2-2,3.8-3.2,5.4v4.1c3.8-1,7.3-3,10-5.9l-0.6-0.4C39.7,34.5,37.6,33.5,35.4,32.7z"/>
	<path class="st1" d="M32.1,32V36c0.7-1.2,1.4-2.2,2-3.5C33.5,32.3,32.7,32.1,32.1,32z"/>
</g>
</svg>
